<svg version="1.1" viewBox="0.0 0.0 600.0 371.0" fill="none" stroke="none" stroke-linecap="square" stroke-miterlimit="10" width="600" height="371" xmlns:xlink="http://www.w3.org/1999/xlink" xmlns="http://www.w3.org/2000/svg"><path fill="#ffffff" d="M0 0L600.0 0L600.0 371.0L0 371.0L0 0Z" fill-rule="nonzero"/><path stroke="#cccccc" stroke-width="1.0" stroke-linecap="butt" d="M159.5 88.5L159.5 300.5" fill-rule="nonzero"/><path stroke="#cccccc" stroke-width="1.0" stroke-linecap="butt" d="M262.5 88.5L262.5 300.5" fill-rule="nonzero"/><path stroke="#cccccc" stroke-width="1.0" stroke-linecap="butt" d="M365.5 88.5L365.5 300.5" fill-rule="nonzero"/><path stroke="#cccccc" stroke-width="1.0" stroke-linecap="butt" d="M468.5 88.5L468.5 300.5" fill-rule="nonzero"/><path stroke="#cccccc" stroke-width="1.0" stroke-linecap="butt" d="M571.5 88.5L571.5 300.5" fill-rule="nonzero"/><path stroke="#333333" stroke-width="1.0" stroke-linecap="butt" d="M98.5 300.5L581.5 300.5" fill-rule="nonzero"/><path stroke="#cccccc" stroke-width="1.0" stroke-linecap="butt" d="M98.5 247.5L581.5 247.5" fill-rule="nonzero"/><path stroke="#cccccc" stroke-width="1.0" stroke-linecap="butt" d="M98.5 194.5L581.5 194.5" fill-rule="nonzero"/><path stroke="#cccccc" stroke-width="1.0" stroke-linecap="butt" d="M98.5 141.5L581.5 141.5" fill-rule="nonzero"/><path stroke="#cccccc" stroke-width="1.0" stroke-linecap="butt" d="M98.5 88.5L581.5 88.5" fill-rule="nonzero"/><clipPath id="id_0"><path d="M98.55 88.28333L581.45 88.28333L581.45 300.45L98.55 300.45L98.55 88.28333Z" clip-rule="nonzero"/></clipPath><path stroke="#a2c3fa" stroke-width="1.0" stroke-linecap="butt" clip-path="url(#id_0)" d="M108.152306 300.21323L108.152306 300.21323" fill-rule="nonzero"/><path stroke="#a2c3fa" stroke-width="1.0" stroke-linecap="butt" clip-path="url(#id_0)" d="M102.152306 300.21323L114.152306 300.21323" fill-rule="nonzero"/><path stroke="#a2c3fa" stroke-width="1.0" stroke-linecap="butt" clip-path="url(#id_0)" d="M102.152306 300.21323L114.152306 300.21323" fill-rule="nonzero"/><path stroke="#a2c3fa" stroke-width="1.0" stroke-linecap="butt" clip-path="url(#id_0)" d="M159.67401 298.32904L159.67401 298.32904" fill-rule="nonzero"/><path stroke="#a2c3fa" stroke-width="1.0" stroke-linecap="butt" clip-path="url(#id_0)" d="M153.67401 298.32904L165.67401 298.32904" fill-rule="nonzero"/><path stroke="#a2c3fa" stroke-width="1.0" stroke-linecap="butt" clip-path="url(#id_0)" d="M153.67401 298.32904L165.67401 298.32904" fill-rule="nonzero"/><path stroke="#a2c3fa" stroke-width="1.0" stroke-linecap="butt" clip-path="url(#id_0)" d="M314.23914 253.10818L314.23914 253.10818" fill-rule="nonzero"/><path stroke="#a2c3fa" stroke-width="1.0" stroke-linecap="butt" clip-path="url(#id_0)" d="M308.23914 253.10818L320.23914 253.10818" fill-rule="nonzero"/><path stroke="#a2c3fa" stroke-width="1.0" stroke-linecap="butt" clip-path="url(#id_0)" d="M308.23914 253.10818L320.23914 253.10818" fill-rule="nonzero"/><path stroke="#f49c94" stroke-width="1.0" stroke-linecap="butt" clip-path="url(#id_0)" d="M108.152306 291.64752L108.152306 291.64752" fill-rule="nonzero"/><path stroke="#f49c94" stroke-width="1.0" stroke-linecap="butt" clip-path="url(#id_0)" d="M102.152306 291.64752L114.152306 291.64752" fill-rule="nonzero"/><path stroke="#f49c94" stroke-width="1.0" stroke-linecap="butt" clip-path="url(#id_0)" d="M102.152306 291.64752L114.152306 291.64752" fill-rule="nonzero"/><path stroke="#f49c94" stroke-width="1.0" stroke-linecap="butt" clip-path="url(#id_0)" d="M159.67401 206.16782L159.67401 206.16782" fill-rule="nonzero"/><path stroke="#f49c94" stroke-width="1.0" stroke-linecap="butt" clip-path="url(#id_0)" d="M153.67401 206.16782L165.67401 206.16782" fill-rule="nonzero"/><path stroke="#f49c94" stroke-width="1.0" stroke-linecap="butt" clip-path="url(#id_0)" d="M153.67401 206.16782L165.67401 206.16782" fill-rule="nonzero"/><path stroke="#f49c94" stroke-width="1.0" stroke-linecap="butt" clip-path="url(#id_0)" d="M314.23914 220.98715L314.23914 220.98715" fill-rule="nonzero"/><path stroke="#f49c94" stroke-width="1.0" stroke-linecap="butt" clip-path="url(#id_0)" d="M308.23914 220.98715L320.23914 220.98715" fill-rule="nonzero"/><path stroke="#f49c94" stroke-width="1.0" stroke-linecap="butt" clip-path="url(#id_0)" d="M308.23914 220.98715L320.23914 220.98715" fill-rule="nonzero"/><path stroke="#a27903" stroke-width="1.0" stroke-linecap="butt" clip-path="url(#id_0)" d="M108.152306 299.33826L108.152306 299.33826" fill-rule="nonzero"/><path stroke="#a27903" stroke-width="1.0" stroke-linecap="butt" clip-path="url(#id_0)" d="M102.152306 299.33826L114.152306 299.33826" fill-rule="nonzero"/><path stroke="#a27903" stroke-width="1.0" stroke-linecap="butt" clip-path="url(#id_0)" d="M102.152306 299.33826L114.152306 299.33826" fill-rule="nonzero"/><path stroke="#a27903" stroke-width="1.0" stroke-linecap="butt" clip-path="url(#id_0)" d="M159.67401 124.74141L159.67401 124.74141" fill-rule="nonzero"/><path stroke="#a27903" stroke-width="1.0" stroke-linecap="butt" clip-path="url(#id_0)" d="M153.67401 124.74141L165.67401 124.74141" fill-rule="nonzero"/><path stroke="#a27903" stroke-width="1.0" stroke-linecap="butt" clip-path="url(#id_0)" d="M153.67401 124.74141L165.67401 124.74141" fill-rule="nonzero"/><path stroke="#a27903" stroke-width="1.0" stroke-linecap="butt" clip-path="url(#id_0)" d="M314.23914 287.81546L314.23914 287.81546" fill-rule="nonzero"/><path stroke="#a27903" stroke-width="1.0" stroke-linecap="butt" clip-path="url(#id_0)" d="M308.23914 287.81546L320.23914 287.81546" fill-rule="nonzero"/><path stroke="#a27903" stroke-width="1.0" stroke-linecap="butt" clip-path="url(#id_0)" d="M308.23914 287.81546L320.23914 287.81546" fill-rule="nonzero"/><path stroke="#a27903" stroke-width="1.0" stroke-linecap="butt" clip-path="url(#id_0)" d="M571.8477 265.03955L571.8477 265.03955" fill-rule="nonzero"/><path stroke="#a27903" stroke-width="1.0" stroke-linecap="butt" clip-path="url(#id_0)" d="M565.8477 265.03955L577.8477 265.03955" fill-rule="nonzero"/><path stroke="#a27903" stroke-width="1.0" stroke-linecap="butt" clip-path="url(#id_0)" d="M565.8477 265.03955L577.8477 265.03955" fill-rule="nonzero"/><path stroke="#4285f4" stroke-width="4.0" stroke-linecap="butt" stroke-dasharray="26.0,12.0" clip-path="url(#id_0)" d="M108.152306 300.21323C108.152306 300.21323 142.5001 301.15533 159.67401 298.32904C176.84792 295.50275 314.23914 253.10818 314.23914 253.10818" fill-rule="nonzero"/><path stroke="#ea4335" stroke-width="4.0" stroke-linecap="butt" stroke-dasharray="4.0,5.0" clip-path="url(#id_0)" d="M108.152306 291.64752C108.152306 291.64752 142.5001 219.59113 159.67401 206.16782C176.84792 192.74449 314.23914 220.98715 314.23914 220.98715" fill-rule="nonzero"/><path stroke="#fbbc04" stroke-width="4.0" stroke-linecap="butt" clip-path="url(#id_0)" d="M108.152306 299.33826C108.152306 299.33826 142.5001 144.78122 159.67401 124.74141C176.84792 104.70161 262.71744 262.91406 314.23914 287.81546C365.76086 312.7169 571.8477 265.03955 571.8477 265.03955" fill-rule="nonzero"/><path fill="#4285f4" clip-path="url(#id_0)" d="M114.152306 300.21323C114.152306 303.52695 111.46602 306.21323 108.152306 306.21323C104.8386 306.21323 102.152306 303.52695 102.152306 300.21323C102.152306 296.89954 104.8386 294.21323 108.152306 294.21323C111.46602 294.21323 114.152306 296.89954 114.152306 300.21323Z" fill-rule="nonzero"/><path fill="#4285f4" clip-path="url(#id_0)" d="M165.67401 298.32904C165.67401 301.64276 162.98773 304.32904 159.67401 304.32904C156.3603 304.32904 153.67401 301.64276 153.67401 298.32904C153.67401 295.01532 156.3603 292.32904 159.67401 292.32904C162.98773 292.32904 165.67401 295.01532 165.67401 298.32904Z" fill-rule="nonzero"/><path fill="#4285f4" clip-path="url(#id_0)" d="M320.23914 253.10818C320.23914 256.4219 317.55286 259.1082 314.23914 259.1082C310.92545 259.1082 308.23914 256.4219 308.23914 253.10818C308.23914 249.79448 310.92545 247.10818 314.23914 247.10818C317.55286 247.10818 320.23914 249.79448 320.23914 253.10818Z" fill-rule="nonzero"/><path fill="#ea4335" clip-path="url(#id_0)" d="M114.152306 291.64752C114.152306 294.96124 111.46602 297.64752 108.152306 297.64752C104.8386 297.64752 102.152306 294.96124 102.152306 291.64752C102.152306 288.33383 104.8386 285.64752 108.152306 285.64752C111.46602 285.64752 114.152306 288.33383 114.152306 291.64752Z" fill-rule="nonzero"/><path fill="#ea4335" clip-path="url(#id_0)" d="M165.67401 206.16782C165.67401 209.48152 162.98773 212.16782 159.67401 212.16782C156.3603 212.16782 153.67401 209.48152 153.67401 206.16782C153.67401 202.8541 156.3603 200.16782 159.67401 200.16782C162.98773 200.16782 165.67401 202.8541 165.67401 206.16782Z" fill-rule="nonzero"/><path fill="#ea4335" clip-path="url(#id_0)" d="M320.23914 220.98715C320.23914 224.30086 317.55286 226.98715 314.23914 226.98715C310.92545 226.98715 308.23914 224.30086 308.23914 220.98715C308.23914 217.67345 310.92545 214.98715 314.23914 214.98715C317.55286 214.98715 320.23914 217.67345 320.23914 220.98715Z" fill-rule="nonzero"/><path fill="#fbbc04" clip-path="url(#id_0)" d="M114.152306 299.33826C114.152306 302.65195 111.46602 305.33826 108.152306 305.33826C104.8386 305.33826 102.152306 302.65195 102.152306 299.33826C102.152306 296.02454 104.8386 293.33826 108.152306 293.33826C111.46602 293.33826 114.152306 296.02454 114.152306 299.33826Z" fill-rule="nonzero"/><path fill="#fbbc04" clip-path="url(#id_0)" d="M165.67401 124.74141C165.67401 128.05511 162.98773 130.74141 159.67401 130.74141C156.3603 130.74141 153.67401 128.05511 153.67401 124.74141C153.67401 121.427704 156.3603 118.74141 159.67401 118.74141C162.98773 118.74141 165.67401 121.427704 165.67401 124.74141Z" fill-rule="nonzero"/><path fill="#fbbc04" clip-path="url(#id_0)" d="M320.23914 287.81546C320.23914 291.12918 317.55286 293.81546 314.23914 293.81546C310.92545 293.81546 308.23914 291.12918 308.23914 287.81546C308.23914 284.50177 310.92545 281.81546 314.23914 281.81546C317.55286 281.81546 320.23914 284.50177 320.23914 287.81546Z" fill-rule="nonzero"/><path fill="#fbbc04" clip-path="url(#id_0)" d="M577.8477 265.03955C577.8477 268.35324 575.1614 271.03955 571.8477 271.03955C568.534 271.03955 565.8477 268.35324 565.8477 265.03955C565.8477 261.72583 568.534 259.03955 571.8477 259.03955C575.1614 259.03955 577.8477 261.72583 577.8477 265.03955Z" fill-rule="nonzero"/><path fill="#000000" d="M292.92188 349.45L292.92188 340.85626L294.07812 340.85626L298.59375 347.60626L298.59375 340.85626L299.6875 340.85626L299.6875 349.45L298.51562 349.45L294.0 342.7L294.0 349.45L292.92188 349.45ZM305.875 349.45L305.875 348.52814Q305.14062 349.59064 303.89062 349.59064Q303.34375 349.59064 302.85938 349.3875Q302.39062 349.16876 302.15625 348.85626Q301.92188 348.52814 301.82812 348.0594Q301.76562 347.7625 301.76562 347.075L301.76562 343.23126L302.82812 343.23126L302.82812 346.6844Q302.82812 347.4969 302.89062 347.79376Q302.98438 348.2 303.29688 348.45Q303.625 348.6844 304.10938 348.6844Q304.57812 348.6844 304.98438 348.45Q305.40625 348.2 305.57812 347.77814Q305.76562 347.35626 305.76562 346.5594L305.76562 343.23126L306.8125 343.23126L306.8125 349.45L305.875 349.45ZM308.79688 349.45L308.79688 343.23126L309.73438 343.23126L309.73438 344.10626Q310.03125 343.6375 310.51562 343.3719Q311.0 343.09064 311.625 343.09064Q312.3125 343.09064 312.75 343.3719Q313.20312 343.65314 313.375 344.16876Q314.125 343.09064 315.29688 343.09064Q316.23438 343.09064 316.71875 343.60626Q317.21875 344.10626 317.21875 345.1844L317.21875 349.45L316.17188 349.45L316.17188 345.52814Q316.17188 344.90314 316.0625 344.6219Q315.96875 344.34064 315.70312 344.16876Q315.4375 343.9969 315.0625 343.9969Q314.40625 343.9969 313.96875 344.4344Q313.54688 344.8719 313.54688 345.84064L313.54688 349.45L312.48438 349.45L312.48438 345.40314Q312.48438 344.7 312.21875 344.35626Q311.96875 343.9969 311.39062 343.9969Q310.9375 343.9969 310.5625 344.23126Q310.1875 344.46564 310.01562 344.91876Q309.84375 345.3719 309.84375 346.21564L309.84375 349.45L308.79688 349.45ZM320.76562 349.45L319.78125 349.45L319.78125 340.85626L320.84375 340.85626L320.84375 343.91876Q321.51562 343.09064 322.54688 343.09064Q323.125 343.09064 323.625 343.325Q324.14062 343.54376 324.46875 343.96564Q324.8125 344.3875 325.0 344.98126Q325.1875 345.575 325.1875 346.2469Q325.1875 347.84064 324.39062 348.71564Q323.59375 349.59064 322.5 349.59064Q321.39062 349.59064 320.76562 348.66876L320.76562 349.45ZM320.75 346.29376Q320.75 347.40314 321.0625 347.90314Q321.5625 348.71564 322.40625 348.71564Q323.09375 348.71564 323.59375 348.1219Q324.10938 347.52814 324.10938 346.325Q324.10938 345.10626 323.625 344.52814Q323.14062 343.95 322.45312 343.95Q321.76562 343.95 321.25 344.5594Q320.75 345.15314 320.75 346.29376ZM331.04688 347.45L332.14062 347.575Q331.89062 348.52814 331.1875 349.0594Q330.48438 349.59064 329.40625 349.59064Q328.04688 349.59064 327.23438 348.7469Q326.4375 347.90314 326.4375 346.3875Q326.4375 344.825 327.25 343.96564Q328.0625 343.09064 329.34375 343.09064Q330.59375 343.09064 331.375 343.9344Q332.17188 344.77814 332.17188 346.325Q332.17188 346.41876 332.17188 346.60626L327.53125 346.60626Q327.59375 347.6375 328.10938 348.1844Q328.625 348.71564 329.40625 348.71564Q329.98438 348.71564 330.39062 348.41876Q330.8125 348.10626 331.04688 347.45ZM327.59375 345.7469L331.0625 345.7469Q331.0 344.95 330.67188 344.5594Q330.15625 343.95 329.35938 343.95Q328.625 343.95 328.125 344.4344Q327.64062 344.91876 327.59375 345.7469ZM333.78125 349.45L333.78125 343.23126L334.73438 343.23126L334.73438 344.16876Q335.09375 343.5125 335.39062 343.3094Q335.70312 343.09064 336.07812 343.09064Q336.60938 343.09064 337.15625 343.41876L336.79688 344.40314Q336.40625 344.16876 336.03125 344.16876Q335.67188 344.16876 335.39062 344.3875Q335.125 344.59064 335.01562 344.96564Q334.82812 345.52814 334.82812 346.1844L334.82812 349.45L333.78125 349.45ZM340.40625 346.34064Q340.40625 344.60626 341.35938 343.77814Q342.15625 343.09064 343.3125 343.09064Q344.59375 343.09064 345.40625 343.9344Q346.23438 344.7625 346.23438 346.2469Q346.23438 347.45 345.875 348.1375Q345.51562 348.825 344.8125 349.21564Q344.125 349.59064 343.3125 349.59064Q342.01562 349.59064 341.20312 348.7625Q340.40625 347.91876 340.40625 346.34064ZM341.48438 346.34064Q341.48438 347.52814 342.0 348.1219Q342.53125 348.71564 343.3125 348.71564Q344.10938 348.71564 344.625 348.1219Q345.14062 347.52814 345.14062 346.3094Q345.14062 345.15314 344.60938 344.5594Q344.09375 343.96564 343.3125 343.96564Q342.53125 343.96564 342.0 344.5594Q341.48438 345.1375 341.48438 346.34064ZM348.04688 349.45L348.04688 344.04376L347.10938 344.04376L347.10938 343.23126L348.04688 343.23126L348.04688 342.5594Q348.04688 341.9344 348.15625 341.6375Q348.3125 341.21564 348.6875 340.96564Q349.07812 340.71564 349.76562 340.71564Q350.21875 340.71564 350.75 340.825L350.59375 341.73126Q350.26562 341.6844 349.96875 341.6844Q349.48438 341.6844 349.28125 341.8875Q349.09375 342.09064 349.09375 342.65314L349.09375 343.23126L350.3125 343.23126L350.3125 344.04376L349.09375 344.04376L349.09375 349.45L348.04688 349.45ZM353.79688 349.45L353.79688 343.23126L354.73438 343.23126L354.73438 344.10626Q355.42188 343.09064 356.71875 343.09064Q357.28125 343.09064 357.75 343.29376Q358.23438 343.4969 358.46875 343.825Q358.70312 344.15314 358.79688 344.59064Q358.84375 344.8875 358.84375 345.6219L358.84375 349.45L357.79688 349.45L357.79688 345.66876Q357.79688 345.0125 357.67188 344.7Q357.54688 344.3875 357.23438 344.2Q356.92188 343.9969 356.5 343.9969Q355.82812 343.9969 355.32812 344.4344Q354.84375 344.85626 354.84375 346.04376L354.84375 349.45L353.79688 349.45ZM360.40625 346.34064Q360.40625 344.60626 361.35938 343.77814Q362.15625 343.09064 363.3125 343.09064Q364.59375 343.09064 365.40625 343.9344Q366.23438 344.7625 366.23438 346.2469Q366.23438 347.45 365.875 348.1375Q365.51562 348.825 364.8125 349.21564Q364.125 349.59064 363.3125 349.59064Q362.01562 349.59064 361.20312 348.7625Q360.40625 347.91876 360.40625 346.34064ZM361.48438 346.34064Q361.48438 347.52814 362.0 348.1219Q362.53125 348.71564 363.3125 348.71564Q364.10938 348.71564 364.625 348.1219Q365.14062 347.52814 365.14062 346.3094Q365.14062 345.15314 364.60938 344.5594Q364.09375 343.96564 363.3125 343.96564Q362.53125 343.96564 362.0 344.5594Q361.48438 345.1375 361.48438 346.34064ZM371.82812 349.45L371.82812 348.66876Q371.23438 349.59064 370.09375 349.59064Q369.34375 349.59064 368.71875 349.1844Q368.09375 348.7625 367.75 348.02814Q367.40625 347.29376 367.40625 346.34064Q367.40625 345.41876 367.71875 344.65314Q368.03125 343.8875 368.65625 343.4969Q369.28125 343.09064 370.04688 343.09064Q370.60938 343.09064 371.04688 343.325Q371.48438 343.5594 371.76562 343.9344L371.76562 340.85626L372.8125 340.85626L372.8125 349.45L371.82812 349.45ZM368.5 346.34064Q368.5 347.54376 369.0 348.1375Q369.5 348.71564 370.1875 348.71564Q370.875 348.71564 371.35938 348.15314Q371.84375 347.59064 371.84375 346.4344Q371.84375 345.15314 371.34375 344.5594Q370.85938 343.96564 370.14062 343.96564Q369.4375 343.96564 368.96875 344.54376Q368.5 345.10626 368.5 346.34064ZM379.04688 347.45L380.14062 347.575Q379.89062 348.52814 379.1875 349.0594Q378.48438 349.59064 377.40625 349.59064Q376.04688 349.59064 375.23438 348.7469Q374.4375 347.90314 374.4375 346.3875Q374.4375 344.825 375.25 343.96564Q376.0625 343.09064 377.34375 343.09064Q378.59375 343.09064 379.375 343.9344Q380.17188 344.77814 380.17188 346.325Q380.17188 346.41876 380.17188 346.60626L375.53125 346.60626Q375.59375 347.6375 376.10938 348.1844Q376.625 348.71564 377.40625 348.71564Q377.98438 348.71564 378.39062 348.41876Q378.8125 348.10626 379.04688 347.45ZM375.59375 345.7469L379.0625 345.7469Q379.0 344.95 378.67188 344.5594Q378.15625 343.95 377.35938 343.95Q376.625 343.95 376.125 344.4344Q375.64062 344.91876 375.59375 345.7469ZM381.375 347.59064L382.40625 347.4344Q382.5 348.0594 382.89062 348.3875Q383.29688 348.71564 384.03125 348.71564Q384.75 348.71564 385.09375 348.4344Q385.45312 348.1375 385.45312 347.73126Q385.45312 347.3719 385.14062 347.16876Q384.92188 347.02814 384.0625 346.8094Q382.90625 346.5125 382.45312 346.3094Q382.01562 346.09064 381.78125 345.71564Q381.54688 345.34064 381.54688 344.8719Q381.54688 344.46564 381.73438 344.10626Q381.92188 343.7469 382.25 343.5125Q382.5 343.34064 382.92188 343.21564Q383.34375 343.09064 383.84375 343.09064Q384.5625 343.09064 385.10938 343.3094Q385.67188 343.5125 385.9375 343.8719Q386.20312 344.23126 386.29688 344.825L385.26562 344.96564Q385.20312 344.4969 384.85938 344.23126Q384.53125 343.95 383.90625 343.95Q383.1875 343.95 382.875 344.2Q382.5625 344.4344 382.5625 344.7625Q382.5625 344.96564 382.6875 345.1219Q382.82812 345.29376 383.09375 345.40314Q383.25 345.46564 384.03125 345.66876Q385.15625 345.98126 385.59375 346.16876Q386.03125 346.35626 386.28125 346.71564Q386.53125 347.075 386.53125 347.6219Q386.53125 348.15314 386.21875 348.6219Q385.92188 349.075 385.34375 349.34064Q384.76562 349.59064 384.03125 349.59064Q382.8125 349.59064 382.17188 349.09064Q381.54688 348.575 381.375 347.59064Z" fill-rule="nonzero"/><path fill="#000000" d="M29.550013 239.91354L20.956263 239.91354L20.956263 233.71042L21.971888 233.71042L21.971888 238.77292L24.596888 238.77292L24.596888 234.02292L25.612513 234.02292L25.612513 238.77292L28.534388 238.77292L28.534388 233.5073L29.550013 233.5073L29.550013 239.91354ZM29.550013 232.77292L26.315638 230.5073L23.331263 232.60104L23.331263 231.28854L24.784388 230.33542Q25.206263 230.0698 25.487513 229.89792Q25.096888 229.64792 24.800013 229.42917L23.331263 228.3823L23.331263 227.11667L26.253138 229.27292L29.550013 226.96042L29.550013 228.24167L27.612513 229.52292L27.096888 229.86667L29.550013 231.5073L29.550013 232.77292ZM27.550013 222.8198L27.675013 221.72604Q28.628138 221.97604 29.159388 222.67917Q29.690638 223.3823 29.690638 224.46042Q29.690638 225.8198 28.846888 226.6323Q28.003138 227.42917 26.487513 227.42917Q24.925013 227.42917 24.065638 226.61667Q23.190638 225.80417 23.190638 224.52292Q23.190638 223.27292 24.034388 222.49167Q24.878138 221.6948 26.425013 221.6948Q26.518763 221.6948 26.706263 221.6948L26.706263 226.33542Q27.737513 226.27292 28.284388 225.7573Q28.815638 225.24167 28.815638 224.46042Q28.815638 223.8823 28.518763 223.47604Q28.206263 223.05417 27.550013 222.8198ZM25.846888 226.27292L25.846888 222.80417Q25.050013 222.86667 24.659388 223.1948Q24.050013 223.71042 24.050013 224.5073Q24.050013 225.24167 24.534388 225.74167Q25.018763 226.22604 25.846888 226.27292ZM27.268763 216.0073L27.409388 214.97604Q28.471888 215.14792 29.081263 215.85104Q29.690638 216.55417 29.690638 217.5698Q29.690638 218.85104 28.862513 219.6323Q28.018763 220.39792 26.456263 220.39792Q25.456263 220.39792 24.706263 220.0698Q23.940638 219.72604 23.565638 219.05417Q23.190638 218.36667 23.190638 217.55417Q23.190638 216.55417 23.706263 215.91354Q24.206263 215.2573 25.159388 215.0698L25.315638 216.10104Q24.690638 216.24167 24.378138 216.61667Q24.050013 216.99167 24.050013 217.52292Q24.050013 218.3198 24.628138 218.8198Q25.190638 219.3198 26.425013 219.3198Q27.690638 219.3198 28.253138 218.83542Q28.815638 218.35104 28.815638 217.58542Q28.815638 216.96042 28.440638 216.55417Q28.065638 216.1323 27.268763 216.0073ZM29.550013 209.99167L28.628138 209.99167Q29.690638 210.72604 29.690638 211.97604Q29.690638 212.52292 29.487513 213.0073Q29.268763 213.47604 28.956263 213.71042Q28.628138 213.9448 28.159388 214.03854Q27.862513 214.10104 27.175013 214.10104L23.331263 214.10104L23.331263 213.03854L26.784388 213.03854Q27.596888 213.03854 27.893763 212.97604Q28.300013 212.8823 28.550013 212.5698Q28.784388 212.24167 28.784388 211.7573Q28.784388 211.28854 28.550013 210.8823Q28.300013 210.46042 27.878138 210.28854Q27.456263 210.10104 26.659388 210.10104L23.331263 210.10104L23.331263 209.05417L29.550013 209.05417L29.550013 209.99167ZM28.612513 204.77292L29.534388 204.61667Q29.628138 205.0698 29.628138 205.41354Q29.628138 205.99167 29.456263 206.30417Q29.268763 206.61667 28.971888 206.7573Q28.675013 206.8823 27.721888 206.8823L24.143763 206.8823L24.143763 207.64792L23.331263 207.64792L23.331263 206.8823L21.784388 206.8823L21.159388 205.83542L23.331263 205.83542L23.331263 204.77292L24.143763 204.77292L24.143763 205.83542L27.784388 205.83542Q28.237513 205.83542 28.362513 205.78854Q28.487513 205.72604 28.565638 205.60104Q28.643763 205.47604 28.643763 205.24167Q28.643763 205.05417 28.612513 204.77292ZM22.175013 204.0698L20.956263 204.0698L20.956263 203.0073L22.175013 203.0073L22.175013 204.0698ZM29.550013 204.0698L23.331263 204.0698L23.331263 203.0073L29.550013 203.0073L29.550013 204.0698ZM26.440638 201.46042Q24.706263 201.46042 23.878138 200.5073Q23.190638 199.71042 23.190638 198.55417Q23.190638 197.27292 24.034388 196.46042Q24.862513 195.6323 26.346888 195.6323Q27.550013 195.6323 28.237513 195.99167Q28.925013 196.35104 29.315638 197.05417Q29.690638 197.74167 29.690638 198.55417Q29.690638 199.85104 28.862513 200.66354Q28.018763 201.46042 26.440638 201.46042ZM26.440638 200.3823Q27.628138 200.3823 28.221888 199.86667Q28.815638 199.33542 28.815638 198.55417Q28.815638 197.7573 28.221888 197.24167Q27.628138 196.72604 26.409388 196.72604Q25.253138 196.72604 24.659388 197.2573Q24.065638 197.77292 24.065638 198.55417Q24.065638 199.33542 24.659388 199.86667Q25.237513 200.3823 26.440638 200.3823ZM29.550013 194.0698L23.331263 194.0698L23.331263 193.1323L24.206263 193.1323Q23.190638 192.4448 23.190638 191.14792Q23.190638 190.58542 23.393763 190.11667Q23.596888 189.6323 23.925013 189.39792Q24.253138 189.16354 24.690638 189.0698Q24.987513 189.02292 25.721888 189.02292L29.550013 189.02292L29.550013 190.0698L25.768763 190.0698Q25.112513 190.0698 24.800013 190.1948Q24.487513 190.3198 24.300013 190.6323Q24.096888 190.9448 24.096888 191.36667Q24.096888 192.03854 24.534388 192.53854Q24.956263 193.02292 26.143763 193.02292L29.550013 193.02292L29.550013 194.0698ZM28.612513 181.77292L29.534388 181.61667Q29.628138 182.0698 29.628138 182.41354Q29.628138 182.99167 29.456263 183.30417Q29.268763 183.61667 28.971888 183.7573Q28.675013 183.8823 27.721888 183.8823L24.143763 183.8823L24.143763 184.64792L23.331263 184.64792L23.331263 183.8823L21.784388 183.8823L21.159388 182.83542L23.331263 182.83542L23.331263 181.77292L24.143763 181.77292L24.143763 182.83542L27.784388 182.83542Q28.237513 182.83542 28.362513 182.78854Q28.487513 182.72604 28.565638 182.60104Q28.643763 182.47604 28.643763 182.24167Q28.643763 182.05417 28.612513 181.77292ZM22.175013 181.0698L20.956263 181.0698L20.956263 180.0073L22.175013 180.0073L22.175013 181.0698ZM29.550013 181.0698L23.331263 181.0698L23.331263 180.0073L29.550013 180.0073L29.550013 181.0698ZM29.550013 178.0698L23.331263 178.0698L23.331263 177.1323L24.206263 177.1323Q23.737513 176.83542 23.471888 176.35104Q23.190638 175.86667 23.190638 175.24167Q23.190638 174.55417 23.471888 174.11667Q23.753138 173.66354 24.268763 173.49167Q23.190638 172.74167 23.190638 171.5698Q23.190638 170.6323 23.706263 170.14792Q24.206263 169.64792 25.284388 169.64792L29.550013 169.64792L29.550013 170.6948L25.628138 170.6948Q25.003138 170.6948 24.721888 170.80417Q24.440638 170.89792 24.268763 171.16354Q24.096888 171.42917 24.096888 171.80417Q24.096888 172.46042 24.534388 172.89792Q24.971888 173.3198 25.940638 173.3198L29.550013 173.3198L29.550013 174.3823L25.503138 174.3823Q24.800013 174.3823 24.456263 174.64792Q24.096888 174.89792 24.096888 175.47604Q24.096888 175.92917 24.331263 176.30417Q24.565638 176.67917 25.018763 176.85104Q25.471888 177.02292 26.315638 177.02292L29.550013 177.02292L29.550013 178.0698ZM27.550013 162.8198L27.675013 161.72604Q28.628138 161.97604 29.159388 162.67917Q29.690638 163.3823 29.690638 164.46042Q29.690638 165.8198 28.846888 166.6323Q28.003138 167.42917 26.487513 167.42917Q24.925013 167.42917 24.065638 166.61667Q23.190638 165.80417 23.190638 164.52292Q23.190638 163.27292 24.034388 162.49167Q24.878138 161.6948 26.425013 161.6948Q26.518763 161.6948 26.706263 161.6948L26.706263 166.33542Q27.737513 166.27292 28.284388 165.7573Q28.815638 165.24167 28.815638 164.46042Q28.815638 163.8823 28.518763 163.47604Q28.206263 163.05417 27.550013 162.8198ZM25.846888 166.27292L25.846888 162.80417Q25.050013 162.86667 24.659388 163.1948Q24.050013 163.71042 24.050013 164.5073Q24.050013 165.24167 24.534388 165.74167Q25.018763 166.22604 25.846888 166.27292Z" fill-rule="nonzero"/><path fill="#000000" d="M86.05 300.21564Q86.05 298.6844 86.3625 297.7625Q86.675 296.825 87.28438 296.325Q87.90938 295.825 88.84688 295.825Q89.53438 295.825 90.05 296.10626Q90.58125 296.3875 90.925 296.91876Q91.26875 297.4344 91.45625 298.1844Q91.64375 298.9344 91.64375 300.21564Q91.64375 301.73126 91.33125 302.65314Q91.03438 303.575 90.40938 304.09064Q89.8 304.59064 88.84688 304.59064Q87.6125 304.59064 86.89375 303.7Q86.05 302.6375 86.05 300.21564ZM87.12813 300.21564Q87.12813 302.325 87.62813 303.02814Q88.12813 303.73126 88.84688 303.73126Q89.58125 303.73126 90.06563 303.02814Q90.56563 302.325 90.56563 300.21564Q90.56563 298.09064 90.06563 297.40314Q89.58125 296.7 88.83125 296.7Q88.1125 296.7 87.675 297.3094Q87.12813 298.09064 87.12813 300.21564Z" fill-rule="nonzero"/><path fill="#000000" d="M63.596874 250.39272L63.596874 251.40834L57.909374 251.40834Q57.909374 251.03334 58.034374 250.67397Q58.253124 250.09584 58.721874 249.53334Q59.20625 248.97084 60.1125 248.23647Q61.51875 247.08022 62.003124 246.40834Q62.503124 245.73647 62.503124 245.14272Q62.503124 244.51772 62.05 244.09584Q61.596874 243.65834 60.878124 243.65834Q60.1125 243.65834 59.659374 244.11147Q59.20625 244.56459 59.190624 245.37709L58.1125 245.26772Q58.221874 244.04897 58.940624 243.42397Q59.675 242.78334 60.909374 242.78334Q62.14375 242.78334 62.8625 243.47084Q63.58125 244.15834 63.58125 245.17397Q63.58125 245.68959 63.3625 246.18959Q63.159374 246.67397 62.659374 247.23647Q62.175 247.78334 61.05 248.73647Q60.096874 249.53334 59.815624 249.83022Q59.55 250.11147 59.378124 250.39272L63.596874 250.39272ZM65.05 249.15834L66.15938 249.06459Q66.28438 249.87709 66.72188 250.28334Q67.175 250.68959 67.81563 250.68959Q68.56563 250.68959 69.09688 250.11147Q69.62813 249.53334 69.62813 248.59584Q69.62813 247.68959 69.1125 247.17397Q68.6125 246.64272 67.78438 246.64272Q67.28438 246.64272 66.8625 246.87709Q66.45625 247.11147 66.22188 247.47084L65.2375 247.34584L66.06563 242.93959L70.34688 242.93959L70.34688 243.93959L66.90938 243.93959L66.45625 246.25209Q67.22188 245.70522 68.06563 245.70522Q69.19063 245.70522 69.95625 246.48647Q70.7375 247.26772 70.7375 248.50209Q70.7375 249.65834 70.06563 250.51772Q69.2375 251.54897 67.81563 251.54897Q66.64375 251.54897 65.89375 250.89272Q65.15938 250.23647 65.05 249.15834ZM72.05 247.17397Q72.05 245.64272 72.3625 244.72084Q72.675 243.78334 73.28438 243.28334Q73.90938 242.78334 74.84688 242.78334Q75.53438 242.78334 76.05 243.06459Q76.58125 243.34584 76.925 243.87709Q77.26875 244.39272 77.45625 245.14272Q77.64375 245.89272 77.64375 247.17397Q77.64375 248.68959 77.33125 249.61147Q77.03438 250.53334 76.40938 251.04897Q75.8 251.54897 74.84688 251.54897Q73.6125 251.54897 72.89375 250.65834Q72.05 249.59584 72.05 247.17397ZM73.12813 247.17397Q73.12813 249.28334 73.62813 249.98647Q74.12813 250.68959 74.84688 250.68959Q75.58125 250.68959 76.06563 249.98647Q76.56563 249.28334 76.56563 247.17397Q76.56563 245.04897 76.06563 244.36147Q75.58125 243.65834 74.83125 243.65834Q74.1125 243.65834 73.675 244.26772Q73.12813 245.04897 73.12813 247.17397ZM79.05 247.17397Q79.05 245.64272 79.3625 244.72084Q79.675 243.78334 80.28438 243.28334Q80.90938 242.78334 81.84688 242.78334Q82.53438 242.78334 83.05 243.06459Q83.58125 243.34584 83.925 243.87709Q84.26875 244.39272 84.45625 245.14272Q84.64375 245.89272 84.64375 247.17397Q84.64375 248.68959 84.33125 249.61147Q84.03438 250.53334 83.40938 251.04897Q82.8 251.54897 81.84688 251.54897Q80.6125 251.54897 79.89375 250.65834Q79.05 249.59584 79.05 247.17397ZM80.12813 247.17397Q80.12813 249.28334 80.62813 249.98647Q81.12813 250.68959 81.84688 250.68959Q82.58125 250.68959 83.06563 249.98647Q83.56563 249.28334 83.56563 247.17397Q83.56563 245.04897 83.06563 244.36147Q82.58125 243.65834 81.83125 243.65834Q81.1125 243.65834 80.675 244.26772Q80.12813 245.04897 80.12813 247.17397ZM86.05 247.17397Q86.05 245.64272 86.3625 244.72084Q86.675 243.78334 87.28438 243.28334Q87.90938 242.78334 88.84688 242.78334Q89.53438 242.78334 90.05 243.06459Q90.58125 243.34584 90.925 243.87709Q91.26875 244.39272 91.45625 245.14272Q91.64375 245.89272 91.64375 247.17397Q91.64375 248.68959 91.33125 249.61147Q91.03438 250.53334 90.40938 251.04897Q89.8 251.54897 88.84688 251.54897Q87.6125 251.54897 86.89375 250.65834Q86.05 249.59584 86.05 247.17397ZM87.12813 247.17397Q87.12813 249.28334 87.62813 249.98647Q88.12813 250.68959 88.84688 250.68959Q89.58125 250.68959 90.06563 249.98647Q90.56563 249.28334 90.56563 247.17397Q90.56563 245.04897 90.06563 244.36147Q89.58125 243.65834 88.83125 243.65834Q88.1125 243.65834 87.675 244.26772Q87.12813 245.04897 87.12813 247.17397Z" fill-rule="nonzero"/><path fill="#000000" d="M58.05 196.11667L59.159374 196.02292Q59.284374 196.83542 59.721874 197.24167Q60.175 197.64792 60.815624 197.64792Q61.565624 197.64792 62.096874 197.0698Q62.628124 196.49167 62.628124 195.55417Q62.628124 194.64792 62.1125 194.1323Q61.6125 193.60104 60.784374 193.60104Q60.284374 193.60104 59.8625 193.83542Q59.45625 194.0698 59.221874 194.42917L58.2375 194.30417L59.065624 189.89792L63.346874 189.89792L63.346874 190.89792L59.909374 190.89792L59.45625 193.21042Q60.221874 192.66354 61.065624 192.66354Q62.190624 192.66354 62.95625 193.4448Q63.7375 194.22604 63.7375 195.46042Q63.7375 196.61667 63.065624 197.47604Q62.2375 198.5073 60.815624 198.5073Q59.64375 198.5073 58.89375 197.85104Q58.159374 197.1948 58.05 196.11667ZM65.05 194.1323Q65.05 192.60104 65.3625 191.67917Q65.675 190.74167 66.28438 190.24167Q66.90938 189.74167 67.84688 189.74167Q68.53438 189.74167 69.05 190.02292Q69.58125 190.30417 69.925 190.83542Q70.26875 191.35104 70.45625 192.10104Q70.64375 192.85104 70.64375 194.1323Q70.64375 195.64792 70.33125 196.5698Q70.03438 197.49167 69.40938 198.0073Q68.8 198.5073 67.84688 198.5073Q66.6125 198.5073 65.89375 197.61667Q65.05 196.55417 65.05 194.1323ZM66.12813 194.1323Q66.12813 196.24167 66.62813 196.9448Q67.12813 197.64792 67.84688 197.64792Q68.58125 197.64792 69.06563 196.9448Q69.56563 196.24167 69.56563 194.1323Q69.56563 192.0073 69.06563 191.3198Q68.58125 190.61667 67.83125 190.61667Q67.1125 190.61667 66.675 191.22604Q66.12813 192.0073 66.12813 194.1323ZM72.05 194.1323Q72.05 192.60104 72.3625 191.67917Q72.675 190.74167 73.28438 190.24167Q73.90938 189.74167 74.84688 189.74167Q75.53438 189.74167 76.05 190.02292Q76.58125 190.30417 76.925 190.83542Q77.26875 191.35104 77.45625 192.10104Q77.64375 192.85104 77.64375 194.1323Q77.64375 195.64792 77.33125 196.5698Q77.03438 197.49167 76.40938 198.0073Q75.8 198.5073 74.84688 198.5073Q73.6125 198.5073 72.89375 197.61667Q72.05 196.55417 72.05 194.1323ZM73.12813 194.1323Q73.12813 196.24167 73.62813 196.9448Q74.12813 197.64792 74.84688 197.64792Q75.58125 197.64792 76.06563 196.9448Q76.56563 196.24167 76.56563 194.1323Q76.56563 192.0073 76.06563 191.3198Q75.58125 190.61667 74.83125 190.61667Q74.1125 190.61667 73.675 191.22604Q73.12813 192.0073 73.12813 194.1323ZM79.05 194.1323Q79.05 192.60104 79.3625 191.67917Q79.675 190.74167 80.28438 190.24167Q80.90938 189.74167 81.84688 189.74167Q82.53438 189.74167 83.05 190.02292Q83.58125 190.30417 83.925 190.83542Q84.26875 191.35104 84.45625 192.10104Q84.64375 192.85104 84.64375 194.1323Q84.64375 195.64792 84.33125 196.5698Q84.03438 197.49167 83.40938 198.0073Q82.8 198.5073 81.84688 198.5073Q80.6125 198.5073 79.89375 197.61667Q79.05 196.55417 79.05 194.1323ZM80.12813 194.1323Q80.12813 196.24167 80.62813 196.9448Q81.12813 197.64792 81.84688 197.64792Q82.58125 197.64792 83.06563 196.9448Q83.56563 196.24167 83.56563 194.1323Q83.56563 192.0073 83.06563 191.3198Q82.58125 190.61667 81.83125 190.61667Q81.1125 190.61667 80.675 191.22604Q80.12813 192.0073 80.12813 194.1323ZM86.05 194.1323Q86.05 192.60104 86.3625 191.67917Q86.675 190.74167 87.28438 190.24167Q87.90938 189.74167 88.84688 189.74167Q89.53438 189.74167 90.05 190.02292Q90.58125 190.30417 90.925 190.83542Q91.26875 191.35104 91.45625 192.10104Q91.64375 192.85104 91.64375 194.1323Q91.64375 195.64792 91.33125 196.5698Q91.03438 197.49167 90.40938 198.0073Q89.8 198.5073 88.84688 198.5073Q87.6125 198.5073 86.89375 197.61667Q86.05 196.55417 86.05 194.1323ZM87.12813 194.1323Q87.12813 196.24167 87.62813 196.9448Q88.12813 197.64792 88.84688 197.64792Q89.58125 197.64792 90.06563 196.9448Q90.56563 196.24167 90.56563 194.1323Q90.56563 192.0073 90.06563 191.3198Q89.58125 190.61667 88.83125 190.61667Q88.1125 190.61667 87.675 191.22604Q87.12813 192.0073 87.12813 194.1323Z" fill-rule="nonzero"/><path fill="#000000" d="M58.1125 137.85625L58.1125 136.84062L63.675 136.84062L63.675 137.66875Q62.8625 138.54375 62.05 139.99687Q61.253124 141.43437 60.815624 142.96562Q60.4875 144.04375 60.409374 145.325L59.315624 145.325Q59.33125 144.30937 59.70625 142.87187Q60.096874 141.43437 60.8 140.10625Q61.51875 138.77812 62.33125 137.85625L58.1125 137.85625ZM65.05 143.075L66.15938 142.98125Q66.28438 143.79375 66.72188 144.2Q67.175 144.60625 67.81563 144.60625Q68.56563 144.60625 69.09688 144.02812Q69.62813 143.45 69.62813 142.5125Q69.62813 141.60625 69.1125 141.09062Q68.6125 140.55937 67.78438 140.55937Q67.28438 140.55937 66.8625 140.79375Q66.45625 141.02812 66.22188 141.3875L65.2375 141.2625L66.06563 136.85625L70.34688 136.85625L70.34688 137.85625L66.90938 137.85625L66.45625 140.16875Q67.22188 139.62187 68.06563 139.62187Q69.19063 139.62187 69.95625 140.40312Q70.7375 141.18437 70.7375 142.41875Q70.7375 143.575 70.06563 144.43437Q69.2375 145.46562 67.81563 145.46562Q66.64375 145.46562 65.89375 144.80937Q65.15938 144.15312 65.05 143.075ZM72.05 141.09062Q72.05 139.55937 72.3625 138.6375Q72.675 137.7 73.28438 137.2Q73.90938 136.7 74.84688 136.7Q75.53438 136.7 76.05 136.98125Q76.58125 137.2625 76.925 137.79375Q77.26875 138.30937 77.45625 139.05937Q77.64375 139.80937 77.64375 141.09062Q77.64375 142.60625 77.33125 143.52812Q77.03438 144.45 76.40938 144.96562Q75.8 145.46562 74.84688 145.46562Q73.6125 145.46562 72.89375 144.575Q72.05 143.5125 72.05 141.09062ZM73.12813 141.09062Q73.12813 143.2 73.62813 143.90312Q74.12813 144.60625 74.84688 144.60625Q75.58125 144.60625 76.06563 143.90312Q76.56563 143.2 76.56563 141.09062Q76.56563 138.96562 76.06563 138.27812Q75.58125 137.575 74.83125 137.575Q74.1125 137.575 73.675 138.18437Q73.12813 138.96562 73.12813 141.09062ZM79.05 141.09062Q79.05 139.55937 79.3625 138.6375Q79.675 137.7 80.28438 137.2Q80.90938 136.7 81.84688 136.7Q82.53438 136.7 83.05 136.98125Q83.58125 137.2625 83.925 137.79375Q84.26875 138.30937 84.45625 139.05937Q84.64375 139.80937 84.64375 141.09062Q84.64375 142.60625 84.33125 143.52812Q84.03438 144.45 83.40938 144.96562Q82.8 145.46562 81.84688 145.46562Q80.6125 145.46562 79.89375 144.575Q79.05 143.5125 79.05 141.09062ZM80.12813 141.09062Q80.12813 143.2 80.62813 143.90312Q81.12813 144.60625 81.84688 144.60625Q82.58125 144.60625 83.06563 143.90312Q83.56563 143.2 83.56563 141.09062Q83.56563 138.96562 83.06563 138.27812Q82.58125 137.575 81.83125 137.575Q81.1125 137.575 80.675 138.18437Q80.12813 138.96562 80.12813 141.09062ZM86.05 141.09062Q86.05 139.55937 86.3625 138.6375Q86.675 137.7 87.28438 137.2Q87.90938 136.7 88.84688 136.7Q89.53438 136.7 90.05 136.98125Q90.58125 137.2625 90.925 137.79375Q91.26875 138.30937 91.45625 139.05937Q91.64375 139.80937 91.64375 141.09062Q91.64375 142.60625 91.33125 143.52812Q91.03438 144.45 90.40938 144.96562Q89.8 145.46562 88.84688 145.46562Q87.6125 145.46562 86.89375 144.575Q86.05 143.5125 86.05 141.09062ZM87.12813 141.09062Q87.12813 143.2 87.62813 143.90312Q88.12813 144.60625 88.84688 144.60625Q89.58125 144.60625 90.06563 143.90312Q90.56563 143.2 90.56563 141.09062Q90.56563 138.96562 90.06563 138.27812Q89.58125 137.575 88.83125 137.575Q88.1125 137.575 87.675 138.18437Q87.12813 138.96562 87.12813 141.09062Z" fill-rule="nonzero"/><path fill="#000000" d="M55.01875 92.28333L53.971874 92.28333L53.971874 85.56458Q53.58125 85.92396 52.95625 86.29896Q52.346874 86.65833 51.8625 86.83021L51.8625 85.81458Q52.7375 85.39271 53.39375 84.81458Q54.065624 84.22083 54.346874 83.65833L55.01875 83.65833L55.01875 92.28333ZM58.05 88.04896Q58.05 86.51771 58.3625 85.59583Q58.675 84.65833 59.284374 84.15833Q59.909374 83.65833 60.846874 83.65833Q61.534374 83.65833 62.05 83.93958Q62.58125 84.22083 62.925 84.75208Q63.26875 85.26771 63.45625 86.01771Q63.64375 86.76771 63.64375 88.04896Q63.64375 89.56458 63.33125 90.48646Q63.034374 91.40833 62.409374 91.92396Q61.8 92.42396 60.846874 92.42396Q59.6125 92.42396 58.89375 91.53333Q58.05 90.47083 58.05 88.04896ZM59.128124 88.04896Q59.128124 90.15833 59.628124 90.86146Q60.128124 91.56458 60.846874 91.56458Q61.58125 91.56458 62.065624 90.86146Q62.565624 90.15833 62.565624 88.04896Q62.565624 85.92396 62.065624 85.23646Q61.58125 84.53333 60.83125 84.53333Q60.1125 84.53333 59.675 85.14271Q59.128124 85.92396 59.128124 88.04896ZM65.05 88.04896Q65.05 86.51771 65.3625 85.59583Q65.675 84.65833 66.28438 84.15833Q66.90938 83.65833 67.84688 83.65833Q68.53438 83.65833 69.05 83.93958Q69.58125 84.22083 69.925 84.75208Q70.26875 85.26771 70.45625 86.01771Q70.64375 86.76771 70.64375 88.04896Q70.64375 89.56458 70.33125 90.48646Q70.03438 91.40833 69.40938 91.92396Q68.8 92.42396 67.84688 92.42396Q66.6125 92.42396 65.89375 91.53333Q65.05 90.47083 65.05 88.04896ZM66.12813 88.04896Q66.12813 90.15833 66.62813 90.86146Q67.12813 91.56458 67.84688 91.56458Q68.58125 91.56458 69.06563 90.86146Q69.56563 90.15833 69.56563 88.04896Q69.56563 85.92396 69.06563 85.23646Q68.58125 84.53333 67.83125 84.53333Q67.1125 84.53333 66.675 85.14271Q66.12813 85.92396 66.12813 88.04896ZM72.05 88.04896Q72.05 86.51771 72.3625 85.59583Q72.675 84.65833 73.28438 84.15833Q73.90938 83.65833 74.84688 83.65833Q75.53438 83.65833 76.05 83.93958Q76.58125 84.22083 76.925 84.75208Q77.26875 85.26771 77.45625 86.01771Q77.64375 86.76771 77.64375 88.04896Q77.64375 89.56458 77.33125 90.48646Q77.03438 91.40833 76.40938 91.92396Q75.8 92.42396 74.84688 92.42396Q73.6125 92.42396 72.89375 91.53333Q72.05 90.47083 72.05 88.04896ZM73.12813 88.04896Q73.12813 90.15833 73.62813 90.86146Q74.12813 91.56458 74.84688 91.56458Q75.58125 91.56458 76.06563 90.86146Q76.56563 90.15833 76.56563 88.04896Q76.56563 85.92396 76.06563 85.23646Q75.58125 84.53333 74.83125 84.53333Q74.1125 84.53333 73.675 85.14271Q73.12813 85.92396 73.12813 88.04896ZM79.05 88.04896Q79.05 86.51771 79.3625 85.59583Q79.675 84.65833 80.28438 84.15833Q80.90938 83.65833 81.84688 83.65833Q82.53438 83.65833 83.05 83.93958Q83.58125 84.22083 83.925 84.75208Q84.26875 85.26771 84.45625 86.01771Q84.64375 86.76771 84.64375 88.04896Q84.64375 89.56458 84.33125 90.48646Q84.03438 91.40833 83.40938 91.92396Q82.8 92.42396 81.84688 92.42396Q80.6125 92.42396 79.89375 91.53333Q79.05 90.47083 79.05 88.04896ZM80.12813 88.04896Q80.12813 90.15833 80.62813 90.86146Q81.12813 91.56458 81.84688 91.56458Q82.58125 91.56458 83.06563 90.86146Q83.56563 90.15833 83.56563 88.04896Q83.56563 85.92396 83.06563 85.23646Q82.58125 84.53333 81.83125 84.53333Q81.1125 84.53333 80.675 85.14271Q80.12813 85.92396 80.12813 88.04896ZM86.05 88.04896Q86.05 86.51771 86.3625 85.59583Q86.675 84.65833 87.28438 84.15833Q87.90938 83.65833 88.84688 83.65833Q89.53438 83.65833 90.05 83.93958Q90.58125 84.22083 90.925 84.75208Q91.26875 85.26771 91.45625 86.01771Q91.64375 86.76771 91.64375 88.04896Q91.64375 89.56458 91.33125 90.48646Q91.03438 91.40833 90.40938 91.92396Q89.8 92.42396 88.84688 92.42396Q87.6125 92.42396 86.89375 91.53333Q86.05 90.47083 86.05 88.04896ZM87.12813 88.04896Q87.12813 90.15833 87.62813 90.86146Q88.12813 91.56458 88.84688 91.56458Q89.58125 91.56458 90.06563 90.86146Q90.56563 90.15833 90.56563 88.04896Q90.56563 85.92396 90.06563 85.23646Q89.58125 84.53333 88.83125 84.53333Q88.1125 84.53333 87.675 85.14271Q87.12813 85.92396 87.12813 88.04896Z" fill-rule="nonzero"/><path fill="#000000" d="M150.14276 317.45L149.09589 317.45L149.09589 310.73126Q148.70526 311.09064 148.08026 311.46564Q147.47089 311.825 146.98651 311.9969L146.98651 310.98126Q147.86151 310.5594 148.51776 309.98126Q149.18964 309.3875 149.47089 308.825L150.14276 308.825L150.14276 317.45ZM153.17401 313.21564Q153.17401 311.6844 153.48651 310.7625Q153.79901 309.825 154.40839 309.325Q155.03339 308.825 155.97089 308.825Q156.65839 308.825 157.17401 309.10626Q157.70526 309.3875 158.04901 309.91876Q158.39276 310.4344 158.58026 311.1844Q158.76776 311.9344 158.76776 313.21564Q158.76776 314.73126 158.45526 315.65314Q158.15839 316.575 157.53339 317.09064Q156.92401 317.59064 155.97089 317.59064Q154.73651 317.59064 154.01776 316.7Q153.17401 315.6375 153.17401 313.21564ZM154.25214 313.21564Q154.25214 315.325 154.75214 316.02814Q155.25214 316.73126 155.97089 316.73126Q156.70526 316.73126 157.18964 316.02814Q157.68964 315.325 157.68964 313.21564Q157.68964 311.09064 157.18964 310.40314Q156.70526 309.7 155.95526 309.7Q155.23651 309.7 154.79901 310.3094Q154.25214 311.09064 154.25214 313.21564ZM160.17401 313.21564Q160.17401 311.6844 160.48651 310.7625Q160.79901 309.825 161.40839 309.325Q162.03339 308.825 162.97089 308.825Q163.65839 308.825 164.17401 309.10626Q164.70526 309.3875 165.04901 309.91876Q165.39276 310.4344 165.58026 311.1844Q165.76776 311.9344 165.76776 313.21564Q165.76776 314.73126 165.45526 315.65314Q165.15839 316.575 164.53339 317.09064Q163.92401 317.59064 162.97089 317.59064Q161.73651 317.59064 161.01776 316.7Q160.17401 315.6375 160.17401 313.21564ZM161.25214 313.21564Q161.25214 315.325 161.75214 316.02814Q162.25214 316.73126 162.97089 316.73126Q163.70526 316.73126 164.18964 316.02814Q164.68964 315.325 164.68964 313.21564Q164.68964 311.09064 164.18964 310.40314Q163.70526 309.7 162.95526 309.7Q162.23651 309.7 161.79901 310.3094Q161.25214 311.09064 161.25214 313.21564ZM167.17401 313.21564Q167.17401 311.6844 167.48651 310.7625Q167.79901 309.825 168.40839 309.325Q169.03339 308.825 169.97089 308.825Q170.65839 308.825 171.17401 309.10626Q171.70526 309.3875 172.04901 309.91876Q172.39276 310.4344 172.58026 311.1844Q172.76776 311.9344 172.76776 313.21564Q172.76776 314.73126 172.45526 315.65314Q172.15839 316.575 171.53339 317.09064Q170.92401 317.59064 169.97089 317.59064Q168.73651 317.59064 168.01776 316.7Q167.17401 315.6375 167.17401 313.21564ZM168.25214 313.21564Q168.25214 315.325 168.75214 316.02814Q169.25214 316.73126 169.97089 316.73126Q170.70526 316.73126 171.18964 316.02814Q171.68964 315.325 171.68964 313.21564Q171.68964 311.09064 171.18964 310.40314Q170.70526 309.7 169.95526 309.7Q169.23651 309.7 168.79901 310.3094Q168.25214 311.09064 168.25214 313.21564Z" fill-rule="nonzero"/><path fill="#000000" d="M254.76431 316.4344L254.76431 317.45L249.07681 317.45Q249.07681 317.075 249.20181 316.71564Q249.42056 316.1375 249.88931 315.575Q250.37369 315.0125 251.27994 314.27814Q252.68619 313.1219 253.17056 312.45Q253.67056 311.77814 253.67056 311.1844Q253.67056 310.5594 253.21744 310.1375Q252.76431 309.7 252.04556 309.7Q251.27994 309.7 250.82681 310.15314Q250.37369 310.60626 250.35806 311.41876L249.27994 311.3094Q249.38931 310.09064 250.10806 309.46564Q250.84244 308.825 252.07681 308.825Q253.31119 308.825 254.02994 309.5125Q254.74869 310.2 254.74869 311.21564Q254.74869 311.73126 254.52994 312.23126Q254.32681 312.71564 253.82681 313.27814Q253.34244 313.825 252.21744 314.77814Q251.26431 315.575 250.98306 315.8719Q250.71744 316.15314 250.54556 316.4344L254.76431 316.4344ZM256.21744 313.21564Q256.21744 311.6844 256.52994 310.7625Q256.84244 309.825 257.4518 309.325Q258.0768 308.825 259.0143 308.825Q259.7018 308.825 260.21744 309.10626Q260.7487 309.3875 261.09244 309.91876Q261.4362 310.4344 261.6237 311.1844Q261.8112 311.9344 261.8112 313.21564Q261.8112 314.73126 261.4987 315.65314Q261.2018 316.575 260.5768 317.09064Q259.96744 317.59064 259.0143 317.59064Q257.77994 317.59064 257.0612 316.7Q256.21744 315.6375 256.21744 313.21564ZM257.29556 313.21564Q257.29556 315.325 257.79556 316.02814Q258.29556 316.73126 259.0143 316.73126Q259.7487 316.73126 260.23306 316.02814Q260.73306 315.325 260.73306 313.21564Q260.73306 311.09064 260.23306 310.40314Q259.7487 309.7 258.9987 309.7Q258.27994 309.7 257.84244 310.3094Q257.29556 311.09064 257.29556 313.21564ZM263.21744 313.21564Q263.21744 311.6844 263.52994 310.7625Q263.84244 309.825 264.4518 309.325Q265.0768 308.825 266.0143 308.825Q266.7018 308.825 267.21744 309.10626Q267.7487 309.3875 268.09244 309.91876Q268.4362 310.4344 268.6237 311.1844Q268.8112 311.9344 268.8112 313.21564Q268.8112 314.73126 268.4987 315.65314Q268.2018 316.575 267.5768 317.09064Q266.96744 317.59064 266.0143 317.59064Q264.77994 317.59064 264.0612 316.7Q263.21744 315.6375 263.21744 313.21564ZM264.29556 313.21564Q264.29556 315.325 264.79556 316.02814Q265.29556 316.73126 266.0143 316.73126Q266.7487 316.73126 267.23306 316.02814Q267.73306 315.325 267.73306 313.21564Q267.73306 311.09064 267.23306 310.40314Q266.7487 309.7 265.9987 309.7Q265.27994 309.7 264.84244 310.3094Q264.29556 311.09064 264.29556 313.21564ZM270.21744 313.21564Q270.21744 311.6844 270.52994 310.7625Q270.84244 309.825 271.4518 309.325Q272.0768 308.825 273.0143 308.825Q273.7018 308.825 274.21744 309.10626Q274.7487 309.3875 275.09244 309.91876Q275.4362 310.4344 275.6237 311.1844Q275.8112 311.9344 275.8112 313.21564Q275.8112 314.73126 275.4987 315.65314Q275.2018 316.575 274.5768 317.09064Q273.96744 317.59064 273.0143 317.59064Q271.77994 317.59064 271.0612 316.7Q270.21744 315.6375 270.21744 313.21564ZM271.29556 313.21564Q271.29556 315.325 271.79556 316.02814Q272.29556 316.73126 273.0143 316.73126Q273.7487 316.73126 274.23306 316.02814Q274.73306 315.325 274.73306 313.21564Q274.73306 311.09064 274.23306 310.40314Q273.7487 309.7 272.9987 309.7Q272.27994 309.7 271.84244 310.3094Q271.29556 311.09064 271.29556 313.21564Z" fill-rule="nonzero"/><path fill="#000000" d="M352.26086 315.1844L353.32336 315.04376Q353.49524 315.9344 353.93274 316.34064Q354.37024 316.73126 354.99524 316.73126Q355.74524 316.73126 356.26086 316.21564Q356.7765 315.7 356.7765 314.9344Q356.7765 314.21564 356.2921 313.7469Q355.82336 313.2625 355.089 313.2625Q354.7921 313.2625 354.339 313.3875L354.464 312.45Q354.57336 312.46564 354.63586 312.46564Q355.30774 312.46564 355.839 312.1219Q356.38586 311.7625 356.38586 311.02814Q356.38586 310.45 355.99524 310.075Q355.6046 309.6844 354.9796 309.6844Q354.37024 309.6844 353.94836 310.075Q353.5421 310.46564 353.43274 311.23126L352.37024 311.04376Q352.55774 309.9969 353.24524 309.41876Q353.93274 308.825 354.94836 308.825Q355.6515 308.825 356.24524 309.1375Q356.839 309.4344 357.1515 309.95Q357.464 310.46564 357.464 311.0594Q357.464 311.60626 357.1671 312.075Q356.87024 312.52814 356.2921 312.79376Q357.0421 312.96564 357.464 313.52814Q357.88586 314.075 357.88586 314.91876Q357.88586 316.04376 357.05774 316.825Q356.24524 317.60626 354.99524 317.60626Q353.87024 317.60626 353.12024 316.9344Q352.37024 316.2469 352.26086 315.1844ZM359.26086 313.21564Q359.26086 311.6844 359.57336 310.7625Q359.88586 309.825 360.49524 309.325Q361.12024 308.825 362.05774 308.825Q362.74524 308.825 363.26086 309.10626Q363.7921 309.3875 364.13586 309.91876Q364.4796 310.4344 364.6671 311.1844Q364.8546 311.9344 364.8546 313.21564Q364.8546 314.73126 364.5421 315.65314Q364.24524 316.575 363.62024 317.09064Q363.01086 317.59064 362.05774 317.59064Q360.82336 317.59064 360.1046 316.7Q359.26086 315.6375 359.26086 313.21564ZM360.339 313.21564Q360.339 315.325 360.839 316.02814Q361.339 316.73126 362.05774 316.73126Q362.7921 316.73126 363.2765 316.02814Q363.7765 315.325 363.7765 313.21564Q363.7765 311.09064 363.2765 310.40314Q362.7921 309.7 362.0421 309.7Q361.32336 309.7 360.88586 310.3094Q360.339 311.09064 360.339 313.21564ZM366.26086 313.21564Q366.26086 311.6844 366.57336 310.7625Q366.88586 309.825 367.49524 309.325Q368.12024 308.825 369.05774 308.825Q369.74524 308.825 370.26086 309.10626Q370.7921 309.3875 371.13586 309.91876Q371.4796 310.4344 371.6671 311.1844Q371.8546 311.9344 371.8546 313.21564Q371.8546 314.73126 371.5421 315.65314Q371.24524 316.575 370.62024 317.09064Q370.01086 317.59064 369.05774 317.59064Q367.82336 317.59064 367.1046 316.7Q366.26086 315.6375 366.26086 313.21564ZM367.339 313.21564Q367.339 315.325 367.839 316.02814Q368.339 316.73126 369.05774 316.73126Q369.7921 316.73126 370.2765 316.02814Q370.7765 315.325 370.7765 313.21564Q370.7765 311.09064 370.2765 310.40314Q369.7921 309.7 369.0421 309.7Q368.32336 309.7 367.88586 310.3094Q367.339 311.09064 367.339 313.21564ZM373.26086 313.21564Q373.26086 311.6844 373.57336 310.7625Q373.88586 309.825 374.49524 309.325Q375.12024 308.825 376.05774 308.825Q376.74524 308.825 377.26086 309.10626Q377.7921 309.3875 378.13586 309.91876Q378.4796 310.4344 378.6671 311.1844Q378.8546 311.9344 378.8546 313.21564Q378.8546 314.73126 378.5421 315.65314Q378.24524 316.575 377.62024 317.09064Q377.01086 317.59064 376.05774 317.59064Q374.82336 317.59064 374.1046 316.7Q373.26086 315.6375 373.26086 313.21564ZM374.339 313.21564Q374.339 315.325 374.839 316.02814Q375.339 316.73126 376.05774 316.73126Q376.7921 316.73126 377.2765 316.02814Q377.7765 315.325 377.7765 313.21564Q377.7765 311.09064 377.2765 310.40314Q376.7921 309.7 376.0421 309.7Q375.32336 309.7 374.88586 310.3094Q374.339 311.09064 374.339 313.21564Z" fill-rule="nonzero"/><path fill="#000000" d="M458.67926 317.45L458.67926 315.3875L454.9605 315.3875L454.9605 314.41876L458.8824 308.85626L459.74176 308.85626L459.74176 314.41876L460.898 314.41876L460.898 315.3875L459.74176 315.3875L459.74176 317.45L458.67926 317.45ZM458.67926 314.41876L458.67926 310.5594L455.99176 314.41876L458.67926 314.41876ZM462.30426 313.21564Q462.30426 311.6844 462.61676 310.7625Q462.92926 309.825 463.53864 309.325Q464.16364 308.825 465.10114 308.825Q465.78864 308.825 466.30426 309.10626Q466.8355 309.3875 467.17926 309.91876Q467.523 310.4344 467.7105 311.1844Q467.898 311.9344 467.898 313.21564Q467.898 314.73126 467.5855 315.65314Q467.28864 316.575 466.66364 317.09064Q466.05426 317.59064 465.10114 317.59064Q463.86676 317.59064 463.148 316.7Q462.30426 315.6375 462.30426 313.21564ZM463.3824 313.21564Q463.3824 315.325 463.8824 316.02814Q464.3824 316.73126 465.10114 316.73126Q465.8355 316.73126 466.3199 316.02814Q466.8199 315.325 466.8199 313.21564Q466.8199 311.09064 466.3199 310.40314Q465.8355 309.7 465.0855 309.7Q464.36676 309.7 463.92926 310.3094Q463.3824 311.09064 463.3824 313.21564ZM469.30426 313.21564Q469.30426 311.6844 469.61676 310.7625Q469.92926 309.825 470.53864 309.325Q471.16364 308.825 472.10114 308.825Q472.78864 308.825 473.30426 309.10626Q473.8355 309.3875 474.17926 309.91876Q474.523 310.4344 474.7105 311.1844Q474.898 311.9344 474.898 313.21564Q474.898 314.73126 474.5855 315.65314Q474.28864 316.575 473.66364 317.09064Q473.05426 317.59064 472.10114 317.59064Q470.86676 317.59064 470.148 316.7Q469.30426 315.6375 469.30426 313.21564ZM470.3824 313.21564Q470.3824 315.325 470.8824 316.02814Q471.3824 316.73126 472.10114 316.73126Q472.8355 316.73126 473.3199 316.02814Q473.8199 315.325 473.8199 313.21564Q473.8199 311.09064 473.3199 310.40314Q472.8355 309.7 472.0855 309.7Q471.36676 309.7 470.92926 310.3094Q470.3824 311.09064 470.3824 313.21564ZM476.30426 313.21564Q476.30426 311.6844 476.61676 310.7625Q476.92926 309.825 477.53864 309.325Q478.16364 308.825 479.10114 308.825Q479.78864 308.825 480.30426 309.10626Q480.8355 309.3875 481.17926 309.91876Q481.523 310.4344 481.7105 311.1844Q481.898 311.9344 481.898 313.21564Q481.898 314.73126 481.5855 315.65314Q481.28864 316.575 480.66364 317.09064Q480.05426 317.59064 479.10114 317.59064Q477.86676 317.59064 477.148 316.7Q476.30426 315.6375 476.30426 313.21564ZM477.3824 313.21564Q477.3824 315.325 477.8824 316.02814Q478.3824 316.73126 479.10114 316.73126Q479.8355 316.73126 480.3199 316.02814Q480.8199 315.325 480.8199 313.21564Q480.8199 311.09064 480.3199 310.40314Q479.8355 309.7 479.0855 309.7Q478.36676 309.7 477.92926 310.3094Q477.3824 311.09064 477.3824 313.21564Z" fill-rule="nonzero"/><path fill="#000000" d="M558.3477 315.2L559.4571 315.10626Q559.5821 315.91876 560.0196 316.325Q560.4727 316.73126 561.11334 316.73126Q561.86334 316.73126 562.3946 316.15314Q562.92584 315.575 562.92584 314.6375Q562.92584 313.73126 562.4102 313.21564Q561.9102 312.6844 561.0821 312.6844Q560.5821 312.6844 560.1602 312.91876Q559.75397 313.15314 559.5196 313.5125L558.5352 313.3875L559.36334 308.98126L563.6446 308.98126L563.6446 309.98126L560.2071 309.98126L559.75397 312.29376Q560.5196 311.7469 561.36334 311.7469Q562.48834 311.7469 563.25397 312.52814Q564.0352 313.3094 564.0352 314.54376Q564.0352 315.7 563.36334 316.5594Q562.5352 317.59064 561.11334 317.59064Q559.94147 317.59064 559.19147 316.9344Q558.4571 316.27814 558.3477 315.2ZM565.3477 313.21564Q565.3477 311.6844 565.6602 310.7625Q565.9727 309.825 566.5821 309.325Q567.2071 308.825 568.1446 308.825Q568.8321 308.825 569.3477 309.10626Q569.87897 309.3875 570.2227 309.91876Q570.56647 310.4344 570.75397 311.1844Q570.94147 311.9344 570.94147 313.21564Q570.94147 314.73126 570.62897 315.65314Q570.3321 316.575 569.7071 317.09064Q569.0977 317.59064 568.1446 317.59064Q566.9102 317.59064 566.19147 316.7Q565.3477 315.6375 565.3477 313.21564ZM566.42584 313.21564Q566.42584 315.325 566.92584 316.02814Q567.42584 316.73126 568.1446 316.73126Q568.87897 316.73126 569.36334 316.02814Q569.86334 315.325 569.86334 313.21564Q569.86334 311.09064 569.36334 310.40314Q568.87897 309.7 568.12897 309.7Q567.4102 309.7 566.9727 310.3094Q566.42584 311.09064 566.42584 313.21564ZM572.3477 313.21564Q572.3477 311.6844 572.6602 310.7625Q572.9727 309.825 573.5821 309.325Q574.2071 308.825 575.1446 308.825Q575.8321 308.825 576.3477 309.10626Q576.87897 309.3875 577.2227 309.91876Q577.56647 310.4344 577.75397 311.1844Q577.94147 311.9344 577.94147 313.21564Q577.94147 314.73126 577.62897 315.65314Q577.3321 316.575 576.7071 317.09064Q576.0977 317.59064 575.1446 317.59064Q573.9102 317.59064 573.19147 316.7Q572.3477 315.6375 572.3477 313.21564ZM573.42584 313.21564Q573.42584 315.325 573.92584 316.02814Q574.42584 316.73126 575.1446 316.73126Q575.87897 316.73126 576.36334 316.02814Q576.86334 315.325 576.86334 313.21564Q576.86334 311.09064 576.36334 310.40314Q575.87897 309.7 575.12897 309.7Q574.4102 309.7 573.9727 310.3094Q573.42584 311.09064 573.42584 313.21564ZM579.3477 313.21564Q579.3477 311.6844 579.6602 310.7625Q579.9727 309.825 580.5821 309.325Q581.2071 308.825 582.1446 308.825Q582.8321 308.825 583.3477 309.10626Q583.87897 309.3875 584.2227 309.91876Q584.56647 310.4344 584.75397 311.1844Q584.94147 311.9344 584.94147 313.21564Q584.94147 314.73126 584.62897 315.65314Q584.3321 316.575 583.7071 317.09064Q583.0977 317.59064 582.1446 317.59064Q580.9102 317.59064 580.19147 316.7Q579.3477 315.6375 579.3477 313.21564ZM580.42584 313.21564Q580.42584 315.325 580.92584 316.02814Q581.42584 316.73126 582.1446 316.73126Q582.87897 316.73126 583.36334 316.02814Q583.86334 315.325 583.86334 313.21564Q583.86334 311.09064 583.36334 310.40314Q582.87897 309.7 582.12897 309.7Q581.4102 309.7 580.9727 310.3094Q580.42584 311.09064 580.42584 313.21564Z" fill-rule="nonzero"/><path fill="#4285f4" d="M217.5 61.916668C217.5 65.23038 214.8137 67.916664 211.5 67.916664C208.1863 67.916664 205.5 65.23038 205.5 61.916668C205.5 58.60296 208.1863 55.916668 211.5 55.916668C214.8137 55.916668 217.5 58.60296 217.5 61.916668Z" fill-rule="nonzero"/><path fill="#1a1a1a" d="M230.45312 62.541664L230.45312 61.541664L234.07812 61.52604L234.07812 64.71354Q233.25 65.385414 232.35938 65.729164Q231.46875 66.05729 230.53125 66.05729Q229.26562 66.05729 228.21875 65.52604Q227.1875 64.979164 226.65625 63.96354Q226.14062 62.93229 226.14062 61.666664Q226.14062 60.40104 226.65625 59.322914Q227.1875 58.229164 228.17188 57.71354Q229.15625 57.18229 230.4375 57.18229Q231.375 57.18229 232.125 57.479164Q232.875 57.77604 233.29688 58.322914Q233.73438 58.854164 233.95312 59.729164L232.9375 60.010414Q232.73438 59.354164 232.4375 58.979164Q232.15625 58.604164 231.625 58.385414Q231.09375 58.15104 230.45312 58.15104Q229.67188 58.15104 229.09375 58.385414Q228.53125 58.61979 228.17188 59.010414Q227.82812 59.40104 227.64062 59.86979Q227.3125 60.666664 227.3125 61.58854Q227.3125 62.74479 227.70312 63.52604Q228.10938 64.291664 228.85938 64.666664Q229.60938 65.041664 230.46875 65.041664Q231.20312 65.041664 231.90625 64.760414Q232.60938 64.46354 232.96875 64.15104L232.96875 62.541664L230.45312 62.541664ZM235.28125 65.916664L235.28125 59.697914L236.23438 59.697914L236.23438 60.635414Q236.59375 59.979164 236.89062 59.77604Q237.20312 59.55729 237.57812 59.55729Q238.10938 59.55729 238.65625 59.885414L238.29688 60.86979Q237.90625 60.635414 237.53125 60.635414Q237.17188 60.635414 236.89062 60.854164Q236.625 61.05729 236.51562 61.43229Q236.32812 61.99479 236.32812 62.65104L236.32812 65.916664L235.28125 65.916664ZM243.54688 63.916664L244.64062 64.041664Q244.39062 64.99479 243.6875 65.52604Q242.98438 66.05729 241.90625 66.05729Q240.54688 66.05729 239.73438 65.21354Q238.9375 64.36979 238.9375 62.854164Q238.9375 61.291664 239.75 60.43229Q240.5625 59.55729 241.84375 59.55729Q243.09375 59.55729 243.875 60.40104Q244.67188 61.24479 244.67188 62.791664Q244.67188 62.885414 244.67188 63.072914L240.03125 63.072914Q240.09375 64.104164 240.60938 64.65104Q241.125 65.18229 241.90625 65.18229Q242.48438 65.18229 242.89062 64.885414Q243.3125 64.572914 243.54688 63.916664ZM240.09375 62.21354L243.5625 62.21354Q243.5 61.416664 243.17188 61.02604Q242.65625 60.416664 241.85938 60.416664Q241.125 60.416664 240.625 60.90104Q240.14062 61.385414 240.09375 62.21354ZM250.54688 63.916664L251.64062 64.041664Q251.39062 64.99479 250.6875 65.52604Q249.98438 66.05729 248.90625 66.05729Q247.54688 66.05729 246.73438 65.21354Q245.9375 64.36979 245.9375 62.854164Q245.9375 61.291664 246.75 60.43229Q247.5625 59.55729 248.84375 59.55729Q250.09375 59.55729 250.875 60.40104Q251.67188 61.24479 251.67188 62.791664Q251.67188 62.885414 251.67188 63.072914L247.03125 63.072914Q247.09375 64.104164 247.60938 64.65104Q248.125 65.18229 248.90625 65.18229Q249.48438 65.18229 249.89062 64.885414Q250.3125 64.572914 250.54688 63.916664ZM247.09375 62.21354L250.5625 62.21354Q250.5 61.416664 250.17188 61.02604Q249.65625 60.416664 248.85938 60.416664Q248.125 60.416664 247.625 60.90104Q247.14062 61.385414 247.09375 62.21354ZM257.32812 65.916664L257.32812 65.135414Q256.73438 66.05729 255.59375 66.05729Q254.84375 66.05729 254.21875 65.65104Q253.59375 65.229164 253.25 64.49479Q252.90625 63.760414 252.90625 62.80729Q252.90625 61.885414 253.21875 61.11979Q253.53125 60.354164 254.15625 59.96354Q254.78125 59.55729 255.54688 59.55729Q256.10938 59.55729 256.54688 59.791664Q256.98438 60.02604 257.26562 60.40104L257.26562 57.322914L258.3125 57.322914L258.3125 65.916664L257.32812 65.916664ZM254.0 62.80729Q254.0 64.010414 254.5 64.604164Q255.0 65.18229 255.6875 65.18229Q256.375 65.18229 256.85938 64.61979Q257.34375 64.05729 257.34375 62.90104Q257.34375 61.61979 256.84375 61.02604Q256.35938 60.43229 255.64062 60.43229Q254.9375 60.43229 254.46875 61.010414Q254.0 61.572914 254.0 62.80729ZM260.25 68.30729L260.125 67.322914Q260.46875 67.416664 260.73438 67.416664Q261.07812 67.416664 261.28125 67.291664Q261.5 67.18229 261.64062 66.979164Q261.73438 66.80729 261.96875 66.18229Q261.98438 66.104164 262.0625 65.93229L259.6875 59.697914L260.82812 59.697914L262.125 63.291664Q262.375 63.979164 262.57812 64.74479Q262.76562 64.010414 263.01562 63.322914L264.34375 59.697914L265.39062 59.697914L263.03125 66.02604Q262.64062 67.041664 262.4375 67.43229Q262.15625 67.96354 261.78125 68.197914Q261.42188 68.447914 260.92188 68.447914Q260.625 68.447914 260.25 68.30729Z" fill-rule="nonzero"/><path fill="#ea4335" d="M292.5 61.916668C292.5 65.23038 289.81372 67.916664 286.5 67.916664C283.18628 67.916664 280.5 65.23038 280.5 61.916668C280.5 58.60296 283.18628 55.916668 286.5 55.916668C289.81372 55.916668 292.5 58.60296 292.5 61.916668Z" fill-rule="nonzero"/><path fill="#1a1a1a" d="M303.875 65.916664L300.54688 57.322914L301.78125 57.322914L304.01562 63.572914Q304.28125 64.322914 304.46875 64.979164Q304.67188 64.27604 304.9375 63.572914L307.25 57.322914L308.40625 57.322914L305.04688 65.916664L303.875 65.916664ZM308.42188 65.916664L308.42188 57.322914L309.57812 57.322914L314.09375 64.072914L314.09375 57.322914L315.1875 57.322914L315.1875 65.916664L314.01562 65.916664L309.5 59.166664L309.5 65.916664L308.42188 65.916664ZM317.04688 63.15104L318.10938 63.05729Q318.1875 63.71354 318.46875 64.11979Q318.75 64.52604 319.32812 64.791664Q319.92188 65.041664 320.65625 65.041664Q321.29688 65.041664 321.79688 64.854164Q322.29688 64.65104 322.53125 64.322914Q322.78125 63.979164 322.78125 63.58854Q322.78125 63.18229 322.54688 62.885414Q322.3125 62.572914 321.78125 62.36979Q321.42188 62.229164 320.23438 61.947914Q319.0625 61.666664 318.59375 61.416664Q317.96875 61.08854 317.67188 60.61979Q317.375 60.135414 317.375 59.541664Q317.375 58.90104 317.73438 58.33854Q318.10938 57.760414 318.8125 57.479164Q319.53125 57.18229 320.39062 57.18229Q321.34375 57.18229 322.07812 57.49479Q322.8125 57.791664 323.20312 58.40104Q323.59375 58.99479 323.625 59.74479L322.53125 59.822914Q322.4375 59.010414 321.92188 58.604164Q321.42188 58.18229 320.4375 58.18229Q319.40625 58.18229 318.9375 58.55729Q318.46875 58.93229 318.46875 59.46354Q318.46875 59.93229 318.79688 60.229164Q319.125 60.52604 320.5 60.83854Q321.89062 61.15104 322.40625 61.385414Q323.15625 61.74479 323.51562 62.27604Q323.875 62.791664 323.875 63.49479Q323.875 64.18229 323.48438 64.791664Q323.09375 65.385414 322.35938 65.729164Q321.625 66.05729 320.70312 66.05729Q319.53125 66.05729 318.73438 65.729164Q317.95312 65.385414 317.5 64.697914Q317.0625 64.010414 317.04688 63.15104Z" fill-rule="nonzero"/><path fill="#fbbc04" d="M352.5 61.916668C352.5 65.23038 349.81372 67.916664 346.5 67.916664C343.18628 67.916664 340.5 65.23038 340.5 61.916668C340.5 58.60296 343.18628 55.916668 346.5 55.916668C349.81372 55.916668 352.5 58.60296 352.5 61.916668Z" fill-rule="nonzero"/><path fill="#1a1a1a" d="M361.42188 65.916664L361.42188 57.322914L364.67188 57.322914Q365.51562 57.322914 365.96875 57.40104Q366.60938 57.510414 367.03125 57.80729Q367.46875 58.104164 367.71875 58.635414Q367.98438 59.166664 367.98438 59.80729Q367.98438 60.90104 367.28125 61.666664Q366.59375 62.416664 364.76562 62.416664L362.5625 62.416664L362.5625 65.916664L361.42188 65.916664ZM362.5625 61.416664L364.78125 61.416664Q365.89062 61.416664 366.34375 61.010414Q366.8125 60.58854 366.8125 59.83854Q366.8125 59.30729 366.53125 58.93229Q366.26562 58.541664 365.82812 58.416664Q365.53125 58.33854 364.76562 58.33854L362.5625 58.33854L362.5625 61.416664ZM369.04688 63.15104L370.10938 63.05729Q370.1875 63.71354 370.46875 64.11979Q370.75 64.52604 371.32812 64.791664Q371.92188 65.041664 372.65625 65.041664Q373.29688 65.041664 373.79688 64.854164Q374.29688 64.65104 374.53125 64.322914Q374.78125 63.979164 374.78125 63.58854Q374.78125 63.18229 374.54688 62.885414Q374.3125 62.572914 373.78125 62.36979Q373.42188 62.229164 372.23438 61.947914Q371.0625 61.666664 370.59375 61.416664Q369.96875 61.08854 369.67188 60.61979Q369.375 60.135414 369.375 59.541664Q369.375 58.90104 369.73438 58.33854Q370.10938 57.760414 370.8125 57.479164Q371.53125 57.18229 372.39062 57.18229Q373.34375 57.18229 374.07812 57.49479Q374.8125 57.791664 375.20312 58.40104Q375.59375 58.99479 375.625 59.74479L374.53125 59.822914Q374.4375 59.010414 373.92188 58.604164Q373.42188 58.18229 372.4375 58.18229Q371.40625 58.18229 370.9375 58.55729Q370.46875 58.93229 370.46875 59.46354Q370.46875 59.93229 370.79688 60.229164Q371.125 60.52604 372.5 60.83854Q373.89062 61.15104 374.40625 61.385414Q375.15625 61.74479 375.51562 62.27604Q375.875 62.791664 375.875 63.49479Q375.875 64.18229 375.48438 64.791664Q375.09375 65.385414 374.35938 65.729164Q373.625 66.05729 372.70312 66.05729Q371.53125 66.05729 370.73438 65.729164Q369.95312 65.385414 369.5 64.697914Q369.0625 64.010414 369.04688 63.15104ZM377.07812 61.729164Q377.07812 59.58854 378.21875 58.385414Q379.375 57.166664 381.1875 57.166664Q382.39062 57.166664 383.34375 57.74479Q384.29688 58.30729 384.79688 59.322914Q385.29688 60.33854 385.29688 61.635414Q385.29688 62.93229 384.76562 63.96354Q384.23438 64.99479 383.26562 65.52604Q382.3125 66.05729 381.1875 66.05729Q379.96875 66.05729 379.01562 65.479164Q378.0625 64.885414 377.5625 63.885414Q377.07812 62.86979 377.07812 61.729164ZM378.25 61.74479Q378.25 63.30729 379.07812 64.197914Q379.92188 65.08854 381.1875 65.08854Q382.46875 65.08854 383.29688 64.197914Q384.125 63.291664 384.125 61.61979Q384.125 60.572914 383.76562 59.791664Q383.42188 59.010414 382.73438 58.58854Q382.04688 58.15104 381.20312 58.15104Q380.0 58.15104 379.125 58.979164Q378.25 59.80729 378.25 61.74479ZM386.42188 65.916664L386.42188 57.322914L389.39062 57.322914Q390.39062 57.322914 390.92188 57.447914Q391.65625 57.61979 392.17188 58.05729Q392.85938 58.635414 393.1875 59.541664Q393.53125 60.43229 393.53125 61.572914Q393.53125 62.55729 393.29688 63.30729Q393.07812 64.05729 392.71875 64.55729Q392.35938 65.05729 391.92188 65.33854Q391.5 65.61979 390.90625 65.77604Q390.3125 65.916664 389.53125 65.916664L386.42188 65.916664ZM387.5625 64.90104L389.39062 64.90104Q390.25 64.90104 390.73438 64.74479Q391.21875 64.58854 391.5 64.291664Q391.90625 63.90104 392.125 63.21354Q392.35938 62.52604 392.35938 61.55729Q392.35938 60.21354 391.90625 59.49479Q391.46875 58.760414 390.84375 58.510414Q390.375 58.33854 389.375 58.33854L387.5625 58.33854L387.5625 64.90104Z" fill-rule="nonzero"/><path fill="#757575" d="M20.01875 37.55L20.01875 23.2375L25.39375 23.2375Q27.034374 23.2375 28.01875 23.675Q29.003124 24.096874 29.565624 25.003124Q30.128124 25.909374 30.128124 26.89375Q30.128124 27.815624 29.628124 28.628124Q29.14375 29.440624 28.128124 29.925Q29.425 30.315624 30.128124 31.2375Q30.83125 32.14375 30.83125 33.39375Q30.83125 34.409374 30.39375 35.26875Q29.971874 36.128124 29.346874 36.596874Q28.721874 37.065624 27.784374 37.315624Q26.846874 37.55 25.471874 37.55L20.01875 37.55ZM21.909374 29.253124L25.003124 29.253124Q26.26875 29.253124 26.815624 29.08125Q27.534374 28.8625 27.89375 28.378124Q28.26875 27.878124 28.26875 27.1125Q28.26875 26.409374 27.925 25.8625Q27.58125 25.315624 26.940624 25.128124Q26.315624 24.925 24.76875 24.925L21.909374 24.925L21.909374 29.253124ZM21.909374 35.8625L25.471874 35.8625Q26.39375 35.8625 26.76875 35.784374Q27.425 35.675 27.8625 35.409374Q28.3 35.128124 28.58125 34.6125Q28.8625 34.08125 28.8625 33.39375Q28.8625 32.596874 28.45625 32.003124Q28.05 31.409374 27.315624 31.175Q26.58125 30.940624 25.221874 30.940624L21.909374 30.940624L21.909374 35.8625ZM39.64375 36.26875Q38.659374 37.096874 37.753124 37.440624Q36.846874 37.784374 35.815624 37.784374Q34.1125 37.784374 33.190624 36.95625Q32.26875 36.1125 32.26875 34.815624Q32.26875 34.05 32.6125 33.425Q32.971874 32.8 33.534374 32.425Q34.096874 32.034374 34.8 31.83125Q35.315624 31.70625 36.3625 31.565624Q38.4875 31.315624 39.4875 30.971874Q39.503124 30.6125 39.503124 30.503124Q39.503124 29.440624 39.003124 28.9875Q38.33125 28.39375 37.003124 28.39375Q35.753124 28.39375 35.159374 28.83125Q34.58125 29.26875 34.3 30.378124L32.58125 30.14375Q32.815624 29.034374 33.346874 28.3625Q33.878124 27.675 34.89375 27.315624Q35.909374 26.940624 37.253124 26.940624Q38.58125 26.940624 39.409374 27.253124Q40.2375 27.565624 40.628124 28.05Q41.01875 28.51875 41.175 29.2375Q41.26875 29.690624 41.26875 30.8625L41.26875 33.20625Q41.26875 35.659374 41.378124 36.315624Q41.4875 36.95625 41.83125 37.55L39.9875 37.55Q39.721874 37.003124 39.64375 36.26875ZM39.4875 32.346874Q38.534374 32.7375 36.6125 33.003124Q35.534374 33.159374 35.08125 33.3625Q34.64375 33.55 34.39375 33.925Q34.14375 34.3 34.14375 34.76875Q34.14375 35.471874 34.675 35.940624Q35.20625 36.409374 36.2375 36.409374Q37.253124 36.409374 38.034374 35.971874Q38.83125 35.51875 39.20625 34.753124Q39.4875 34.14375 39.4875 32.9875L39.4875 32.346874ZM43.846874 37.55L43.846874 27.175L45.425 27.175L45.425 28.753124Q46.034374 27.64375 46.55 27.3Q47.065624 26.940624 47.675 26.940624Q48.565624 26.940624 49.4875 27.503124L48.878124 29.14375Q48.2375 28.753124 47.596874 28.753124Q47.01875 28.753124 46.55 29.1125Q46.096874 29.45625 45.89375 30.065624Q45.6125 31.003124 45.6125 32.1125L45.6125 37.55L43.846874 37.55ZM57.64375 36.26875Q56.659374 37.096874 55.753124 37.440624Q54.846874 37.784374 53.815624 37.784374Q52.1125 37.784374 51.190624 36.95625Q50.26875 36.1125 50.26875 34.815624Q50.26875 34.05 50.6125 33.425Q50.971874 32.8 51.534374 32.425Q52.096874 32.034374 52.8 31.83125Q53.315624 31.70625 54.3625 31.565624Q56.4875 31.315624 57.4875 30.971874Q57.503124 30.6125 57.503124 30.503124Q57.503124 29.440624 57.003124 28.9875Q56.33125 28.39375 55.003124 28.39375Q53.753124 28.39375 53.159374 28.83125Q52.58125 29.26875 52.3 30.378124L50.58125 30.14375Q50.815624 29.034374 51.346874 28.3625Q51.878124 27.675 52.89375 27.315624Q53.909374 26.940624 55.253124 26.940624Q56.58125 26.940624 57.409374 27.253124Q58.2375 27.565624 58.628124 28.05Q59.01875 28.51875 59.175 29.2375Q59.26875 29.690624 59.26875 30.8625L59.26875 33.20625Q59.26875 35.659374 59.378124 36.315624Q59.4875 36.95625 59.83125 37.55L57.9875 37.55Q57.721874 37.003124 57.64375 36.26875ZM57.4875 32.346874Q56.534374 32.7375 54.6125 33.003124Q53.534374 33.159374 53.08125 33.3625Q52.64375 33.55 52.39375 33.925Q52.14375 34.3 52.14375 34.76875Q52.14375 35.471874 52.675 35.940624Q53.20625 36.409374 54.2375 36.409374Q55.253124 36.409374 56.034374 35.971874Q56.83125 35.51875 57.20625 34.753124Q57.4875 34.14375 57.4875 32.9875L57.4875 32.346874ZM63.4875 37.55L61.8625 37.55L61.8625 23.2375L63.6125 23.2375L63.6125 28.346874Q64.7375 26.940624 66.45625 26.940624Q67.40938 26.940624 68.26875 27.33125Q69.12813 27.721874 69.675 28.425Q70.22188 29.1125 70.53438 30.096874Q70.84688 31.08125 70.84688 32.20625Q70.84688 34.878124 69.53438 36.33125Q68.22188 37.784374 66.37813 37.784374Q64.53438 37.784374 63.4875 36.253124L63.4875 37.55ZM63.471874 32.284374Q63.471874 34.14375 63.971874 34.9875Q64.81563 36.33125 66.22188 36.33125Q67.37813 36.33125 68.20625 35.33125Q69.05 34.33125 69.05 32.346874Q69.05 30.315624 68.2375 29.3625Q67.44063 28.39375 66.3 28.39375Q65.14375 28.39375 64.3 29.39375Q63.471874 30.39375 63.471874 32.284374ZM79.64375 36.26875Q78.65938 37.096874 77.75313 37.440624Q76.84688 37.784374 75.81563 37.784374Q74.1125 37.784374 73.19063 36.95625Q72.26875 36.1125 72.26875 34.815624Q72.26875 34.05 72.6125 33.425Q72.97188 32.8 73.53438 32.425Q74.09688 32.034374 74.8 31.83125Q75.31563 31.70625 76.3625 31.565624Q78.4875 31.315624 79.4875 30.971874Q79.50313 30.6125 79.50313 30.503124Q79.50313 29.440624 79.00313 28.9875Q78.33125 28.39375 77.00313 28.39375Q75.75313 28.39375 75.15938 28.83125Q74.58125 29.26875 74.3 30.378124L72.58125 30.14375Q72.81563 29.034374 73.34688 28.3625Q73.87813 27.675 74.89375 27.315624Q75.90938 26.940624 77.25313 26.940624Q78.58125 26.940624 79.40938 27.253124Q80.2375 27.565624 80.62813 28.05Q81.01875 28.51875 81.175 29.2375Q81.26875 29.690624 81.26875 30.8625L81.26875 33.20625Q81.26875 35.659374 81.37813 36.315624Q81.4875 36.95625 81.83125 37.55L79.9875 37.55Q79.72188 37.003124 79.64375 36.26875ZM79.4875 32.346874Q78.53438 32.7375 76.6125 33.003124Q75.53438 33.159374 75.08125 33.3625Q74.64375 33.55 74.39375 33.925Q74.14375 34.3 74.14375 34.76875Q74.14375 35.471874 74.675 35.940624Q75.20625 36.409374 76.2375 36.409374Q77.25313 36.409374 78.03438 35.971874Q78.83125 35.51875 79.20625 34.753124Q79.4875 34.14375 79.4875 32.9875L79.4875 32.346874ZM83.15938 34.45625L84.90938 34.175Q85.05 35.221874 85.72188 35.784374Q86.39375 36.33125 87.59688 36.33125Q88.8 36.33125 89.37813 35.846874Q89.97188 35.346874 89.97188 34.690624Q89.97188 34.096874 89.45625 33.753124Q89.09688 33.51875 87.65938 33.159374Q85.72188 32.659374 84.97188 32.315624Q84.2375 31.95625 83.84688 31.33125Q83.45625 30.690624 83.45625 29.925Q83.45625 29.2375 83.76875 28.64375Q84.09688 28.05 84.64375 27.659374Q85.05 27.3625 85.75313 27.159374Q86.47188 26.940624 87.28438 26.940624Q88.50313 26.940624 89.425 27.3Q90.34688 27.64375 90.78438 28.253124Q91.22188 28.846874 91.39375 29.846874L89.675 30.08125Q89.55 29.284374 88.9875 28.846874Q88.425 28.39375 87.40938 28.39375Q86.19063 28.39375 85.675 28.8Q85.15938 29.190624 85.15938 29.721874Q85.15938 30.065624 85.37813 30.346874Q85.58125 30.628124 86.05 30.815624Q86.31563 30.909374 87.59688 31.253124Q89.47188 31.753124 90.20625 32.08125Q90.94063 32.39375 91.3625 33.003124Q91.78438 33.596874 91.78438 34.503124Q91.78438 35.378124 91.26875 36.159374Q90.75313 36.940624 89.78438 37.3625Q88.81563 37.784374 87.59688 37.784374Q85.58125 37.784374 84.51875 36.940624Q83.45625 36.096874 83.15938 34.45625ZM93.87813 25.253124L93.87813 23.2375L95.64375 23.2375L95.64375 25.253124L93.87813 25.253124ZM93.87813 37.55L93.87813 27.175L95.64375 27.175L95.64375 37.55L93.87813 37.55ZM96.50313 33.08125L96.50313 31.659374L107.62813 31.659374L107.62813 33.08125L96.50313 33.08125ZM107.51875 37.55L113.01875 23.2375L115.06563 23.2375L120.925 37.55L118.76875 37.55L117.09688 33.20625L111.1125 33.20625L109.53438 37.55L107.51875 37.55ZM111.65938 31.675L116.50313 31.675L115.01875 27.70625Q114.33125 25.89375 114.00313 24.7375Q113.72188 26.1125 113.22188 27.471874L111.65938 31.675ZM121.83125 37.55L121.83125 23.2375L123.58125 23.2375L123.58125 37.55L121.83125 37.55ZM127.4875 37.55L125.8625 37.55L125.8625 23.2375L127.6125 23.2375L127.6125 28.346874Q128.7375 26.940624 130.45625 26.940624Q131.40938 26.940624 132.26875 27.33125Q133.12813 27.721874 133.675 28.425Q134.22188 29.1125 134.53438 30.096874Q134.84688 31.08125 134.84688 32.20625Q134.84688 34.878124 133.53438 36.33125Q132.22188 37.784374 130.37813 37.784374Q128.53438 37.784374 127.4875 36.253124L127.4875 37.55ZM127.47188 32.284374Q127.47188 34.14375 127.97188 34.9875Q128.81563 36.33125 130.22188 36.33125Q131.37813 36.33125 132.20625 35.33125Q133.05 34.33125 133.05 32.346874Q133.05 30.315624 132.2375 29.3625Q131.44063 28.39375 130.3 28.39375Q129.14375 28.39375 128.3 29.39375Q127.47188 30.39375 127.47188 32.284374ZM143.97188 34.20625L145.78438 34.440624Q145.3625 36.01875 144.19063 36.909374Q143.03438 37.784374 141.22188 37.784374Q138.95625 37.784374 137.6125 36.39375Q136.28438 34.9875 136.28438 32.45625Q136.28438 29.83125 137.62813 28.39375Q138.97188 26.940624 141.12813 26.940624Q143.20625 26.940624 144.51875 28.3625Q145.84688 29.76875 145.84688 32.346874Q145.84688 32.503124 145.83125 32.815624L138.09688 32.815624Q138.19063 34.51875 139.06563 35.425Q139.94063 36.33125 141.2375 36.33125Q142.20625 36.33125 142.87813 35.83125Q143.56563 35.315624 143.97188 34.20625ZM138.19063 31.3625L143.9875 31.3625Q143.87813 30.065624 143.33125 29.409374Q142.4875 28.39375 141.14375 28.39375Q139.94063 28.39375 139.1125 29.20625Q138.28438 30.003124 138.19063 31.3625ZM147.84688 37.55L147.84688 27.175L149.425 27.175L149.425 28.753124Q150.03438 27.64375 150.55 27.3Q151.06563 26.940624 151.675 26.940624Q152.56563 26.940624 153.4875 27.503124L152.87813 29.14375Q152.2375 28.753124 151.59688 28.753124Q151.01875 28.753124 150.55 29.1125Q150.09688 29.45625 149.89375 30.065624Q149.6125 31.003124 149.6125 32.1125L149.6125 37.55L147.84688 37.55ZM158.70625 35.971874L158.95625 37.534374Q158.22188 37.690624 157.62813 37.690624Q156.675 37.690624 156.14375 37.39375Q155.62813 37.08125 155.40938 36.596874Q155.19063 36.096874 155.19063 34.51875L155.19063 28.55L153.90938 28.55L153.90938 27.175L155.19063 27.175L155.19063 24.6125L156.94063 23.55L156.94063 27.175L158.70625 27.175L158.70625 28.55L156.94063 28.55L156.94063 34.6125Q156.94063 35.3625 157.03438 35.58125Q157.12813 35.784374 157.33125 35.925Q157.55 36.05 157.94063 36.05Q158.22188 36.05 158.70625 35.971874Z" fill-rule="nonzero"/></svg>