<svg version="1.1" viewBox="0.0 0.0 600.0 371.0" fill="none" stroke="none" stroke-linecap="square" stroke-miterlimit="10" width="600" height="371" xmlns:xlink="http://www.w3.org/1999/xlink" xmlns="http://www.w3.org/2000/svg"><path fill="#ffffff" d="M0 0L600.0 0L600.0 371.0L0 371.0L0 0Z" fill-rule="nonzero"/><path stroke="#cccccc" stroke-width="1.0" stroke-linecap="butt" d="M160.5 88.5L160.5 300.5" fill-rule="nonzero"/><path stroke="#cccccc" stroke-width="1.0" stroke-linecap="butt" d="M271.5 88.5L271.5 300.5" fill-rule="nonzero"/><path stroke="#cccccc" stroke-width="1.0" stroke-linecap="butt" d="M383.5 88.5L383.5 300.5" fill-rule="nonzero"/><path stroke="#cccccc" stroke-width="1.0" stroke-linecap="butt" d="M495.5 88.5L495.5 300.5" fill-rule="nonzero"/><path stroke="#333333" stroke-width="1.0" stroke-linecap="butt" d="M91.5 300.5L581.5 300.5" fill-rule="nonzero"/><path stroke="#cccccc" stroke-width="1.0" stroke-linecap="butt" d="M91.5 247.5L581.5 247.5" fill-rule="nonzero"/><path stroke="#cccccc" stroke-width="1.0" stroke-linecap="butt" d="M91.5 194.5L581.5 194.5" fill-rule="nonzero"/><path stroke="#cccccc" stroke-width="1.0" stroke-linecap="butt" d="M91.5 141.5L581.5 141.5" fill-rule="nonzero"/><path stroke="#cccccc" stroke-width="1.0" stroke-linecap="butt" d="M91.5 88.5L581.5 88.5" fill-rule="nonzero"/><clipPath id="id_0"><path d="M91.55 88.28333L581.45 88.28333L581.45 300.45L91.55 300.45L91.55 88.28333Z" clip-rule="nonzero"/></clipPath><path stroke="#a2c3fa" stroke-width="1.0" stroke-linecap="butt" clip-path="url(#id_0)" d="M104.50704 300.36923L104.50704 300.36923" fill-rule="nonzero"/><path stroke="#a2c3fa" stroke-width="1.0" stroke-linecap="butt" clip-path="url(#id_0)" d="M98.50704 300.36923L110.50704 300.36923" fill-rule="nonzero"/><path stroke="#a2c3fa" stroke-width="1.0" stroke-linecap="butt" clip-path="url(#id_0)" d="M98.50704 300.36923L110.50704 300.36923" fill-rule="nonzero"/><path stroke="#a2c3fa" stroke-width="1.0" stroke-linecap="butt" clip-path="url(#id_0)" d="M160.32825 299.82068L160.32825 299.82068" fill-rule="nonzero"/><path stroke="#a2c3fa" stroke-width="1.0" stroke-linecap="butt" clip-path="url(#id_0)" d="M154.32825 299.82068L166.32825 299.82068" fill-rule="nonzero"/><path stroke="#a2c3fa" stroke-width="1.0" stroke-linecap="butt" clip-path="url(#id_0)" d="M154.32825 299.82068L166.32825 299.82068" fill-rule="nonzero"/><path stroke="#a2c3fa" stroke-width="1.0" stroke-linecap="butt" clip-path="url(#id_0)" d="M271.97067 293.08752L271.97067 293.08752" fill-rule="nonzero"/><path stroke="#a2c3fa" stroke-width="1.0" stroke-linecap="butt" clip-path="url(#id_0)" d="M265.97067 293.08752L277.97067 293.08752" fill-rule="nonzero"/><path stroke="#a2c3fa" stroke-width="1.0" stroke-linecap="butt" clip-path="url(#id_0)" d="M265.97067 293.08752L277.97067 293.08752" fill-rule="nonzero"/><path stroke="#a2c3fa" stroke-width="1.0" stroke-linecap="butt" clip-path="url(#id_0)" d="M495.25552 208.03268L495.25552 208.03268" fill-rule="nonzero"/><path stroke="#a2c3fa" stroke-width="1.0" stroke-linecap="butt" clip-path="url(#id_0)" d="M489.25552 208.03268L501.25552 208.03268" fill-rule="nonzero"/><path stroke="#a2c3fa" stroke-width="1.0" stroke-linecap="butt" clip-path="url(#id_0)" d="M489.25552 208.03268L501.25552 208.03268" fill-rule="nonzero"/><path stroke="#f49c94" stroke-width="1.0" stroke-linecap="butt" clip-path="url(#id_0)" d="M104.50704 297.75165L104.50704 297.75165" fill-rule="nonzero"/><path stroke="#f49c94" stroke-width="1.0" stroke-linecap="butt" clip-path="url(#id_0)" d="M98.50704 297.75165L110.50704 297.75165" fill-rule="nonzero"/><path stroke="#f49c94" stroke-width="1.0" stroke-linecap="butt" clip-path="url(#id_0)" d="M98.50704 297.75165L110.50704 297.75165" fill-rule="nonzero"/><path stroke="#f49c94" stroke-width="1.0" stroke-linecap="butt" clip-path="url(#id_0)" d="M160.32825 234.53403L160.32825 234.53403" fill-rule="nonzero"/><path stroke="#f49c94" stroke-width="1.0" stroke-linecap="butt" clip-path="url(#id_0)" d="M154.32825 234.53403L166.32825 234.53403" fill-rule="nonzero"/><path stroke="#f49c94" stroke-width="1.0" stroke-linecap="butt" clip-path="url(#id_0)" d="M154.32825 234.53403L166.32825 234.53403" fill-rule="nonzero"/><path stroke="#f49c94" stroke-width="1.0" stroke-linecap="butt" clip-path="url(#id_0)" d="M271.97067 282.8991L271.97067 282.8991" fill-rule="nonzero"/><path stroke="#f49c94" stroke-width="1.0" stroke-linecap="butt" clip-path="url(#id_0)" d="M265.97067 282.8991L277.97067 282.8991" fill-rule="nonzero"/><path stroke="#f49c94" stroke-width="1.0" stroke-linecap="butt" clip-path="url(#id_0)" d="M265.97067 282.8991L277.97067 282.8991" fill-rule="nonzero"/><path stroke="#f49c94" stroke-width="1.0" stroke-linecap="butt" clip-path="url(#id_0)" d="M495.25552 117.729935L495.25552 117.729935" fill-rule="nonzero"/><path stroke="#f49c94" stroke-width="1.0" stroke-linecap="butt" clip-path="url(#id_0)" d="M489.25552 117.729935L501.25552 117.729935" fill-rule="nonzero"/><path stroke="#f49c94" stroke-width="1.0" stroke-linecap="butt" clip-path="url(#id_0)" d="M489.25552 117.729935L501.25552 117.729935" fill-rule="nonzero"/><path stroke="#a27903" stroke-width="1.0" stroke-linecap="butt" clip-path="url(#id_0)" d="M104.50704 299.35754L104.50704 299.35754" fill-rule="nonzero"/><path stroke="#a27903" stroke-width="1.0" stroke-linecap="butt" clip-path="url(#id_0)" d="M98.50704 299.35754L110.50704 299.35754" fill-rule="nonzero"/><path stroke="#a27903" stroke-width="1.0" stroke-linecap="butt" clip-path="url(#id_0)" d="M98.50704 299.35754L110.50704 299.35754" fill-rule="nonzero"/><path stroke="#a27903" stroke-width="1.0" stroke-linecap="butt" clip-path="url(#id_0)" d="M160.32825 296.50293L160.32825 296.50293" fill-rule="nonzero"/><path stroke="#a27903" stroke-width="1.0" stroke-linecap="butt" clip-path="url(#id_0)" d="M154.32825 296.50293L166.32825 296.50293" fill-rule="nonzero"/><path stroke="#a27903" stroke-width="1.0" stroke-linecap="butt" clip-path="url(#id_0)" d="M154.32825 296.50293L166.32825 296.50293" fill-rule="nonzero"/><path stroke="#a27903" stroke-width="1.0" stroke-linecap="butt" clip-path="url(#id_0)" d="M271.97067 290.10635L271.97067 290.10635" fill-rule="nonzero"/><path stroke="#a27903" stroke-width="1.0" stroke-linecap="butt" clip-path="url(#id_0)" d="M265.97067 290.10635L277.97067 290.10635" fill-rule="nonzero"/><path stroke="#a27903" stroke-width="1.0" stroke-linecap="butt" clip-path="url(#id_0)" d="M265.97067 290.10635L277.97067 290.10635" fill-rule="nonzero"/><path stroke="#a27903" stroke-width="1.0" stroke-linecap="butt" clip-path="url(#id_0)" d="M495.25552 274.48004L495.25552 274.48004" fill-rule="nonzero"/><path stroke="#a27903" stroke-width="1.0" stroke-linecap="butt" clip-path="url(#id_0)" d="M489.25552 274.48004L501.25552 274.48004" fill-rule="nonzero"/><path stroke="#a27903" stroke-width="1.0" stroke-linecap="butt" clip-path="url(#id_0)" d="M489.25552 274.48004L501.25552 274.48004" fill-rule="nonzero"/><path stroke="#4285f4" stroke-width="4.0" stroke-linecap="butt" stroke-dasharray="26.0,12.0" clip-path="url(#id_0)" d="M104.50704 300.36923C104.50704 300.36923 141.72118 300.4732 160.32825 299.82068C178.93532 299.16815 234.75653 301.2976 271.97067 293.08752C309.1848 284.8774 495.25552 208.03268 495.25552 208.03268" fill-rule="nonzero"/><path stroke="#ea4335" stroke-width="4.0" stroke-linecap="butt" stroke-dasharray="4.0,5.0" clip-path="url(#id_0)" d="M104.50704 297.75165C104.50704 297.75165 141.72118 241.03989 160.32825 234.53403C178.93532 228.02818 234.75653 288.60236 271.97067 282.8991C309.1848 277.19583 495.25552 117.729935 495.25552 117.729935" fill-rule="nonzero"/><path stroke="#fbbc04" stroke-width="4.0" stroke-linecap="butt" clip-path="url(#id_0)" d="M104.50704 299.35754C104.50704 299.35754 141.72118 297.51175 160.32825 296.50293C178.93532 295.4941 234.75653 292.47464 271.97067 290.10635C309.1848 287.73807 495.25552 274.48004 495.25552 274.48004" fill-rule="nonzero"/><path fill="#4285f4" clip-path="url(#id_0)" d="M110.50704 300.36923C110.50704 303.68292 107.82075 306.36923 104.50704 306.36923C101.19333 306.36923 98.50704 303.68292 98.50704 300.36923C98.50704 297.0555 101.19333 294.36923 104.50704 294.36923C107.82075 294.36923 110.50704 297.0555 110.50704 300.36923Z" fill-rule="nonzero"/><path fill="#4285f4" clip-path="url(#id_0)" d="M166.32825 299.82068C166.32825 303.13437 163.64197 305.82068 160.32825 305.82068C157.01454 305.82068 154.32825 303.13437 154.32825 299.82068C154.32825 296.50696 157.01454 293.82068 160.32825 293.82068C163.64197 293.82068 166.32825 296.50696 166.32825 299.82068Z" fill-rule="nonzero"/><path fill="#4285f4" clip-path="url(#id_0)" d="M277.97067 293.08752C277.97067 296.4012 275.2844 299.08752 271.97067 299.08752C268.65698 299.08752 265.97067 296.4012 265.97067 293.08752C265.97067 289.7738 268.65698 287.08752 271.97067 287.08752C275.2844 287.08752 277.97067 289.7738 277.97067 293.08752Z" fill-rule="nonzero"/><path fill="#4285f4" clip-path="url(#id_0)" d="M501.25552 208.03268C501.25552 211.3464 498.56924 214.03268 495.25552 214.03268C491.94183 214.03268 489.25552 211.3464 489.25552 208.03268C489.25552 204.71898 491.94183 202.03268 495.25552 202.03268C498.56924 202.03268 501.25552 204.71898 501.25552 208.03268Z" fill-rule="nonzero"/><path fill="#ea4335" clip-path="url(#id_0)" d="M110.50704 297.75165C110.50704 301.06537 107.82075 303.75165 104.50704 303.75165C101.19333 303.75165 98.50704 301.06537 98.50704 297.75165C98.50704 294.43793 101.19333 291.75165 104.50704 291.75165C107.82075 291.75165 110.50704 294.43793 110.50704 297.75165Z" fill-rule="nonzero"/><path fill="#ea4335" clip-path="url(#id_0)" d="M166.32825 234.53403C166.32825 237.84775 163.64197 240.53403 160.32825 240.53403C157.01454 240.53403 154.32825 237.84775 154.32825 234.53403C154.32825 231.22032 157.01454 228.53403 160.32825 228.53403C163.64197 228.53403 166.32825 231.22032 166.32825 234.53403Z" fill-rule="nonzero"/><path fill="#ea4335" clip-path="url(#id_0)" d="M277.97067 282.8991C277.97067 286.2128 275.2844 288.8991 271.97067 288.8991C268.65698 288.8991 265.97067 286.2128 265.97067 282.8991C265.97067 279.5854 268.65698 276.8991 271.97067 276.8991C275.2844 276.8991 277.97067 279.5854 277.97067 282.8991Z" fill-rule="nonzero"/><path fill="#ea4335" clip-path="url(#id_0)" d="M501.25552 117.729935C501.25552 121.04364 498.56924 123.729935 495.25552 123.729935C491.94183 123.729935 489.25552 121.04364 489.25552 117.729935C489.25552 114.41623 491.94183 111.729935 495.25552 111.729935C498.56924 111.729935 501.25552 114.41623 501.25552 117.729935Z" fill-rule="nonzero"/><path fill="#fbbc04" clip-path="url(#id_0)" d="M110.50704 299.35754C110.50704 302.67126 107.82075 305.35754 104.50704 305.35754C101.19333 305.35754 98.50704 302.67126 98.50704 299.35754C98.50704 296.04382 101.19333 293.35754 104.50704 293.35754C107.82075 293.35754 110.50704 296.04382 110.50704 299.35754Z" fill-rule="nonzero"/><path fill="#fbbc04" clip-path="url(#id_0)" d="M166.32825 296.50293C166.32825 299.81662 163.64197 302.50293 160.32825 302.50293C157.01454 302.50293 154.32825 299.81662 154.32825 296.50293C154.32825 293.1892 157.01454 290.50293 160.32825 290.50293C163.64197 290.50293 166.32825 293.1892 166.32825 296.50293Z" fill-rule="nonzero"/><path fill="#fbbc04" clip-path="url(#id_0)" d="M277.97067 290.10635C277.97067 293.42004 275.2844 296.10635 271.97067 296.10635C268.65698 296.10635 265.97067 293.42004 265.97067 290.10635C265.97067 286.79263 268.65698 284.10635 271.97067 284.10635C275.2844 284.10635 277.97067 286.79263 277.97067 290.10635Z" fill-rule="nonzero"/><path fill="#fbbc04" clip-path="url(#id_0)" d="M501.25552 274.48004C501.25552 277.79376 498.56924 280.48004 495.25552 280.48004C491.94183 280.48004 489.25552 277.79376 489.25552 274.48004C489.25552 271.16632 491.94183 268.48004 495.25552 268.48004C498.56924 268.48004 501.25552 271.16632 501.25552 274.48004Z" fill-rule="nonzero"/><path fill="#000000" d="M289.42188 349.45L289.42188 340.85626L290.57812 340.85626L295.09375 347.60626L295.09375 340.85626L296.1875 340.85626L296.1875 349.45L295.01562 349.45L290.5 342.7L290.5 349.45L289.42188 349.45ZM302.375 349.45L302.375 348.52814Q301.64062 349.59064 300.39062 349.59064Q299.84375 349.59064 299.35938 349.3875Q298.89062 349.16876 298.65625 348.85626Q298.42188 348.52814 298.32812 348.0594Q298.26562 347.7625 298.26562 347.075L298.26562 343.23126L299.32812 343.23126L299.32812 346.6844Q299.32812 347.4969 299.39062 347.79376Q299.48438 348.2 299.79688 348.45Q300.125 348.6844 300.60938 348.6844Q301.07812 348.6844 301.48438 348.45Q301.90625 348.2 302.07812 347.77814Q302.26562 347.35626 302.26562 346.5594L302.26562 343.23126L303.3125 343.23126L303.3125 349.45L302.375 349.45ZM305.29688 349.45L305.29688 343.23126L306.23438 343.23126L306.23438 344.10626Q306.53125 343.6375 307.01562 343.3719Q307.5 343.09064 308.125 343.09064Q308.8125 343.09064 309.25 343.3719Q309.70312 343.65314 309.875 344.16876Q310.625 343.09064 311.79688 343.09064Q312.73438 343.09064 313.21875 343.60626Q313.71875 344.10626 313.71875 345.1844L313.71875 349.45L312.67188 349.45L312.67188 345.52814Q312.67188 344.90314 312.5625 344.6219Q312.46875 344.34064 312.20312 344.16876Q311.9375 343.9969 311.5625 343.9969Q310.90625 343.9969 310.46875 344.4344Q310.04688 344.8719 310.04688 345.84064L310.04688 349.45L308.98438 349.45L308.98438 345.40314Q308.98438 344.7 308.71875 344.35626Q308.46875 343.9969 307.89062 343.9969Q307.4375 343.9969 307.0625 344.23126Q306.6875 344.46564 306.51562 344.91876Q306.34375 345.3719 306.34375 346.21564L306.34375 349.45L305.29688 349.45ZM317.26562 349.45L316.28125 349.45L316.28125 340.85626L317.34375 340.85626L317.34375 343.91876Q318.01562 343.09064 319.04688 343.09064Q319.625 343.09064 320.125 343.325Q320.64062 343.54376 320.96875 343.96564Q321.3125 344.3875 321.5 344.98126Q321.6875 345.575 321.6875 346.2469Q321.6875 347.84064 320.89062 348.71564Q320.09375 349.59064 319.0 349.59064Q317.89062 349.59064 317.26562 348.66876L317.26562 349.45ZM317.25 346.29376Q317.25 347.40314 317.5625 347.90314Q318.0625 348.71564 318.90625 348.71564Q319.59375 348.71564 320.09375 348.1219Q320.60938 347.52814 320.60938 346.325Q320.60938 345.10626 320.125 344.52814Q319.64062 343.95 318.95312 343.95Q318.26562 343.95 317.75 344.5594Q317.25 345.15314 317.25 346.29376ZM327.54688 347.45L328.64062 347.575Q328.39062 348.52814 327.6875 349.0594Q326.98438 349.59064 325.90625 349.59064Q324.54688 349.59064 323.73438 348.7469Q322.9375 347.90314 322.9375 346.3875Q322.9375 344.825 323.75 343.96564Q324.5625 343.09064 325.84375 343.09064Q327.09375 343.09064 327.875 343.9344Q328.67188 344.77814 328.67188 346.325Q328.67188 346.41876 328.67188 346.60626L324.03125 346.60626Q324.09375 347.6375 324.60938 348.1844Q325.125 348.71564 325.90625 348.71564Q326.48438 348.71564 326.89062 348.41876Q327.3125 348.10626 327.54688 347.45ZM324.09375 345.7469L327.5625 345.7469Q327.5 344.95 327.17188 344.5594Q326.65625 343.95 325.85938 343.95Q325.125 343.95 324.625 344.4344Q324.14062 344.91876 324.09375 345.7469ZM330.28125 349.45L330.28125 343.23126L331.23438 343.23126L331.23438 344.16876Q331.59375 343.5125 331.89062 343.3094Q332.20312 343.09064 332.57812 343.09064Q333.10938 343.09064 333.65625 343.41876L333.29688 344.40314Q332.90625 344.16876 332.53125 344.16876Q332.17188 344.16876 331.89062 344.3875Q331.625 344.59064 331.51562 344.96564Q331.32812 345.52814 331.32812 346.1844L331.32812 349.45L330.28125 349.45ZM336.90625 346.34064Q336.90625 344.60626 337.85938 343.77814Q338.65625 343.09064 339.8125 343.09064Q341.09375 343.09064 341.90625 343.9344Q342.73438 344.7625 342.73438 346.2469Q342.73438 347.45 342.375 348.1375Q342.01562 348.825 341.3125 349.21564Q340.625 349.59064 339.8125 349.59064Q338.51562 349.59064 337.70312 348.7625Q336.90625 347.91876 336.90625 346.34064ZM337.98438 346.34064Q337.98438 347.52814 338.5 348.1219Q339.03125 348.71564 339.8125 348.71564Q340.60938 348.71564 341.125 348.1219Q341.64062 347.52814 341.64062 346.3094Q341.64062 345.15314 341.10938 344.5594Q340.59375 343.96564 339.8125 343.96564Q339.03125 343.96564 338.5 344.5594Q337.98438 345.1375 337.98438 346.34064ZM344.54688 349.45L344.54688 344.04376L343.60938 344.04376L343.60938 343.23126L344.54688 343.23126L344.54688 342.5594Q344.54688 341.9344 344.65625 341.6375Q344.8125 341.21564 345.1875 340.96564Q345.57812 340.71564 346.26562 340.71564Q346.71875 340.71564 347.25 340.825L347.09375 341.73126Q346.76562 341.6844 346.46875 341.6844Q345.98438 341.6844 345.78125 341.8875Q345.59375 342.09064 345.59375 342.65314L345.59375 343.23126L346.8125 343.23126L346.8125 344.04376L345.59375 344.04376L345.59375 349.45L344.54688 349.45ZM350.29688 349.45L350.29688 343.23126L351.23438 343.23126L351.23438 344.10626Q351.92188 343.09064 353.21875 343.09064Q353.78125 343.09064 354.25 343.29376Q354.73438 343.4969 354.96875 343.825Q355.20312 344.15314 355.29688 344.59064Q355.34375 344.8875 355.34375 345.6219L355.34375 349.45L354.29688 349.45L354.29688 345.66876Q354.29688 345.0125 354.17188 344.7Q354.04688 344.3875 353.73438 344.2Q353.42188 343.9969 353.0 343.9969Q352.32812 343.9969 351.82812 344.4344Q351.34375 344.85626 351.34375 346.04376L351.34375 349.45L350.29688 349.45ZM356.90625 346.34064Q356.90625 344.60626 357.85938 343.77814Q358.65625 343.09064 359.8125 343.09064Q361.09375 343.09064 361.90625 343.9344Q362.73438 344.7625 362.73438 346.2469Q362.73438 347.45 362.375 348.1375Q362.01562 348.825 361.3125 349.21564Q360.625 349.59064 359.8125 349.59064Q358.51562 349.59064 357.70312 348.7625Q356.90625 347.91876 356.90625 346.34064ZM357.98438 346.34064Q357.98438 347.52814 358.5 348.1219Q359.03125 348.71564 359.8125 348.71564Q360.60938 348.71564 361.125 348.1219Q361.64062 347.52814 361.64062 346.3094Q361.64062 345.15314 361.10938 344.5594Q360.59375 343.96564 359.8125 343.96564Q359.03125 343.96564 358.5 344.5594Q357.98438 345.1375 357.98438 346.34064ZM368.32812 349.45L368.32812 348.66876Q367.73438 349.59064 366.59375 349.59064Q365.84375 349.59064 365.21875 349.1844Q364.59375 348.7625 364.25 348.02814Q363.90625 347.29376 363.90625 346.34064Q363.90625 345.41876 364.21875 344.65314Q364.53125 343.8875 365.15625 343.4969Q365.78125 343.09064 366.54688 343.09064Q367.10938 343.09064 367.54688 343.325Q367.98438 343.5594 368.26562 343.9344L368.26562 340.85626L369.3125 340.85626L369.3125 349.45L368.32812 349.45ZM365.0 346.34064Q365.0 347.54376 365.5 348.1375Q366.0 348.71564 366.6875 348.71564Q367.375 348.71564 367.85938 348.15314Q368.34375 347.59064 368.34375 346.4344Q368.34375 345.15314 367.84375 344.5594Q367.35938 343.96564 366.64062 343.96564Q365.9375 343.96564 365.46875 344.54376Q365.0 345.10626 365.0 346.34064ZM375.54688 347.45L376.64062 347.575Q376.39062 348.52814 375.6875 349.0594Q374.98438 349.59064 373.90625 349.59064Q372.54688 349.59064 371.73438 348.7469Q370.9375 347.90314 370.9375 346.3875Q370.9375 344.825 371.75 343.96564Q372.5625 343.09064 373.84375 343.09064Q375.09375 343.09064 375.875 343.9344Q376.67188 344.77814 376.67188 346.325Q376.67188 346.41876 376.67188 346.60626L372.03125 346.60626Q372.09375 347.6375 372.60938 348.1844Q373.125 348.71564 373.90625 348.71564Q374.48438 348.71564 374.89062 348.41876Q375.3125 348.10626 375.54688 347.45ZM372.09375 345.7469L375.5625 345.7469Q375.5 344.95 375.17188 344.5594Q374.65625 343.95 373.85938 343.95Q373.125 343.95 372.625 344.4344Q372.14062 344.91876 372.09375 345.7469ZM377.875 347.59064L378.90625 347.4344Q379.0 348.0594 379.39062 348.3875Q379.79688 348.71564 380.53125 348.71564Q381.25 348.71564 381.59375 348.4344Q381.95312 348.1375 381.95312 347.73126Q381.95312 347.3719 381.64062 347.16876Q381.42188 347.02814 380.5625 346.8094Q379.40625 346.5125 378.95312 346.3094Q378.51562 346.09064 378.28125 345.71564Q378.04688 345.34064 378.04688 344.8719Q378.04688 344.46564 378.23438 344.10626Q378.42188 343.7469 378.75 343.5125Q379.0 343.34064 379.42188 343.21564Q379.84375 343.09064 380.34375 343.09064Q381.0625 343.09064 381.60938 343.3094Q382.17188 343.5125 382.4375 343.8719Q382.70312 344.23126 382.79688 344.825L381.76562 344.96564Q381.70312 344.4969 381.35938 344.23126Q381.03125 343.95 380.40625 343.95Q379.6875 343.95 379.375 344.2Q379.0625 344.4344 379.0625 344.7625Q379.0625 344.96564 379.1875 345.1219Q379.32812 345.29376 379.59375 345.40314Q379.75 345.46564 380.53125 345.66876Q381.65625 345.98126 382.09375 346.16876Q382.53125 346.35626 382.78125 346.71564Q383.03125 347.075 383.03125 347.6219Q383.03125 348.15314 382.71875 348.6219Q382.42188 349.075 381.84375 349.34064Q381.26562 349.59064 380.53125 349.59064Q379.3125 349.59064 378.67188 349.09064Q378.04688 348.575 377.875 347.59064Z" fill-rule="nonzero"/><path fill="#000000" d="M29.550013 239.91354L20.956263 239.91354L20.956263 233.71042L21.971888 233.71042L21.971888 238.77292L24.596888 238.77292L24.596888 234.02292L25.612513 234.02292L25.612513 238.77292L28.534388 238.77292L28.534388 233.5073L29.550013 233.5073L29.550013 239.91354ZM29.550013 232.77292L26.315638 230.5073L23.331263 232.60104L23.331263 231.28854L24.784388 230.33542Q25.206263 230.0698 25.487513 229.89792Q25.096888 229.64792 24.800013 229.42917L23.331263 228.3823L23.331263 227.11667L26.253138 229.27292L29.550013 226.96042L29.550013 228.24167L27.612513 229.52292L27.096888 229.86667L29.550013 231.5073L29.550013 232.77292ZM27.550013 222.8198L27.675013 221.72604Q28.628138 221.97604 29.159388 222.67917Q29.690638 223.3823 29.690638 224.46042Q29.690638 225.8198 28.846888 226.6323Q28.003138 227.42917 26.487513 227.42917Q24.925013 227.42917 24.065638 226.61667Q23.190638 225.80417 23.190638 224.52292Q23.190638 223.27292 24.034388 222.49167Q24.878138 221.6948 26.425013 221.6948Q26.518763 221.6948 26.706263 221.6948L26.706263 226.33542Q27.737513 226.27292 28.284388 225.7573Q28.815638 225.24167 28.815638 224.46042Q28.815638 223.8823 28.518763 223.47604Q28.206263 223.05417 27.550013 222.8198ZM25.846888 226.27292L25.846888 222.80417Q25.050013 222.86667 24.659388 223.1948Q24.050013 223.71042 24.050013 224.5073Q24.050013 225.24167 24.534388 225.74167Q25.018763 226.22604 25.846888 226.27292ZM27.268763 216.0073L27.409388 214.97604Q28.471888 215.14792 29.081263 215.85104Q29.690638 216.55417 29.690638 217.5698Q29.690638 218.85104 28.862513 219.6323Q28.018763 220.39792 26.456263 220.39792Q25.456263 220.39792 24.706263 220.0698Q23.940638 219.72604 23.565638 219.05417Q23.190638 218.36667 23.190638 217.55417Q23.190638 216.55417 23.706263 215.91354Q24.206263 215.2573 25.159388 215.0698L25.315638 216.10104Q24.690638 216.24167 24.378138 216.61667Q24.050013 216.99167 24.050013 217.52292Q24.050013 218.3198 24.628138 218.8198Q25.190638 219.3198 26.425013 219.3198Q27.690638 219.3198 28.253138 218.83542Q28.815638 218.35104 28.815638 217.58542Q28.815638 216.96042 28.440638 216.55417Q28.065638 216.1323 27.268763 216.0073ZM29.550013 209.99167L28.628138 209.99167Q29.690638 210.72604 29.690638 211.97604Q29.690638 212.52292 29.487513 213.0073Q29.268763 213.47604 28.956263 213.71042Q28.628138 213.9448 28.159388 214.03854Q27.862513 214.10104 27.175013 214.10104L23.331263 214.10104L23.331263 213.03854L26.784388 213.03854Q27.596888 213.03854 27.893763 212.97604Q28.300013 212.8823 28.550013 212.5698Q28.784388 212.24167 28.784388 211.7573Q28.784388 211.28854 28.550013 210.8823Q28.300013 210.46042 27.878138 210.28854Q27.456263 210.10104 26.659388 210.10104L23.331263 210.10104L23.331263 209.05417L29.550013 209.05417L29.550013 209.99167ZM28.612513 204.77292L29.534388 204.61667Q29.628138 205.0698 29.628138 205.41354Q29.628138 205.99167 29.456263 206.30417Q29.268763 206.61667 28.971888 206.7573Q28.675013 206.8823 27.721888 206.8823L24.143763 206.8823L24.143763 207.64792L23.331263 207.64792L23.331263 206.8823L21.784388 206.8823L21.159388 205.83542L23.331263 205.83542L23.331263 204.77292L24.143763 204.77292L24.143763 205.83542L27.784388 205.83542Q28.237513 205.83542 28.362513 205.78854Q28.487513 205.72604 28.565638 205.60104Q28.643763 205.47604 28.643763 205.24167Q28.643763 205.05417 28.612513 204.77292ZM22.175013 204.0698L20.956263 204.0698L20.956263 203.0073L22.175013 203.0073L22.175013 204.0698ZM29.550013 204.0698L23.331263 204.0698L23.331263 203.0073L29.550013 203.0073L29.550013 204.0698ZM26.440638 201.46042Q24.706263 201.46042 23.878138 200.5073Q23.190638 199.71042 23.190638 198.55417Q23.190638 197.27292 24.034388 196.46042Q24.862513 195.6323 26.346888 195.6323Q27.550013 195.6323 28.237513 195.99167Q28.925013 196.35104 29.315638 197.05417Q29.690638 197.74167 29.690638 198.55417Q29.690638 199.85104 28.862513 200.66354Q28.018763 201.46042 26.440638 201.46042ZM26.440638 200.3823Q27.628138 200.3823 28.221888 199.86667Q28.815638 199.33542 28.815638 198.55417Q28.815638 197.7573 28.221888 197.24167Q27.628138 196.72604 26.409388 196.72604Q25.253138 196.72604 24.659388 197.2573Q24.065638 197.77292 24.065638 198.55417Q24.065638 199.33542 24.659388 199.86667Q25.237513 200.3823 26.440638 200.3823ZM29.550013 194.0698L23.331263 194.0698L23.331263 193.1323L24.206263 193.1323Q23.190638 192.4448 23.190638 191.14792Q23.190638 190.58542 23.393763 190.11667Q23.596888 189.6323 23.925013 189.39792Q24.253138 189.16354 24.690638 189.0698Q24.987513 189.02292 25.721888 189.02292L29.550013 189.02292L29.550013 190.0698L25.768763 190.0698Q25.112513 190.0698 24.800013 190.1948Q24.487513 190.3198 24.300013 190.6323Q24.096888 190.9448 24.096888 191.36667Q24.096888 192.03854 24.534388 192.53854Q24.956263 193.02292 26.143763 193.02292L29.550013 193.02292L29.550013 194.0698ZM28.612513 181.77292L29.534388 181.61667Q29.628138 182.0698 29.628138 182.41354Q29.628138 182.99167 29.456263 183.30417Q29.268763 183.61667 28.971888 183.7573Q28.675013 183.8823 27.721888 183.8823L24.143763 183.8823L24.143763 184.64792L23.331263 184.64792L23.331263 183.8823L21.784388 183.8823L21.159388 182.83542L23.331263 182.83542L23.331263 181.77292L24.143763 181.77292L24.143763 182.83542L27.784388 182.83542Q28.237513 182.83542 28.362513 182.78854Q28.487513 182.72604 28.565638 182.60104Q28.643763 182.47604 28.643763 182.24167Q28.643763 182.05417 28.612513 181.77292ZM22.175013 181.0698L20.956263 181.0698L20.956263 180.0073L22.175013 180.0073L22.175013 181.0698ZM29.550013 181.0698L23.331263 181.0698L23.331263 180.0073L29.550013 180.0073L29.550013 181.0698ZM29.550013 178.0698L23.331263 178.0698L23.331263 177.1323L24.206263 177.1323Q23.737513 176.83542 23.471888 176.35104Q23.190638 175.86667 23.190638 175.24167Q23.190638 174.55417 23.471888 174.11667Q23.753138 173.66354 24.268763 173.49167Q23.190638 172.74167 23.190638 171.5698Q23.190638 170.6323 23.706263 170.14792Q24.206263 169.64792 25.284388 169.64792L29.550013 169.64792L29.550013 170.6948L25.628138 170.6948Q25.003138 170.6948 24.721888 170.80417Q24.440638 170.89792 24.268763 171.16354Q24.096888 171.42917 24.096888 171.80417Q24.096888 172.46042 24.534388 172.89792Q24.971888 173.3198 25.940638 173.3198L29.550013 173.3198L29.550013 174.3823L25.503138 174.3823Q24.800013 174.3823 24.456263 174.64792Q24.096888 174.89792 24.096888 175.47604Q24.096888 175.92917 24.331263 176.30417Q24.565638 176.67917 25.018763 176.85104Q25.471888 177.02292 26.315638 177.02292L29.550013 177.02292L29.550013 178.0698ZM27.550013 162.8198L27.675013 161.72604Q28.628138 161.97604 29.159388 162.67917Q29.690638 163.3823 29.690638 164.46042Q29.690638 165.8198 28.846888 166.6323Q28.003138 167.42917 26.487513 167.42917Q24.925013 167.42917 24.065638 166.61667Q23.190638 165.80417 23.190638 164.52292Q23.190638 163.27292 24.034388 162.49167Q24.878138 161.6948 26.425013 161.6948Q26.518763 161.6948 26.706263 161.6948L26.706263 166.33542Q27.737513 166.27292 28.284388 165.7573Q28.815638 165.24167 28.815638 164.46042Q28.815638 163.8823 28.518763 163.47604Q28.206263 163.05417 27.550013 162.8198ZM25.846888 166.27292L25.846888 162.80417Q25.050013 162.86667 24.659388 163.1948Q24.050013 163.71042 24.050013 164.5073Q24.050013 165.24167 24.534388 165.74167Q25.018763 166.22604 25.846888 166.27292Z" fill-rule="nonzero"/><path fill="#000000" d="M79.05 300.21564Q79.05 298.6844 79.3625 297.7625Q79.675 296.825 80.28438 296.325Q80.90938 295.825 81.84688 295.825Q82.53438 295.825 83.05 296.10626Q83.58125 296.3875 83.925 296.91876Q84.26875 297.4344 84.45625 298.1844Q84.64375 298.9344 84.64375 300.21564Q84.64375 301.73126 84.33125 302.65314Q84.03438 303.575 83.40938 304.09064Q82.8 304.59064 81.84688 304.59064Q80.6125 304.59064 79.89375 303.7Q79.05 302.6375 79.05 300.21564ZM80.12813 300.21564Q80.12813 302.325 80.62813 303.02814Q81.12813 303.73126 81.84688 303.73126Q82.58125 303.73126 83.06563 303.02814Q83.56563 302.325 83.56563 300.21564Q83.56563 298.09064 83.06563 297.40314Q82.58125 296.7 81.83125 296.7Q81.1125 296.7 80.675 297.3094Q80.12813 298.09064 80.12813 300.21564Z" fill-rule="nonzero"/><path fill="#000000" d="M56.596874 250.39272L56.596874 251.40834L50.909374 251.40834Q50.909374 251.03334 51.034374 250.67397Q51.253124 250.09584 51.721874 249.53334Q52.20625 248.97084 53.1125 248.23647Q54.51875 247.08022 55.003124 246.40834Q55.503124 245.73647 55.503124 245.14272Q55.503124 244.51772 55.05 244.09584Q54.596874 243.65834 53.878124 243.65834Q53.1125 243.65834 52.659374 244.11147Q52.20625 244.56459 52.190624 245.37709L51.1125 245.26772Q51.221874 244.04897 51.940624 243.42397Q52.675 242.78334 53.909374 242.78334Q55.14375 242.78334 55.8625 243.47084Q56.58125 244.15834 56.58125 245.17397Q56.58125 245.68959 56.3625 246.18959Q56.159374 246.67397 55.659374 247.23647Q55.175 247.78334 54.05 248.73647Q53.096874 249.53334 52.815624 249.83022Q52.55 250.11147 52.378124 250.39272L56.596874 250.39272ZM58.05 247.17397Q58.05 245.64272 58.3625 244.72084Q58.675 243.78334 59.284374 243.28334Q59.909374 242.78334 60.846874 242.78334Q61.534374 242.78334 62.05 243.06459Q62.58125 243.34584 62.925 243.87709Q63.26875 244.39272 63.45625 245.14272Q63.64375 245.89272 63.64375 247.17397Q63.64375 248.68959 63.33125 249.61147Q63.034374 250.53334 62.409374 251.04897Q61.8 251.54897 60.846874 251.54897Q59.6125 251.54897 58.89375 250.65834Q58.05 249.59584 58.05 247.17397ZM59.128124 247.17397Q59.128124 249.28334 59.628124 249.98647Q60.128124 250.68959 60.846874 250.68959Q61.58125 250.68959 62.065624 249.98647Q62.565624 249.28334 62.565624 247.17397Q62.565624 245.04897 62.065624 244.36147Q61.58125 243.65834 60.83125 243.65834Q60.1125 243.65834 59.675 244.26772Q59.128124 245.04897 59.128124 247.17397ZM65.05 247.17397Q65.05 245.64272 65.3625 244.72084Q65.675 243.78334 66.28438 243.28334Q66.90938 242.78334 67.84688 242.78334Q68.53438 242.78334 69.05 243.06459Q69.58125 243.34584 69.925 243.87709Q70.26875 244.39272 70.45625 245.14272Q70.64375 245.89272 70.64375 247.17397Q70.64375 248.68959 70.33125 249.61147Q70.03438 250.53334 69.40938 251.04897Q68.8 251.54897 67.84688 251.54897Q66.6125 251.54897 65.89375 250.65834Q65.05 249.59584 65.05 247.17397ZM66.12813 247.17397Q66.12813 249.28334 66.62813 249.98647Q67.12813 250.68959 67.84688 250.68959Q68.58125 250.68959 69.06563 249.98647Q69.56563 249.28334 69.56563 247.17397Q69.56563 245.04897 69.06563 244.36147Q68.58125 243.65834 67.83125 243.65834Q67.1125 243.65834 66.675 244.26772Q66.12813 245.04897 66.12813 247.17397ZM72.05 247.17397Q72.05 245.64272 72.3625 244.72084Q72.675 243.78334 73.28438 243.28334Q73.90938 242.78334 74.84688 242.78334Q75.53438 242.78334 76.05 243.06459Q76.58125 243.34584 76.925 243.87709Q77.26875 244.39272 77.45625 245.14272Q77.64375 245.89272 77.64375 247.17397Q77.64375 248.68959 77.33125 249.61147Q77.03438 250.53334 76.40938 251.04897Q75.8 251.54897 74.84688 251.54897Q73.6125 251.54897 72.89375 250.65834Q72.05 249.59584 72.05 247.17397ZM73.12813 247.17397Q73.12813 249.28334 73.62813 249.98647Q74.12813 250.68959 74.84688 250.68959Q75.58125 250.68959 76.06563 249.98647Q76.56563 249.28334 76.56563 247.17397Q76.56563 245.04897 76.06563 244.36147Q75.58125 243.65834 74.83125 243.65834Q74.1125 243.65834 73.675 244.26772Q73.12813 245.04897 73.12813 247.17397ZM79.05 247.17397Q79.05 245.64272 79.3625 244.72084Q79.675 243.78334 80.28438 243.28334Q80.90938 242.78334 81.84688 242.78334Q82.53438 242.78334 83.05 243.06459Q83.58125 243.34584 83.925 243.87709Q84.26875 244.39272 84.45625 245.14272Q84.64375 245.89272 84.64375 247.17397Q84.64375 248.68959 84.33125 249.61147Q84.03438 250.53334 83.40938 251.04897Q82.8 251.54897 81.84688 251.54897Q80.6125 251.54897 79.89375 250.65834Q79.05 249.59584 79.05 247.17397ZM80.12813 247.17397Q80.12813 249.28334 80.62813 249.98647Q81.12813 250.68959 81.84688 250.68959Q82.58125 250.68959 83.06563 249.98647Q83.56563 249.28334 83.56563 247.17397Q83.56563 245.04897 83.06563 244.36147Q82.58125 243.65834 81.83125 243.65834Q81.1125 243.65834 80.675 244.26772Q80.12813 245.04897 80.12813 247.17397Z" fill-rule="nonzero"/><path fill="#000000" d="M54.425 198.36667L54.425 196.30417L50.70625 196.30417L50.70625 195.33542L54.628124 189.77292L55.4875 189.77292L55.4875 195.33542L56.64375 195.33542L56.64375 196.30417L55.4875 196.30417L55.4875 198.36667L54.425 198.36667ZM54.425 195.33542L54.425 191.47604L51.7375 195.33542L54.425 195.33542ZM58.05 194.1323Q58.05 192.60104 58.3625 191.67917Q58.675 190.74167 59.284374 190.24167Q59.909374 189.74167 60.846874 189.74167Q61.534374 189.74167 62.05 190.02292Q62.58125 190.30417 62.925 190.83542Q63.26875 191.35104 63.45625 192.10104Q63.64375 192.85104 63.64375 194.1323Q63.64375 195.64792 63.33125 196.5698Q63.034374 197.49167 62.409374 198.0073Q61.8 198.5073 60.846874 198.5073Q59.6125 198.5073 58.89375 197.61667Q58.05 196.55417 58.05 194.1323ZM59.128124 194.1323Q59.128124 196.24167 59.628124 196.9448Q60.128124 197.64792 60.846874 197.64792Q61.58125 197.64792 62.065624 196.9448Q62.565624 196.24167 62.565624 194.1323Q62.565624 192.0073 62.065624 191.3198Q61.58125 190.61667 60.83125 190.61667Q60.1125 190.61667 59.675 191.22604Q59.128124 192.0073 59.128124 194.1323ZM65.05 194.1323Q65.05 192.60104 65.3625 191.67917Q65.675 190.74167 66.28438 190.24167Q66.90938 189.74167 67.84688 189.74167Q68.53438 189.74167 69.05 190.02292Q69.58125 190.30417 69.925 190.83542Q70.26875 191.35104 70.45625 192.10104Q70.64375 192.85104 70.64375 194.1323Q70.64375 195.64792 70.33125 196.5698Q70.03438 197.49167 69.40938 198.0073Q68.8 198.5073 67.84688 198.5073Q66.6125 198.5073 65.89375 197.61667Q65.05 196.55417 65.05 194.1323ZM66.12813 194.1323Q66.12813 196.24167 66.62813 196.9448Q67.12813 197.64792 67.84688 197.64792Q68.58125 197.64792 69.06563 196.9448Q69.56563 196.24167 69.56563 194.1323Q69.56563 192.0073 69.06563 191.3198Q68.58125 190.61667 67.83125 190.61667Q67.1125 190.61667 66.675 191.22604Q66.12813 192.0073 66.12813 194.1323ZM72.05 194.1323Q72.05 192.60104 72.3625 191.67917Q72.675 190.74167 73.28438 190.24167Q73.90938 189.74167 74.84688 189.74167Q75.53438 189.74167 76.05 190.02292Q76.58125 190.30417 76.925 190.83542Q77.26875 191.35104 77.45625 192.10104Q77.64375 192.85104 77.64375 194.1323Q77.64375 195.64792 77.33125 196.5698Q77.03438 197.49167 76.40938 198.0073Q75.8 198.5073 74.84688 198.5073Q73.6125 198.5073 72.89375 197.61667Q72.05 196.55417 72.05 194.1323ZM73.12813 194.1323Q73.12813 196.24167 73.62813 196.9448Q74.12813 197.64792 74.84688 197.64792Q75.58125 197.64792 76.06563 196.9448Q76.56563 196.24167 76.56563 194.1323Q76.56563 192.0073 76.06563 191.3198Q75.58125 190.61667 74.83125 190.61667Q74.1125 190.61667 73.675 191.22604Q73.12813 192.0073 73.12813 194.1323ZM79.05 194.1323Q79.05 192.60104 79.3625 191.67917Q79.675 190.74167 80.28438 190.24167Q80.90938 189.74167 81.84688 189.74167Q82.53438 189.74167 83.05 190.02292Q83.58125 190.30417 83.925 190.83542Q84.26875 191.35104 84.45625 192.10104Q84.64375 192.85104 84.64375 194.1323Q84.64375 195.64792 84.33125 196.5698Q84.03438 197.49167 83.40938 198.0073Q82.8 198.5073 81.84688 198.5073Q80.6125 198.5073 79.89375 197.61667Q79.05 196.55417 79.05 194.1323ZM80.12813 194.1323Q80.12813 196.24167 80.62813 196.9448Q81.12813 197.64792 81.84688 197.64792Q82.58125 197.64792 83.06563 196.9448Q83.56563 196.24167 83.56563 194.1323Q83.56563 192.0073 83.06563 191.3198Q82.58125 190.61667 81.83125 190.61667Q81.1125 190.61667 80.675 191.22604Q80.12813 192.0073 80.12813 194.1323Z" fill-rule="nonzero"/><path fill="#000000" d="M56.51875 138.84062L55.471874 138.91875Q55.33125 138.29375 55.08125 138.0125Q54.64375 137.55937 54.01875 137.55937Q53.51875 137.55937 53.128124 137.84062Q52.64375 138.21562 52.346874 138.91875Q52.065624 139.60625 52.05 140.8875Q52.425 140.30937 52.971874 140.02812Q53.534374 139.74687 54.14375 139.74687Q55.190624 139.74687 55.925 140.52812Q56.675 141.30937 56.675 142.52812Q56.675 143.34062 56.315624 144.04375Q55.971874 144.73125 55.3625 145.10625Q54.753124 145.46562 53.9875 145.46562Q52.659374 145.46562 51.83125 144.49687Q51.003124 143.52812 51.003124 141.30937Q51.003124 138.80937 51.925 137.68437Q52.721874 136.7 54.08125 136.7Q55.096874 136.7 55.7375 137.27812Q56.39375 137.84062 56.51875 138.84062ZM52.221874 142.54375Q52.221874 143.09062 52.440624 143.59062Q52.675 144.075 53.08125 144.34062Q53.503124 144.60625 53.971874 144.60625Q54.628124 144.60625 55.1125 144.075Q55.596874 143.52812 55.596874 142.60625Q55.596874 141.71562 55.1125 141.2Q54.64375 140.68437 53.925 140.68437Q53.20625 140.68437 52.70625 141.2Q52.221874 141.71562 52.221874 142.54375ZM58.05 141.09062Q58.05 139.55937 58.3625 138.6375Q58.675 137.7 59.284374 137.2Q59.909374 136.7 60.846874 136.7Q61.534374 136.7 62.05 136.98125Q62.58125 137.2625 62.925 137.79375Q63.26875 138.30937 63.45625 139.05937Q63.64375 139.80937 63.64375 141.09062Q63.64375 142.60625 63.33125 143.52812Q63.034374 144.45 62.409374 144.96562Q61.8 145.46562 60.846874 145.46562Q59.6125 145.46562 58.89375 144.575Q58.05 143.5125 58.05 141.09062ZM59.128124 141.09062Q59.128124 143.2 59.628124 143.90312Q60.128124 144.60625 60.846874 144.60625Q61.58125 144.60625 62.065624 143.90312Q62.565624 143.2 62.565624 141.09062Q62.565624 138.96562 62.065624 138.27812Q61.58125 137.575 60.83125 137.575Q60.1125 137.575 59.675 138.18437Q59.128124 138.96562 59.128124 141.09062ZM65.05 141.09062Q65.05 139.55937 65.3625 138.6375Q65.675 137.7 66.28438 137.2Q66.90938 136.7 67.84688 136.7Q68.53438 136.7 69.05 136.98125Q69.58125 137.2625 69.925 137.79375Q70.26875 138.30937 70.45625 139.05937Q70.64375 139.80937 70.64375 141.09062Q70.64375 142.60625 70.33125 143.52812Q70.03438 144.45 69.40938 144.96562Q68.8 145.46562 67.84688 145.46562Q66.6125 145.46562 65.89375 144.575Q65.05 143.5125 65.05 141.09062ZM66.12813 141.09062Q66.12813 143.2 66.62813 143.90312Q67.12813 144.60625 67.84688 144.60625Q68.58125 144.60625 69.06563 143.90312Q69.56563 143.2 69.56563 141.09062Q69.56563 138.96562 69.06563 138.27812Q68.58125 137.575 67.83125 137.575Q67.1125 137.575 66.675 138.18437Q66.12813 138.96562 66.12813 141.09062ZM72.05 141.09062Q72.05 139.55937 72.3625 138.6375Q72.675 137.7 73.28438 137.2Q73.90938 136.7 74.84688 136.7Q75.53438 136.7 76.05 136.98125Q76.58125 137.2625 76.925 137.79375Q77.26875 138.30937 77.45625 139.05937Q77.64375 139.80937 77.64375 141.09062Q77.64375 142.60625 77.33125 143.52812Q77.03438 144.45 76.40938 144.96562Q75.8 145.46562 74.84688 145.46562Q73.6125 145.46562 72.89375 144.575Q72.05 143.5125 72.05 141.09062ZM73.12813 141.09062Q73.12813 143.2 73.62813 143.90312Q74.12813 144.60625 74.84688 144.60625Q75.58125 144.60625 76.06563 143.90312Q76.56563 143.2 76.56563 141.09062Q76.56563 138.96562 76.06563 138.27812Q75.58125 137.575 74.83125 137.575Q74.1125 137.575 73.675 138.18437Q73.12813 138.96562 73.12813 141.09062ZM79.05 141.09062Q79.05 139.55937 79.3625 138.6375Q79.675 137.7 80.28438 137.2Q80.90938 136.7 81.84688 136.7Q82.53438 136.7 83.05 136.98125Q83.58125 137.2625 83.925 137.79375Q84.26875 138.30937 84.45625 139.05937Q84.64375 139.80937 84.64375 141.09062Q84.64375 142.60625 84.33125 143.52812Q84.03438 144.45 83.40938 144.96562Q82.8 145.46562 81.84688 145.46562Q80.6125 145.46562 79.89375 144.575Q79.05 143.5125 79.05 141.09062ZM80.12813 141.09062Q80.12813 143.2 80.62813 143.90312Q81.12813 144.60625 81.84688 144.60625Q82.58125 144.60625 83.06563 143.90312Q83.56563 143.2 83.56563 141.09062Q83.56563 138.96562 83.06563 138.27812Q82.58125 137.575 81.83125 137.575Q81.1125 137.575 80.675 138.18437Q80.12813 138.96562 80.12813 141.09062Z" fill-rule="nonzero"/><path fill="#000000" d="M52.675 87.62708Q52.01875 87.37708 51.690624 86.93958Q51.378124 86.48646 51.378124 85.87708Q51.378124 84.93958 52.05 84.29896Q52.7375 83.65833 53.846874 83.65833Q54.971874 83.65833 55.659374 84.31458Q56.346874 84.97083 56.346874 85.90833Q56.346874 86.50208 56.034374 86.93958Q55.721874 87.37708 55.08125 87.62708Q55.878124 87.87708 56.284374 88.45521Q56.690624 89.03333 56.690624 89.83021Q56.690624 90.92396 55.909374 91.67396Q55.14375 92.42396 53.8625 92.42396Q52.596874 92.42396 51.815624 91.67396Q51.034374 90.92396 51.034374 89.79896Q51.034374 88.95521 51.45625 88.39271Q51.89375 87.83021 52.675 87.62708ZM52.45625 85.83021Q52.45625 86.43958 52.846874 86.83021Q53.253124 87.22083 53.878124 87.22083Q54.4875 87.22083 54.878124 86.84583Q55.26875 86.45521 55.26875 85.89271Q55.26875 85.31458 54.8625 84.92396Q54.45625 84.51771 53.8625 84.51771Q53.253124 84.51771 52.846874 84.90833Q52.45625 85.29896 52.45625 85.83021ZM52.128124 89.79896Q52.128124 90.25208 52.33125 90.67396Q52.55 91.09583 52.971874 91.33021Q53.39375 91.56458 53.878124 91.56458Q54.628124 91.56458 55.1125 91.08021Q55.6125 90.59583 55.6125 89.84583Q55.6125 89.08021 55.1125 88.58021Q54.6125 88.08021 53.846874 88.08021Q53.096874 88.08021 52.6125 88.58021Q52.128124 89.06458 52.128124 89.79896ZM58.05 88.04896Q58.05 86.51771 58.3625 85.59583Q58.675 84.65833 59.284374 84.15833Q59.909374 83.65833 60.846874 83.65833Q61.534374 83.65833 62.05 83.93958Q62.58125 84.22083 62.925 84.75208Q63.26875 85.26771 63.45625 86.01771Q63.64375 86.76771 63.64375 88.04896Q63.64375 89.56458 63.33125 90.48646Q63.034374 91.40833 62.409374 91.92396Q61.8 92.42396 60.846874 92.42396Q59.6125 92.42396 58.89375 91.53333Q58.05 90.47083 58.05 88.04896ZM59.128124 88.04896Q59.128124 90.15833 59.628124 90.86146Q60.128124 91.56458 60.846874 91.56458Q61.58125 91.56458 62.065624 90.86146Q62.565624 90.15833 62.565624 88.04896Q62.565624 85.92396 62.065624 85.23646Q61.58125 84.53333 60.83125 84.53333Q60.1125 84.53333 59.675 85.14271Q59.128124 85.92396 59.128124 88.04896ZM65.05 88.04896Q65.05 86.51771 65.3625 85.59583Q65.675 84.65833 66.28438 84.15833Q66.90938 83.65833 67.84688 83.65833Q68.53438 83.65833 69.05 83.93958Q69.58125 84.22083 69.925 84.75208Q70.26875 85.26771 70.45625 86.01771Q70.64375 86.76771 70.64375 88.04896Q70.64375 89.56458 70.33125 90.48646Q70.03438 91.40833 69.40938 91.92396Q68.8 92.42396 67.84688 92.42396Q66.6125 92.42396 65.89375 91.53333Q65.05 90.47083 65.05 88.04896ZM66.12813 88.04896Q66.12813 90.15833 66.62813 90.86146Q67.12813 91.56458 67.84688 91.56458Q68.58125 91.56458 69.06563 90.86146Q69.56563 90.15833 69.56563 88.04896Q69.56563 85.92396 69.06563 85.23646Q68.58125 84.53333 67.83125 84.53333Q67.1125 84.53333 66.675 85.14271Q66.12813 85.92396 66.12813 88.04896ZM72.05 88.04896Q72.05 86.51771 72.3625 85.59583Q72.675 84.65833 73.28438 84.15833Q73.90938 83.65833 74.84688 83.65833Q75.53438 83.65833 76.05 83.93958Q76.58125 84.22083 76.925 84.75208Q77.26875 85.26771 77.45625 86.01771Q77.64375 86.76771 77.64375 88.04896Q77.64375 89.56458 77.33125 90.48646Q77.03438 91.40833 76.40938 91.92396Q75.8 92.42396 74.84688 92.42396Q73.6125 92.42396 72.89375 91.53333Q72.05 90.47083 72.05 88.04896ZM73.12813 88.04896Q73.12813 90.15833 73.62813 90.86146Q74.12813 91.56458 74.84688 91.56458Q75.58125 91.56458 76.06563 90.86146Q76.56563 90.15833 76.56563 88.04896Q76.56563 85.92396 76.06563 85.23646Q75.58125 84.53333 74.83125 84.53333Q74.1125 84.53333 73.675 85.14271Q73.12813 85.92396 73.12813 88.04896ZM79.05 88.04896Q79.05 86.51771 79.3625 85.59583Q79.675 84.65833 80.28438 84.15833Q80.90938 83.65833 81.84688 83.65833Q82.53438 83.65833 83.05 83.93958Q83.58125 84.22083 83.925 84.75208Q84.26875 85.26771 84.45625 86.01771Q84.64375 86.76771 84.64375 88.04896Q84.64375 89.56458 84.33125 90.48646Q84.03438 91.40833 83.40938 91.92396Q82.8 92.42396 81.84688 92.42396Q80.6125 92.42396 79.89375 91.53333Q79.05 90.47083 79.05 88.04896ZM80.12813 88.04896Q80.12813 90.15833 80.62813 90.86146Q81.12813 91.56458 81.84688 91.56458Q82.58125 91.56458 83.06563 90.86146Q83.56563 90.15833 83.56563 88.04896Q83.56563 85.92396 83.06563 85.23646Q82.58125 84.53333 81.83125 84.53333Q81.1125 84.53333 80.675 85.14271Q80.12813 85.92396 80.12813 88.04896Z" fill-rule="nonzero"/><path fill="#000000" d="M150.32825 315.2L151.43762 315.10626Q151.56262 315.91876 152.00012 316.325Q152.45325 316.73126 153.09387 316.73126Q153.84387 316.73126 154.37512 316.15314Q154.90637 315.575 154.90637 314.6375Q154.90637 313.73126 154.39075 313.21564Q153.89075 312.6844 153.06262 312.6844Q152.56262 312.6844 152.14075 312.91876Q151.7345 313.15314 151.50012 313.5125L150.51575 313.3875L151.34387 308.98126L155.62512 308.98126L155.62512 309.98126L152.18762 309.98126L151.7345 312.29376Q152.50012 311.7469 153.34387 311.7469Q154.46887 311.7469 155.2345 312.52814Q156.01575 313.3094 156.01575 314.54376Q156.01575 315.7 155.34387 316.5594Q154.51575 317.59064 153.09387 317.59064Q151.922 317.59064 151.172 316.9344Q150.43762 316.27814 150.32825 315.2ZM157.32825 313.21564Q157.32825 311.6844 157.64075 310.7625Q157.95325 309.825 158.56262 309.325Q159.18762 308.825 160.12512 308.825Q160.81262 308.825 161.32825 309.10626Q161.8595 309.3875 162.20325 309.91876Q162.547 310.4344 162.7345 311.1844Q162.922 311.9344 162.922 313.21564Q162.922 314.73126 162.6095 315.65314Q162.31262 316.575 161.68762 317.09064Q161.07825 317.59064 160.12512 317.59064Q158.89075 317.59064 158.172 316.7Q157.32825 315.6375 157.32825 313.21564ZM158.40637 313.21564Q158.40637 315.325 158.90637 316.02814Q159.40637 316.73126 160.12512 316.73126Q160.8595 316.73126 161.34387 316.02814Q161.84387 315.325 161.84387 313.21564Q161.84387 311.09064 161.34387 310.40314Q160.8595 309.7 160.1095 309.7Q159.39075 309.7 158.95325 310.3094Q158.40637 311.09064 158.40637 313.21564ZM164.32825 313.21564Q164.32825 311.6844 164.64075 310.7625Q164.95325 309.825 165.56262 309.325Q166.18762 308.825 167.12512 308.825Q167.81262 308.825 168.32825 309.10626Q168.8595 309.3875 169.20325 309.91876Q169.547 310.4344 169.7345 311.1844Q169.922 311.9344 169.922 313.21564Q169.922 314.73126 169.6095 315.65314Q169.31262 316.575 168.68762 317.09064Q168.07825 317.59064 167.12512 317.59064Q165.89075 317.59064 165.172 316.7Q164.32825 315.6375 164.32825 313.21564ZM165.40637 313.21564Q165.40637 315.325 165.90637 316.02814Q166.40637 316.73126 167.12512 316.73126Q167.8595 316.73126 168.34387 316.02814Q168.84387 315.325 168.84387 313.21564Q168.84387 311.09064 168.34387 310.40314Q167.8595 309.7 167.1095 309.7Q166.39075 309.7 165.95325 310.3094Q165.40637 311.09064 165.40637 313.21564Z" fill-rule="nonzero"/><path fill="#000000" d="M262.43942 317.45L261.39255 317.45L261.39255 310.73126Q261.00192 311.09064 260.37692 311.46564Q259.76755 311.825 259.28317 311.9969L259.28317 310.98126Q260.15817 310.5594 260.81442 309.98126Q261.4863 309.3875 261.76755 308.825L262.43942 308.825L262.43942 317.45ZM265.47067 313.21564Q265.47067 311.6844 265.78317 310.7625Q266.09567 309.825 266.70505 309.325Q267.33005 308.825 268.26755 308.825Q268.95505 308.825 269.47067 309.10626Q270.00192 309.3875 270.34567 309.91876Q270.68942 310.4344 270.87692 311.1844Q271.06442 311.9344 271.06442 313.21564Q271.06442 314.73126 270.75192 315.65314Q270.45505 316.575 269.83005 317.09064Q269.22067 317.59064 268.26755 317.59064Q267.03317 317.59064 266.31442 316.7Q265.47067 315.6375 265.47067 313.21564ZM266.5488 313.21564Q266.5488 315.325 267.0488 316.02814Q267.5488 316.73126 268.26755 316.73126Q269.00192 316.73126 269.4863 316.02814Q269.9863 315.325 269.9863 313.21564Q269.9863 311.09064 269.4863 310.40314Q269.00192 309.7 268.25192 309.7Q267.53317 309.7 267.09567 310.3094Q266.5488 311.09064 266.5488 313.21564ZM272.47067 313.21564Q272.47067 311.6844 272.78317 310.7625Q273.09567 309.825 273.70505 309.325Q274.33005 308.825 275.26755 308.825Q275.95505 308.825 276.47067 309.10626Q277.00192 309.3875 277.34567 309.91876Q277.68942 310.4344 277.87692 311.1844Q278.06442 311.9344 278.06442 313.21564Q278.06442 314.73126 277.75192 315.65314Q277.45505 316.575 276.83005 317.09064Q276.22067 317.59064 275.26755 317.59064Q274.03317 317.59064 273.31442 316.7Q272.47067 315.6375 272.47067 313.21564ZM273.5488 313.21564Q273.5488 315.325 274.0488 316.02814Q274.5488 316.73126 275.26755 316.73126Q276.00192 316.73126 276.4863 316.02814Q276.9863 315.325 276.9863 313.21564Q276.9863 311.09064 276.4863 310.40314Q276.00192 309.7 275.25192 309.7Q274.53317 309.7 274.09567 310.3094Q273.5488 311.09064 273.5488 313.21564ZM279.47067 313.21564Q279.47067 311.6844 279.78317 310.7625Q280.09567 309.825 280.70505 309.325Q281.33005 308.825 282.26755 308.825Q282.95505 308.825 283.47067 309.10626Q284.00192 309.3875 284.34567 309.91876Q284.68942 310.4344 284.87692 311.1844Q285.06442 311.9344 285.06442 313.21564Q285.06442 314.73126 284.75192 315.65314Q284.45505 316.575 283.83005 317.09064Q283.22067 317.59064 282.26755 317.59064Q281.03317 317.59064 280.31442 316.7Q279.47067 315.6375 279.47067 313.21564ZM280.5488 313.21564Q280.5488 315.325 281.0488 316.02814Q281.5488 316.73126 282.26755 316.73126Q283.00192 316.73126 283.4863 316.02814Q283.9863 315.325 283.9863 313.21564Q283.9863 311.09064 283.4863 310.40314Q283.00192 309.7 282.25192 309.7Q281.53317 309.7 281.09567 310.3094Q280.5488 311.09064 280.5488 313.21564Z" fill-rule="nonzero"/><path fill="#000000" d="M374.08185 317.45L373.03497 317.45L373.03497 310.73126Q372.64435 311.09064 372.01935 311.46564Q371.40997 311.825 370.9256 311.9969L370.9256 310.98126Q371.8006 310.5594 372.45685 309.98126Q373.12872 309.3875 373.40997 308.825L374.08185 308.825L374.08185 317.45ZM377.1131 315.2L378.22247 315.10626Q378.34747 315.91876 378.78497 316.325Q379.2381 316.73126 379.87872 316.73126Q380.62872 316.73126 381.15997 316.15314Q381.69122 315.575 381.69122 314.6375Q381.69122 313.73126 381.1756 313.21564Q380.6756 312.6844 379.84747 312.6844Q379.34747 312.6844 378.9256 312.91876Q378.51935 313.15314 378.28497 313.5125L377.3006 313.3875L378.12872 308.98126L382.40997 308.98126L382.40997 309.98126L378.97247 309.98126L378.51935 312.29376Q379.28497 311.7469 380.12872 311.7469Q381.25372 311.7469 382.01935 312.52814Q382.8006 313.3094 382.8006 314.54376Q382.8006 315.7 382.12872 316.5594Q381.3006 317.59064 379.87872 317.59064Q378.70685 317.59064 377.95685 316.9344Q377.22247 316.27814 377.1131 315.2ZM384.1131 313.21564Q384.1131 311.6844 384.4256 310.7625Q384.7381 309.825 385.34747 309.325Q385.97247 308.825 386.90997 308.825Q387.59747 308.825 388.1131 309.10626Q388.64435 309.3875 388.9881 309.91876Q389.33185 310.4344 389.51935 311.1844Q389.70685 311.9344 389.70685 313.21564Q389.70685 314.73126 389.39435 315.65314Q389.09747 316.575 388.47247 317.09064Q387.8631 317.59064 386.90997 317.59064Q385.6756 317.59064 384.95685 316.7Q384.1131 315.6375 384.1131 313.21564ZM385.19122 313.21564Q385.19122 315.325 385.69122 316.02814Q386.19122 316.73126 386.90997 316.73126Q387.64435 316.73126 388.12872 316.02814Q388.62872 315.325 388.62872 313.21564Q388.62872 311.09064 388.12872 310.40314Q387.64435 309.7 386.89435 309.7Q386.1756 309.7 385.7381 310.3094Q385.19122 311.09064 385.19122 313.21564ZM391.1131 313.21564Q391.1131 311.6844 391.4256 310.7625Q391.7381 309.825 392.34747 309.325Q392.97247 308.825 393.90997 308.825Q394.59747 308.825 395.1131 309.10626Q395.64435 309.3875 395.9881 309.91876Q396.33185 310.4344 396.51935 311.1844Q396.70685 311.9344 396.70685 313.21564Q396.70685 314.73126 396.39435 315.65314Q396.09747 316.575 395.47247 317.09064Q394.8631 317.59064 393.90997 317.59064Q392.6756 317.59064 391.95685 316.7Q391.1131 315.6375 391.1131 313.21564ZM392.19122 313.21564Q392.19122 315.325 392.69122 316.02814Q393.19122 316.73126 393.90997 316.73126Q394.64435 316.73126 395.12872 316.02814Q395.62872 315.325 395.62872 313.21564Q395.62872 311.09064 395.12872 310.40314Q394.64435 309.7 393.89435 309.7Q393.1756 309.7 392.7381 310.3094Q392.19122 311.09064 392.19122 313.21564Z" fill-rule="nonzero"/><path fill="#000000" d="M487.3024 316.4344L487.3024 317.45L481.6149 317.45Q481.6149 317.075 481.7399 316.71564Q481.95865 316.1375 482.4274 315.575Q482.91177 315.0125 483.81802 314.27814Q485.22427 313.1219 485.70865 312.45Q486.20865 311.77814 486.20865 311.1844Q486.20865 310.5594 485.75552 310.1375Q485.3024 309.7 484.58365 309.7Q483.81802 309.7 483.3649 310.15314Q482.91177 310.60626 482.89615 311.41876L481.81802 311.3094Q481.9274 310.09064 482.64615 309.46564Q483.38052 308.825 484.6149 308.825Q485.84927 308.825 486.56802 309.5125Q487.28677 310.2 487.28677 311.21564Q487.28677 311.73126 487.06802 312.23126Q486.8649 312.71564 486.3649 313.27814Q485.88052 313.825 484.75552 314.77814Q483.8024 315.575 483.52115 315.8719Q483.25552 316.15314 483.08365 316.4344L487.3024 316.4344ZM488.75552 313.21564Q488.75552 311.6844 489.06802 310.7625Q489.38052 309.825 489.9899 309.325Q490.6149 308.825 491.5524 308.825Q492.2399 308.825 492.75552 309.10626Q493.28677 309.3875 493.63052 309.91876Q493.97427 310.4344 494.16177 311.1844Q494.34927 311.9344 494.34927 313.21564Q494.34927 314.73126 494.03677 315.65314Q493.7399 316.575 493.1149 317.09064Q492.50552 317.59064 491.5524 317.59064Q490.31802 317.59064 489.59927 316.7Q488.75552 315.6375 488.75552 313.21564ZM489.83365 313.21564Q489.83365 315.325 490.33365 316.02814Q490.83365 316.73126 491.5524 316.73126Q492.28677 316.73126 492.77115 316.02814Q493.27115 315.325 493.27115 313.21564Q493.27115 311.09064 492.77115 310.40314Q492.28677 309.7 491.53677 309.7Q490.81802 309.7 490.38052 310.3094Q489.83365 311.09064 489.83365 313.21564ZM495.75552 313.21564Q495.75552 311.6844 496.06802 310.7625Q496.38052 309.825 496.9899 309.325Q497.6149 308.825 498.5524 308.825Q499.2399 308.825 499.75552 309.10626Q500.28677 309.3875 500.63052 309.91876Q500.97427 310.4344 501.16177 311.1844Q501.34927 311.9344 501.34927 313.21564Q501.34927 314.73126 501.03677 315.65314Q500.7399 316.575 500.1149 317.09064Q499.50552 317.59064 498.5524 317.59064Q497.31802 317.59064 496.59927 316.7Q495.75552 315.6375 495.75552 313.21564ZM496.83365 313.21564Q496.83365 315.325 497.33365 316.02814Q497.83365 316.73126 498.5524 316.73126Q499.28677 316.73126 499.77115 316.02814Q500.27115 315.325 500.27115 313.21564Q500.27115 311.09064 499.77115 310.40314Q499.28677 309.7 498.53677 309.7Q497.81802 309.7 497.38052 310.3094Q496.83365 311.09064 496.83365 313.21564ZM502.75552 313.21564Q502.75552 311.6844 503.06802 310.7625Q503.38052 309.825 503.9899 309.325Q504.6149 308.825 505.5524 308.825Q506.2399 308.825 506.75552 309.10626Q507.28677 309.3875 507.63052 309.91876Q507.97427 310.4344 508.16177 311.1844Q508.34927 311.9344 508.34927 313.21564Q508.34927 314.73126 508.03677 315.65314Q507.7399 316.575 507.1149 317.09064Q506.50552 317.59064 505.5524 317.59064Q504.31802 317.59064 503.59927 316.7Q502.75552 315.6375 502.75552 313.21564ZM503.83365 313.21564Q503.83365 315.325 504.33365 316.02814Q504.83365 316.73126 505.5524 316.73126Q506.28677 316.73126 506.77115 316.02814Q507.27115 315.325 507.27115 313.21564Q507.27115 311.09064 506.77115 310.40314Q506.28677 309.7 505.53677 309.7Q504.81802 309.7 504.38052 310.3094Q503.83365 311.09064 503.83365 313.21564Z" fill-rule="nonzero"/><path fill="#4285f4" d="M218.5 61.916668C218.5 65.23038 215.8137 67.916664 212.5 67.916664C209.1863 67.916664 206.5 65.23038 206.5 61.916668C206.5 58.60296 209.1863 55.916668 212.5 55.916668C215.8137 55.916668 218.5 58.60296 218.5 61.916668Z" fill-rule="nonzero"/><path fill="#1a1a1a" d="M227.09375 66.43229L228.125 66.58854Q228.1875 67.05729 228.48438 67.27604Q228.875 67.572914 229.54688 67.572914Q230.28125 67.572914 230.67188 67.27604Q231.07812 66.979164 231.21875 66.46354Q231.3125 66.135414 231.29688 65.104164Q230.60938 65.916664 229.57812 65.916664Q228.29688 65.916664 227.59375 64.99479Q226.89062 64.05729 226.89062 62.77604Q226.89062 61.885414 227.20312 61.135414Q227.53125 60.36979 228.14062 59.96354Q228.75 59.55729 229.57812 59.55729Q230.6875 59.55729 231.40625 60.447914L231.40625 59.697914L232.375 59.697914L232.375 65.072914Q232.375 66.52604 232.07812 67.135414Q231.78125 67.74479 231.14062 68.08854Q230.5 68.447914 229.5625 68.447914Q228.45312 68.447914 227.76562 67.947914Q227.07812 67.447914 227.09375 66.43229ZM227.96875 62.697914Q227.96875 63.916664 228.45312 64.479164Q228.9375 65.041664 229.67188 65.041664Q230.40625 65.041664 230.89062 64.479164Q231.39062 63.916664 231.39062 62.729164Q231.39062 61.58854 230.875 61.010414Q230.375 60.43229 229.65625 60.43229Q228.95312 60.43229 228.45312 61.010414Q227.96875 61.572914 227.96875 62.697914ZM234.28125 65.916664L234.28125 59.697914L235.23438 59.697914L235.23438 60.635414Q235.59375 59.979164 235.89062 59.77604Q236.20312 59.55729 236.57812 59.55729Q237.10938 59.55729 237.65625 59.885414L237.29688 60.86979Q236.90625 60.635414 236.53125 60.635414Q236.17188 60.635414 235.89062 60.854164Q235.625 61.05729 235.51562 61.43229Q235.32812 61.99479 235.32812 62.65104L235.32812 65.916664L234.28125 65.916664ZM242.54688 63.916664L243.64062 64.041664Q243.39062 64.99479 242.6875 65.52604Q241.98438 66.05729 240.90625 66.05729Q239.54688 66.05729 238.73438 65.21354Q237.9375 64.36979 237.9375 62.854164Q237.9375 61.291664 238.75 60.43229Q239.5625 59.55729 240.84375 59.55729Q242.09375 59.55729 242.875 60.40104Q243.67188 61.24479 243.67188 62.791664Q243.67188 62.885414 243.67188 63.072914L239.03125 63.072914Q239.09375 64.104164 239.60938 64.65104Q240.125 65.18229 240.90625 65.18229Q241.48438 65.18229 241.89062 64.885414Q242.3125 64.572914 242.54688 63.916664ZM239.09375 62.21354L242.5625 62.21354Q242.5 61.416664 242.17188 61.02604Q241.65625 60.416664 240.85938 60.416664Q240.125 60.416664 239.625 60.90104Q239.14062 61.385414 239.09375 62.21354ZM249.54688 63.916664L250.64062 64.041664Q250.39062 64.99479 249.6875 65.52604Q248.98438 66.05729 247.90625 66.05729Q246.54688 66.05729 245.73438 65.21354Q244.9375 64.36979 244.9375 62.854164Q244.9375 61.291664 245.75 60.43229Q246.5625 59.55729 247.84375 59.55729Q249.09375 59.55729 249.875 60.40104Q250.67188 61.24479 250.67188 62.791664Q250.67188 62.885414 250.67188 63.072914L246.03125 63.072914Q246.09375 64.104164 246.60938 64.65104Q247.125 65.18229 247.90625 65.18229Q248.48438 65.18229 248.89062 64.885414Q249.3125 64.572914 249.54688 63.916664ZM246.09375 62.21354L249.5625 62.21354Q249.5 61.416664 249.17188 61.02604Q248.65625 60.416664 247.85938 60.416664Q247.125 60.416664 246.625 60.90104Q246.14062 61.385414 246.09375 62.21354ZM256.32812 65.916664L256.32812 65.135414Q255.73438 66.05729 254.59375 66.05729Q253.84375 66.05729 253.21875 65.65104Q252.59375 65.229164 252.25 64.49479Q251.90625 63.760414 251.90625 62.80729Q251.90625 61.885414 252.21875 61.11979Q252.53125 60.354164 253.15625 59.96354Q253.78125 59.55729 254.54688 59.55729Q255.10938 59.55729 255.54688 59.791664Q255.98438 60.02604 256.26562 60.40104L256.26562 57.322914L257.3125 57.322914L257.3125 65.916664L256.32812 65.916664ZM253.0 62.80729Q253.0 64.010414 253.5 64.604164Q254.0 65.18229 254.6875 65.18229Q255.375 65.18229 255.85938 64.61979Q256.34375 64.05729 256.34375 62.90104Q256.34375 61.61979 255.84375 61.02604Q255.35938 60.43229 254.64062 60.43229Q253.9375 60.43229 253.46875 61.010414Q253.0 61.572914 253.0 62.80729ZM259.25 68.30729L259.125 67.322914Q259.46875 67.416664 259.73438 67.416664Q260.07812 67.416664 260.28125 67.291664Q260.5 67.18229 260.64062 66.979164Q260.73438 66.80729 260.96875 66.18229Q260.98438 66.104164 261.0625 65.93229L258.6875 59.697914L259.82812 59.697914L261.125 63.291664Q261.375 63.979164 261.57812 64.74479Q261.76562 64.010414 262.01562 63.322914L263.34375 59.697914L264.39062 59.697914L262.03125 66.02604Q261.64062 67.041664 261.4375 67.43229Q261.15625 67.96354 260.78125 68.197914Q260.42188 68.447914 259.92188 68.447914Q259.625 68.447914 259.25 68.30729Z" fill-rule="nonzero"/><path fill="#ea4335" d="M291.5 61.916668C291.5 65.23038 288.81372 67.916664 285.5 67.916664C282.18628 67.916664 279.5 65.23038 279.5 61.916668C279.5 58.60296 282.18628 55.916668 285.5 55.916668C288.81372 55.916668 291.5 58.60296 291.5 61.916668Z" fill-rule="nonzero"/><path fill="#1a1a1a" d="M302.875 65.916664L299.54688 57.322914L300.78125 57.322914L303.01562 63.572914Q303.28125 64.322914 303.46875 64.979164Q303.67188 64.27604 303.9375 63.572914L306.25 57.322914L307.40625 57.322914L304.04688 65.916664L302.875 65.916664ZM307.42188 65.916664L307.42188 57.322914L308.57812 57.322914L313.09375 64.072914L313.09375 57.322914L314.1875 57.322914L314.1875 65.916664L313.01562 65.916664L308.5 59.166664L308.5 65.916664L307.42188 65.916664ZM316.04688 63.15104L317.10938 63.05729Q317.1875 63.71354 317.46875 64.11979Q317.75 64.52604 318.32812 64.791664Q318.92188 65.041664 319.65625 65.041664Q320.29688 65.041664 320.79688 64.854164Q321.29688 64.65104 321.53125 64.322914Q321.78125 63.979164 321.78125 63.58854Q321.78125 63.18229 321.54688 62.885414Q321.3125 62.572914 320.78125 62.36979Q320.42188 62.229164 319.23438 61.947914Q318.0625 61.666664 317.59375 61.416664Q316.96875 61.08854 316.67188 60.61979Q316.375 60.135414 316.375 59.541664Q316.375 58.90104 316.73438 58.33854Q317.10938 57.760414 317.8125 57.479164Q318.53125 57.18229 319.39062 57.18229Q320.34375 57.18229 321.07812 57.49479Q321.8125 57.791664 322.20312 58.40104Q322.59375 58.99479 322.625 59.74479L321.53125 59.822914Q321.4375 59.010414 320.92188 58.604164Q320.42188 58.18229 319.4375 58.18229Q318.40625 58.18229 317.9375 58.55729Q317.46875 58.93229 317.46875 59.46354Q317.46875 59.93229 317.79688 60.229164Q318.125 60.52604 319.5 60.83854Q320.89062 61.15104 321.40625 61.385414Q322.15625 61.74479 322.51562 62.27604Q322.875 62.791664 322.875 63.49479Q322.875 64.18229 322.48438 64.791664Q322.09375 65.385414 321.35938 65.729164Q320.625 66.05729 319.70312 66.05729Q318.53125 66.05729 317.73438 65.729164Q316.95312 65.385414 316.5 64.697914Q316.0625 64.010414 316.04688 63.15104Z" fill-rule="nonzero"/><path fill="#fbbc04" d="M351.5 61.916668C351.5 65.23038 348.81372 67.916664 345.5 67.916664C342.18628 67.916664 339.5 65.23038 339.5 61.916668C339.5 58.60296 342.18628 55.916668 345.5 55.916668C348.81372 55.916668 351.5 58.60296 351.5 61.916668Z" fill-rule="nonzero"/><path fill="#1a1a1a" d="M360.42188 65.916664L360.42188 57.322914L363.67188 57.322914Q364.51562 57.322914 364.96875 57.40104Q365.60938 57.510414 366.03125 57.80729Q366.46875 58.104164 366.71875 58.635414Q366.98438 59.166664 366.98438 59.80729Q366.98438 60.90104 366.28125 61.666664Q365.59375 62.416664 363.76562 62.416664L361.5625 62.416664L361.5625 65.916664L360.42188 65.916664ZM361.5625 61.416664L363.78125 61.416664Q364.89062 61.416664 365.34375 61.010414Q365.8125 60.58854 365.8125 59.83854Q365.8125 59.30729 365.53125 58.93229Q365.26562 58.541664 364.82812 58.416664Q364.53125 58.33854 363.76562 58.33854L361.5625 58.33854L361.5625 61.416664ZM368.04688 63.15104L369.10938 63.05729Q369.1875 63.71354 369.46875 64.11979Q369.75 64.52604 370.32812 64.791664Q370.92188 65.041664 371.65625 65.041664Q372.29688 65.041664 372.79688 64.854164Q373.29688 64.65104 373.53125 64.322914Q373.78125 63.979164 373.78125 63.58854Q373.78125 63.18229 373.54688 62.885414Q373.3125 62.572914 372.78125 62.36979Q372.42188 62.229164 371.23438 61.947914Q370.0625 61.666664 369.59375 61.416664Q368.96875 61.08854 368.67188 60.61979Q368.375 60.135414 368.375 59.541664Q368.375 58.90104 368.73438 58.33854Q369.10938 57.760414 369.8125 57.479164Q370.53125 57.18229 371.39062 57.18229Q372.34375 57.18229 373.07812 57.49479Q373.8125 57.791664 374.20312 58.40104Q374.59375 58.99479 374.625 59.74479L373.53125 59.822914Q373.4375 59.010414 372.92188 58.604164Q372.42188 58.18229 371.4375 58.18229Q370.40625 58.18229 369.9375 58.55729Q369.46875 58.93229 369.46875 59.46354Q369.46875 59.93229 369.79688 60.229164Q370.125 60.52604 371.5 60.83854Q372.89062 61.15104 373.40625 61.385414Q374.15625 61.74479 374.51562 62.27604Q374.875 62.791664 374.875 63.49479Q374.875 64.18229 374.48438 64.791664Q374.09375 65.385414 373.35938 65.729164Q372.625 66.05729 371.70312 66.05729Q370.53125 66.05729 369.73438 65.729164Q368.95312 65.385414 368.5 64.697914Q368.0625 64.010414 368.04688 63.15104ZM376.07812 61.729164Q376.07812 59.58854 377.21875 58.385414Q378.375 57.166664 380.1875 57.166664Q381.39062 57.166664 382.34375 57.74479Q383.29688 58.30729 383.79688 59.322914Q384.29688 60.33854 384.29688 61.635414Q384.29688 62.93229 383.76562 63.96354Q383.23438 64.99479 382.26562 65.52604Q381.3125 66.05729 380.1875 66.05729Q378.96875 66.05729 378.01562 65.479164Q377.0625 64.885414 376.5625 63.885414Q376.07812 62.86979 376.07812 61.729164ZM377.25 61.74479Q377.25 63.30729 378.07812 64.197914Q378.92188 65.08854 380.1875 65.08854Q381.46875 65.08854 382.29688 64.197914Q383.125 63.291664 383.125 61.61979Q383.125 60.572914 382.76562 59.791664Q382.42188 59.010414 381.73438 58.58854Q381.04688 58.15104 380.20312 58.15104Q379.0 58.15104 378.125 58.979164Q377.25 59.80729 377.25 61.74479ZM385.42188 65.916664L385.42188 57.322914L388.39062 57.322914Q389.39062 57.322914 389.92188 57.447914Q390.65625 57.61979 391.17188 58.05729Q391.85938 58.635414 392.1875 59.541664Q392.53125 60.43229 392.53125 61.572914Q392.53125 62.55729 392.29688 63.30729Q392.07812 64.05729 391.71875 64.55729Q391.35938 65.05729 390.92188 65.33854Q390.5 65.61979 389.90625 65.77604Q389.3125 65.916664 388.53125 65.916664L385.42188 65.916664ZM386.5625 64.90104L388.39062 64.90104Q389.25 64.90104 389.73438 64.74479Q390.21875 64.58854 390.5 64.291664Q390.90625 63.90104 391.125 63.21354Q391.35938 62.52604 391.35938 61.55729Q391.35938 60.21354 390.90625 59.49479Q390.46875 58.760414 389.84375 58.510414Q389.375 58.33854 388.375 58.33854L386.5625 58.33854L386.5625 64.90104Z" fill-rule="nonzero"/><path fill="#757575" d="M20.190624 37.55L20.190624 23.2375L29.846874 23.2375L29.846874 24.925L22.08125 24.925L22.08125 29.3625L28.8 29.3625L28.8 31.05L22.08125 31.05L22.08125 37.55L20.190624 37.55ZM31.221874 32.3625Q31.221874 29.4875 32.815624 28.096874Q34.159374 26.940624 36.08125 26.940624Q38.221874 26.940624 39.565624 28.346874Q40.925 29.753124 40.925 32.221874Q40.925 34.221874 40.33125 35.378124Q39.7375 36.51875 38.58125 37.159374Q37.440624 37.784374 36.08125 37.784374Q33.89375 37.784374 32.55 36.39375Q31.221874 34.9875 31.221874 32.3625ZM33.01875 32.3625Q33.01875 34.3625 33.878124 35.346874Q34.753124 36.33125 36.08125 36.33125Q37.39375 36.33125 38.253124 35.346874Q39.128124 34.346874 39.128124 32.3Q39.128124 30.378124 38.253124 29.39375Q37.378124 28.39375 36.08125 28.39375Q34.753124 28.39375 33.878124 29.39375Q33.01875 30.378124 33.01875 32.3625ZM42.846874 37.55L42.846874 27.175L44.425 27.175L44.425 28.753124Q45.034374 27.64375 45.55 27.3Q46.065624 26.940624 46.675 26.940624Q47.565624 26.940624 48.4875 27.503124L47.878124 29.14375Q47.2375 28.753124 46.596874 28.753124Q46.01875 28.753124 45.55 29.1125Q45.096874 29.45625 44.89375 30.065624Q44.6125 31.003124 44.6125 32.1125L44.6125 37.55L42.846874 37.55ZM56.971874 34.20625L58.784374 34.440624Q58.3625 36.01875 57.190624 36.909374Q56.034374 37.784374 54.221874 37.784374Q51.95625 37.784374 50.6125 36.39375Q49.284374 34.9875 49.284374 32.45625Q49.284374 29.83125 50.628124 28.39375Q51.971874 26.940624 54.128124 26.940624Q56.20625 26.940624 57.51875 28.3625Q58.846874 29.76875 58.846874 32.346874Q58.846874 32.503124 58.83125 32.815624L51.096874 32.815624Q51.190624 34.51875 52.065624 35.425Q52.940624 36.33125 54.2375 36.33125Q55.20625 36.33125 55.878124 35.83125Q56.565624 35.315624 56.971874 34.20625ZM51.190624 31.3625L56.9875 31.3625Q56.878124 30.065624 56.33125 29.409374Q55.4875 28.39375 54.14375 28.39375Q52.940624 28.39375 52.1125 29.20625Q51.284374 30.003124 51.190624 31.3625ZM60.159374 34.45625L61.909374 34.175Q62.05 35.221874 62.721874 35.784374Q63.39375 36.33125 64.59688 36.33125Q65.8 36.33125 66.37813 35.846874Q66.97188 35.346874 66.97188 34.690624Q66.97188 34.096874 66.45625 33.753124Q66.09688 33.51875 64.65938 33.159374Q62.721874 32.659374 61.971874 32.315624Q61.2375 31.95625 60.846874 31.33125Q60.45625 30.690624 60.45625 29.925Q60.45625 29.2375 60.76875 28.64375Q61.096874 28.05 61.64375 27.659374Q62.05 27.3625 62.753124 27.159374Q63.471874 26.940624 64.28438 26.940624Q65.50313 26.940624 66.425 27.3Q67.34688 27.64375 67.78438 28.253124Q68.22188 28.846874 68.39375 29.846874L66.675 30.08125Q66.55 29.284374 65.9875 28.846874Q65.425 28.39375 64.40938 28.39375Q63.190624 28.39375 62.675 28.8Q62.159374 29.190624 62.159374 29.721874Q62.159374 30.065624 62.378124 30.346874Q62.58125 30.628124 63.05 30.815624Q63.315624 30.909374 64.59688 31.253124Q66.47188 31.753124 67.20625 32.08125Q67.94063 32.39375 68.3625 33.003124Q68.78438 33.596874 68.78438 34.503124Q68.78438 35.378124 68.26875 36.159374Q67.75313 36.940624 66.78438 37.3625Q65.81563 37.784374 64.59688 37.784374Q62.58125 37.784374 61.51875 36.940624Q60.45625 36.096874 60.159374 34.45625ZM74.70625 35.971874L74.95625 37.534374Q74.22188 37.690624 73.62813 37.690624Q72.675 37.690624 72.14375 37.39375Q71.62813 37.08125 71.40938 36.596874Q71.19063 36.096874 71.19063 34.51875L71.19063 28.55L69.90938 28.55L69.90938 27.175L71.19063 27.175L71.19063 24.6125L72.94063 23.55L72.94063 27.175L74.70625 27.175L74.70625 28.55L72.94063 28.55L72.94063 34.6125Q72.94063 35.3625 73.03438 35.58125Q73.12813 35.784374 73.33125 35.925Q73.55 36.05 73.94063 36.05Q74.22188 36.05 74.70625 35.971874ZM83.19063 37.55L83.19063 23.2375L92.84688 23.2375L92.84688 24.925L85.08125 24.925L85.08125 29.3625L91.8 29.3625L91.8 31.05L85.08125 31.05L85.08125 37.55L83.19063 37.55ZM94.87813 25.253124L94.87813 23.2375L96.64375 23.2375L96.64375 25.253124L94.87813 25.253124ZM94.87813 37.55L94.87813 27.175L96.64375 27.175L96.64375 37.55L94.87813 37.55ZM98.84688 37.55L98.84688 27.175L100.425 27.175L100.425 28.753124Q101.03438 27.64375 101.55 27.3Q102.06563 26.940624 102.675 26.940624Q103.56563 26.940624 104.4875 27.503124L103.87813 29.14375Q103.2375 28.753124 102.59688 28.753124Q102.01875 28.753124 101.55 29.1125Q101.09688 29.45625 100.89375 30.065624Q100.6125 31.003124 100.6125 32.1125L100.6125 37.55L98.84688 37.55ZM112.97188 34.20625L114.78438 34.440624Q114.3625 36.01875 113.19063 36.909374Q112.03438 37.784374 110.22188 37.784374Q107.95625 37.784374 106.6125 36.39375Q105.28438 34.9875 105.28438 32.45625Q105.28438 29.83125 106.62813 28.39375Q107.97188 26.940624 110.12813 26.940624Q112.20625 26.940624 113.51875 28.3625Q114.84688 29.76875 114.84688 32.346874Q114.84688 32.503124 114.83125 32.815624L107.09688 32.815624Q107.19063 34.51875 108.06563 35.425Q108.94063 36.33125 110.2375 36.33125Q111.20625 36.33125 111.87813 35.83125Q112.56563 35.315624 112.97188 34.20625ZM107.19063 31.3625L112.9875 31.3625Q112.87813 30.065624 112.33125 29.409374Q111.4875 28.39375 110.14375 28.39375Q108.94063 28.39375 108.1125 29.20625Q107.28438 30.003124 107.19063 31.3625Z" fill-rule="nonzero"/></svg>