<svg version="1.1" viewBox="0.0 0.0 600.0 371.0" fill="none" stroke="none" stroke-linecap="square" stroke-miterlimit="10" width="600" height="371" xmlns:xlink="http://www.w3.org/1999/xlink" xmlns="http://www.w3.org/2000/svg"><path fill="#ffffff" d="M0 0L600.0 0L600.0 371.0L0 371.0L0 0Z" fill-rule="nonzero"/><path stroke="#cccccc" stroke-width="1.0" stroke-linecap="butt" d="M108.5 88.5L108.5 300.5" fill-rule="nonzero"/><path stroke="#cccccc" stroke-width="1.0" stroke-linecap="butt" d="M200.5 88.5L200.5 300.5" fill-rule="nonzero"/><path stroke="#cccccc" stroke-width="1.0" stroke-linecap="butt" d="M293.5 88.5L293.5 300.5" fill-rule="nonzero"/><path stroke="#cccccc" stroke-width="1.0" stroke-linecap="butt" d="M386.5 88.5L386.5 300.5" fill-rule="nonzero"/><path stroke="#cccccc" stroke-width="1.0" stroke-linecap="butt" d="M479.5 88.5L479.5 300.5" fill-rule="nonzero"/><path stroke="#cccccc" stroke-width="1.0" stroke-linecap="butt" d="M571.5 88.5L571.5 300.5" fill-rule="nonzero"/><path stroke="#333333" stroke-width="1.0" stroke-linecap="butt" d="M98.5 300.5L581.5 300.5" fill-rule="nonzero"/><path stroke="#cccccc" stroke-width="1.0" stroke-linecap="butt" d="M98.5 247.5L581.5 247.5" fill-rule="nonzero"/><path stroke="#cccccc" stroke-width="1.0" stroke-linecap="butt" d="M98.5 194.5L581.5 194.5" fill-rule="nonzero"/><path stroke="#cccccc" stroke-width="1.0" stroke-linecap="butt" d="M98.5 141.5L581.5 141.5" fill-rule="nonzero"/><path stroke="#cccccc" stroke-width="1.0" stroke-linecap="butt" d="M98.5 88.5L581.5 88.5" fill-rule="nonzero"/><clipPath id="id_0"><path d="M98.55 88.28333L581.45 88.28333L581.45 300.45L98.55 300.45L98.55 88.28333Z" clip-rule="nonzero"/></clipPath><path stroke="#a2c3fa" stroke-width="1.0" stroke-linecap="butt" clip-path="url(#id_0)" d="M108.152306 300.2522L108.152306 300.2522" fill-rule="nonzero"/><path stroke="#a2c3fa" stroke-width="1.0" stroke-linecap="butt" clip-path="url(#id_0)" d="M102.152306 300.2522L114.152306 300.2522" fill-rule="nonzero"/><path stroke="#a2c3fa" stroke-width="1.0" stroke-linecap="butt" clip-path="url(#id_0)" d="M102.152306 300.2522L114.152306 300.2522" fill-rule="nonzero"/><path stroke="#a2c3fa" stroke-width="1.0" stroke-linecap="butt" clip-path="url(#id_0)" d="M200.89139 299.0316L200.89139 299.0316" fill-rule="nonzero"/><path stroke="#a2c3fa" stroke-width="1.0" stroke-linecap="butt" clip-path="url(#id_0)" d="M194.89139 299.0316L206.89139 299.0316" fill-rule="nonzero"/><path stroke="#a2c3fa" stroke-width="1.0" stroke-linecap="butt" clip-path="url(#id_0)" d="M194.89139 299.0316L206.89139 299.0316" fill-rule="nonzero"/><path stroke="#a2c3fa" stroke-width="1.0" stroke-linecap="butt" clip-path="url(#id_0)" d="M386.36954 280.5567L386.36954 280.5567" fill-rule="nonzero"/><path stroke="#a2c3fa" stroke-width="1.0" stroke-linecap="butt" clip-path="url(#id_0)" d="M380.36954 280.5567L392.36954 280.5567" fill-rule="nonzero"/><path stroke="#a2c3fa" stroke-width="1.0" stroke-linecap="butt" clip-path="url(#id_0)" d="M380.36954 280.5567L392.36954 280.5567" fill-rule="nonzero"/><path stroke="#a2c3fa" stroke-width="1.0" stroke-linecap="butt" clip-path="url(#id_0)" d="M571.8477 240.65724L571.8477 240.65724" fill-rule="nonzero"/><path stroke="#a2c3fa" stroke-width="1.0" stroke-linecap="butt" clip-path="url(#id_0)" d="M565.8477 240.65724L577.8477 240.65724" fill-rule="nonzero"/><path stroke="#a2c3fa" stroke-width="1.0" stroke-linecap="butt" clip-path="url(#id_0)" d="M565.8477 240.65724L577.8477 240.65724" fill-rule="nonzero"/><path stroke="#f49c94" stroke-width="1.0" stroke-linecap="butt" clip-path="url(#id_0)" d="M108.152306 293.83685L108.152306 293.83685" fill-rule="nonzero"/><path stroke="#f49c94" stroke-width="1.0" stroke-linecap="butt" clip-path="url(#id_0)" d="M102.152306 293.83685L114.152306 293.83685" fill-rule="nonzero"/><path stroke="#f49c94" stroke-width="1.0" stroke-linecap="butt" clip-path="url(#id_0)" d="M102.152306 293.83685L114.152306 293.83685" fill-rule="nonzero"/><path stroke="#f49c94" stroke-width="1.0" stroke-linecap="butt" clip-path="url(#id_0)" d="M200.89139 241.39201L200.89139 241.39201" fill-rule="nonzero"/><path stroke="#f49c94" stroke-width="1.0" stroke-linecap="butt" clip-path="url(#id_0)" d="M194.89139 241.39201L206.89139 241.39201" fill-rule="nonzero"/><path stroke="#f49c94" stroke-width="1.0" stroke-linecap="butt" clip-path="url(#id_0)" d="M194.89139 241.39201L206.89139 241.39201" fill-rule="nonzero"/><path stroke="#f49c94" stroke-width="1.0" stroke-linecap="butt" clip-path="url(#id_0)" d="M386.36954 258.72253L386.36954 258.72253" fill-rule="nonzero"/><path stroke="#f49c94" stroke-width="1.0" stroke-linecap="butt" clip-path="url(#id_0)" d="M380.36954 258.72253L392.36954 258.72253" fill-rule="nonzero"/><path stroke="#f49c94" stroke-width="1.0" stroke-linecap="butt" clip-path="url(#id_0)" d="M380.36954 258.72253L392.36954 258.72253" fill-rule="nonzero"/><path stroke="#f49c94" stroke-width="1.0" stroke-linecap="butt" clip-path="url(#id_0)" d="M571.8477 219.82251L571.8477 219.82251" fill-rule="nonzero"/><path stroke="#f49c94" stroke-width="1.0" stroke-linecap="butt" clip-path="url(#id_0)" d="M565.8477 219.82251L577.8477 219.82251" fill-rule="nonzero"/><path stroke="#f49c94" stroke-width="1.0" stroke-linecap="butt" clip-path="url(#id_0)" d="M565.8477 219.82251L577.8477 219.82251" fill-rule="nonzero"/><path stroke="#a27903" stroke-width="1.0" stroke-linecap="butt" clip-path="url(#id_0)" d="M108.152306 124.755806L108.152306 124.755806" fill-rule="nonzero"/><path stroke="#a27903" stroke-width="1.0" stroke-linecap="butt" clip-path="url(#id_0)" d="M102.152306 124.755806L114.152306 124.755806" fill-rule="nonzero"/><path stroke="#a27903" stroke-width="1.0" stroke-linecap="butt" clip-path="url(#id_0)" d="M102.152306 124.755806L114.152306 124.755806" fill-rule="nonzero"/><path stroke="#a27903" stroke-width="1.0" stroke-linecap="butt" clip-path="url(#id_0)" d="M200.89139 294.12372L200.89139 294.12372" fill-rule="nonzero"/><path stroke="#a27903" stroke-width="1.0" stroke-linecap="butt" clip-path="url(#id_0)" d="M194.89139 294.12372L206.89139 294.12372" fill-rule="nonzero"/><path stroke="#a27903" stroke-width="1.0" stroke-linecap="butt" clip-path="url(#id_0)" d="M194.89139 294.12372L206.89139 294.12372" fill-rule="nonzero"/><path stroke="#a27903" stroke-width="1.0" stroke-linecap="butt" clip-path="url(#id_0)" d="M386.36954 124.72689L386.36954 124.72689" fill-rule="nonzero"/><path stroke="#a27903" stroke-width="1.0" stroke-linecap="butt" clip-path="url(#id_0)" d="M380.36954 124.72689L392.36954 124.72689" fill-rule="nonzero"/><path stroke="#a27903" stroke-width="1.0" stroke-linecap="butt" clip-path="url(#id_0)" d="M380.36954 124.72689L392.36954 124.72689" fill-rule="nonzero"/><path stroke="#a27903" stroke-width="1.0" stroke-linecap="butt" clip-path="url(#id_0)" d="M571.8477 124.76674L571.8477 124.76674" fill-rule="nonzero"/><path stroke="#a27903" stroke-width="1.0" stroke-linecap="butt" clip-path="url(#id_0)" d="M565.8477 124.76674L577.8477 124.76674" fill-rule="nonzero"/><path stroke="#a27903" stroke-width="1.0" stroke-linecap="butt" clip-path="url(#id_0)" d="M565.8477 124.76674L577.8477 124.76674" fill-rule="nonzero"/><path stroke="#4285f4" stroke-width="4.0" stroke-linecap="butt" stroke-dasharray="26.0,12.0" clip-path="url(#id_0)" d="M108.152306 300.2522C108.152306 300.2522 169.97836 300.7746 200.89139 299.0316C231.80441 297.28857 324.5435 290.28577 386.36954 280.5567C448.1956 270.82764 571.8477 240.65724 571.8477 240.65724" fill-rule="nonzero"/><path stroke="#ea4335" stroke-width="4.0" stroke-linecap="butt" stroke-dasharray="4.0,5.0" clip-path="url(#id_0)" d="M108.152306 293.83685C108.152306 293.83685 169.97836 248.68861 200.89139 241.39201C231.80441 234.09541 324.5435 262.31744 386.36954 258.72253C448.1956 255.12761 571.8477 219.82251 571.8477 219.82251" fill-rule="nonzero"/><path stroke="#fbbc04" stroke-width="4.0" stroke-linecap="butt" clip-path="url(#id_0)" d="M108.152306 124.755806C108.152306 124.755806 169.97836 280.01215 200.89139 294.12372C231.80441 308.2353 324.5435 152.95305 386.36954 124.72689C448.1956 96.50073 571.8477 124.76674 571.8477 124.76674" fill-rule="nonzero"/><path fill="#4285f4" clip-path="url(#id_0)" d="M114.152306 300.2522C114.152306 303.56592 111.46602 306.2522 108.152306 306.2522C104.8386 306.2522 102.152306 303.56592 102.152306 300.2522C102.152306 296.9385 104.8386 294.2522 108.152306 294.2522C111.46602 294.2522 114.152306 296.9385 114.152306 300.2522Z" fill-rule="nonzero"/><path fill="#4285f4" clip-path="url(#id_0)" d="M206.89139 299.0316C206.89139 302.3453 204.2051 305.0316 200.89139 305.0316C197.57768 305.0316 194.89139 302.3453 194.89139 299.0316C194.89139 295.7179 197.57768 293.0316 200.89139 293.0316C204.2051 293.0316 206.89139 295.7179 206.89139 299.0316Z" fill-rule="nonzero"/><path fill="#4285f4" clip-path="url(#id_0)" d="M392.36954 280.5567C392.36954 283.87042 389.68326 286.5567 386.36954 286.5567C383.05582 286.5567 380.36954 283.87042 380.36954 280.5567C380.36954 277.24298 383.05582 274.5567 386.36954 274.5567C389.68326 274.5567 392.36954 277.24298 392.36954 280.5567Z" fill-rule="nonzero"/><path fill="#4285f4" clip-path="url(#id_0)" d="M577.8477 240.65724C577.8477 243.97095 575.1614 246.65724 571.8477 246.65724C568.534 246.65724 565.8477 243.97095 565.8477 240.65724C565.8477 237.34352 568.534 234.65724 571.8477 234.65724C575.1614 234.65724 577.8477 237.34352 577.8477 240.65724Z" fill-rule="nonzero"/><path fill="#ea4335" clip-path="url(#id_0)" d="M114.152306 293.83685C114.152306 297.15054 111.46602 299.83685 108.152306 299.83685C104.8386 299.83685 102.152306 297.15054 102.152306 293.83685C102.152306 290.52313 104.8386 287.83685 108.152306 287.83685C111.46602 287.83685 114.152306 290.52313 114.152306 293.83685Z" fill-rule="nonzero"/><path fill="#ea4335" clip-path="url(#id_0)" d="M206.89139 241.39201C206.89139 244.70572 204.2051 247.39201 200.89139 247.39201C197.57768 247.39201 194.89139 244.70572 194.89139 241.39201C194.89139 238.07831 197.57768 235.39201 200.89139 235.39201C204.2051 235.39201 206.89139 238.07831 206.89139 241.39201Z" fill-rule="nonzero"/><path fill="#ea4335" clip-path="url(#id_0)" d="M392.36954 258.72253C392.36954 262.03622 389.68326 264.72253 386.36954 264.72253C383.05582 264.72253 380.36954 262.03622 380.36954 258.72253C380.36954 255.40881 383.05582 252.72253 386.36954 252.72253C389.68326 252.72253 392.36954 255.40881 392.36954 258.72253Z" fill-rule="nonzero"/><path fill="#ea4335" clip-path="url(#id_0)" d="M577.8477 219.82251C577.8477 223.13622 575.1614 225.82251 571.8477 225.82251C568.534 225.82251 565.8477 223.13622 565.8477 219.82251C565.8477 216.5088 568.534 213.82251 571.8477 213.82251C575.1614 213.82251 577.8477 216.5088 577.8477 219.82251Z" fill-rule="nonzero"/><path fill="#fbbc04" clip-path="url(#id_0)" d="M114.152306 124.755806C114.152306 128.06952 111.46602 130.75581 108.152306 130.75581C104.8386 130.75581 102.152306 128.06952 102.152306 124.755806C102.152306 121.4421 104.8386 118.755806 108.152306 118.755806C111.46602 118.755806 114.152306 121.4421 114.152306 124.755806Z" fill-rule="nonzero"/><path fill="#fbbc04" clip-path="url(#id_0)" d="M206.89139 294.12372C206.89139 297.43744 204.2051 300.12372 200.89139 300.12372C197.57768 300.12372 194.89139 297.43744 194.89139 294.12372C194.89139 290.81 197.57768 288.12372 200.89139 288.12372C204.2051 288.12372 206.89139 290.81 206.89139 294.12372Z" fill-rule="nonzero"/><path fill="#fbbc04" clip-path="url(#id_0)" d="M392.36954 124.72689C392.36954 128.0406 389.68326 130.7269 386.36954 130.7269C383.05582 130.7269 380.36954 128.0406 380.36954 124.72689C380.36954 121.413185 383.05582 118.72689 386.36954 118.72689C389.68326 118.72689 392.36954 121.413185 392.36954 124.72689Z" fill-rule="nonzero"/><path fill="#fbbc04" clip-path="url(#id_0)" d="M577.8477 124.76674C577.8477 128.08044 575.1614 130.76674 571.8477 130.76674C568.534 130.76674 565.8477 128.08044 565.8477 124.76674C565.8477 121.45303 568.534 118.76674 571.8477 118.76674C575.1614 118.76674 577.8477 121.45303 577.8477 124.76674Z" fill-rule="nonzero"/><path fill="#000000" d="M292.92188 349.45L292.92188 340.85626L294.07812 340.85626L298.59375 347.60626L298.59375 340.85626L299.6875 340.85626L299.6875 349.45L298.51562 349.45L294.0 342.7L294.0 349.45L292.92188 349.45ZM305.875 349.45L305.875 348.52814Q305.14062 349.59064 303.89062 349.59064Q303.34375 349.59064 302.85938 349.3875Q302.39062 349.16876 302.15625 348.85626Q301.92188 348.52814 301.82812 348.0594Q301.76562 347.7625 301.76562 347.075L301.76562 343.23126L302.82812 343.23126L302.82812 346.6844Q302.82812 347.4969 302.89062 347.79376Q302.98438 348.2 303.29688 348.45Q303.625 348.6844 304.10938 348.6844Q304.57812 348.6844 304.98438 348.45Q305.40625 348.2 305.57812 347.77814Q305.76562 347.35626 305.76562 346.5594L305.76562 343.23126L306.8125 343.23126L306.8125 349.45L305.875 349.45ZM308.79688 349.45L308.79688 343.23126L309.73438 343.23126L309.73438 344.10626Q310.03125 343.6375 310.51562 343.3719Q311.0 343.09064 311.625 343.09064Q312.3125 343.09064 312.75 343.3719Q313.20312 343.65314 313.375 344.16876Q314.125 343.09064 315.29688 343.09064Q316.23438 343.09064 316.71875 343.60626Q317.21875 344.10626 317.21875 345.1844L317.21875 349.45L316.17188 349.45L316.17188 345.52814Q316.17188 344.90314 316.0625 344.6219Q315.96875 344.34064 315.70312 344.16876Q315.4375 343.9969 315.0625 343.9969Q314.40625 343.9969 313.96875 344.4344Q313.54688 344.8719 313.54688 345.84064L313.54688 349.45L312.48438 349.45L312.48438 345.40314Q312.48438 344.7 312.21875 344.35626Q311.96875 343.9969 311.39062 343.9969Q310.9375 343.9969 310.5625 344.23126Q310.1875 344.46564 310.01562 344.91876Q309.84375 345.3719 309.84375 346.21564L309.84375 349.45L308.79688 349.45ZM320.76562 349.45L319.78125 349.45L319.78125 340.85626L320.84375 340.85626L320.84375 343.91876Q321.51562 343.09064 322.54688 343.09064Q323.125 343.09064 323.625 343.325Q324.14062 343.54376 324.46875 343.96564Q324.8125 344.3875 325.0 344.98126Q325.1875 345.575 325.1875 346.2469Q325.1875 347.84064 324.39062 348.71564Q323.59375 349.59064 322.5 349.59064Q321.39062 349.59064 320.76562 348.66876L320.76562 349.45ZM320.75 346.29376Q320.75 347.40314 321.0625 347.90314Q321.5625 348.71564 322.40625 348.71564Q323.09375 348.71564 323.59375 348.1219Q324.10938 347.52814 324.10938 346.325Q324.10938 345.10626 323.625 344.52814Q323.14062 343.95 322.45312 343.95Q321.76562 343.95 321.25 344.5594Q320.75 345.15314 320.75 346.29376ZM331.04688 347.45L332.14062 347.575Q331.89062 348.52814 331.1875 349.0594Q330.48438 349.59064 329.40625 349.59064Q328.04688 349.59064 327.23438 348.7469Q326.4375 347.90314 326.4375 346.3875Q326.4375 344.825 327.25 343.96564Q328.0625 343.09064 329.34375 343.09064Q330.59375 343.09064 331.375 343.9344Q332.17188 344.77814 332.17188 346.325Q332.17188 346.41876 332.17188 346.60626L327.53125 346.60626Q327.59375 347.6375 328.10938 348.1844Q328.625 348.71564 329.40625 348.71564Q329.98438 348.71564 330.39062 348.41876Q330.8125 348.10626 331.04688 347.45ZM327.59375 345.7469L331.0625 345.7469Q331.0 344.95 330.67188 344.5594Q330.15625 343.95 329.35938 343.95Q328.625 343.95 328.125 344.4344Q327.64062 344.91876 327.59375 345.7469ZM333.78125 349.45L333.78125 343.23126L334.73438 343.23126L334.73438 344.16876Q335.09375 343.5125 335.39062 343.3094Q335.70312 343.09064 336.07812 343.09064Q336.60938 343.09064 337.15625 343.41876L336.79688 344.40314Q336.40625 344.16876 336.03125 344.16876Q335.67188 344.16876 335.39062 344.3875Q335.125 344.59064 335.01562 344.96564Q334.82812 345.52814 334.82812 346.1844L334.82812 349.45L333.78125 349.45ZM340.40625 346.34064Q340.40625 344.60626 341.35938 343.77814Q342.15625 343.09064 343.3125 343.09064Q344.59375 343.09064 345.40625 343.9344Q346.23438 344.7625 346.23438 346.2469Q346.23438 347.45 345.875 348.1375Q345.51562 348.825 344.8125 349.21564Q344.125 349.59064 343.3125 349.59064Q342.01562 349.59064 341.20312 348.7625Q340.40625 347.91876 340.40625 346.34064ZM341.48438 346.34064Q341.48438 347.52814 342.0 348.1219Q342.53125 348.71564 343.3125 348.71564Q344.10938 348.71564 344.625 348.1219Q345.14062 347.52814 345.14062 346.3094Q345.14062 345.15314 344.60938 344.5594Q344.09375 343.96564 343.3125 343.96564Q342.53125 343.96564 342.0 344.5594Q341.48438 345.1375 341.48438 346.34064ZM348.04688 349.45L348.04688 344.04376L347.10938 344.04376L347.10938 343.23126L348.04688 343.23126L348.04688 342.5594Q348.04688 341.9344 348.15625 341.6375Q348.3125 341.21564 348.6875 340.96564Q349.07812 340.71564 349.76562 340.71564Q350.21875 340.71564 350.75 340.825L350.59375 341.73126Q350.26562 341.6844 349.96875 341.6844Q349.48438 341.6844 349.28125 341.8875Q349.09375 342.09064 349.09375 342.65314L349.09375 343.23126L350.3125 343.23126L350.3125 344.04376L349.09375 344.04376L349.09375 349.45L348.04688 349.45ZM353.79688 349.45L353.79688 343.23126L354.73438 343.23126L354.73438 344.10626Q355.42188 343.09064 356.71875 343.09064Q357.28125 343.09064 357.75 343.29376Q358.23438 343.4969 358.46875 343.825Q358.70312 344.15314 358.79688 344.59064Q358.84375 344.8875 358.84375 345.6219L358.84375 349.45L357.79688 349.45L357.79688 345.66876Q357.79688 345.0125 357.67188 344.7Q357.54688 344.3875 357.23438 344.2Q356.92188 343.9969 356.5 343.9969Q355.82812 343.9969 355.32812 344.4344Q354.84375 344.85626 354.84375 346.04376L354.84375 349.45L353.79688 349.45ZM360.40625 346.34064Q360.40625 344.60626 361.35938 343.77814Q362.15625 343.09064 363.3125 343.09064Q364.59375 343.09064 365.40625 343.9344Q366.23438 344.7625 366.23438 346.2469Q366.23438 347.45 365.875 348.1375Q365.51562 348.825 364.8125 349.21564Q364.125 349.59064 363.3125 349.59064Q362.01562 349.59064 361.20312 348.7625Q360.40625 347.91876 360.40625 346.34064ZM361.48438 346.34064Q361.48438 347.52814 362.0 348.1219Q362.53125 348.71564 363.3125 348.71564Q364.10938 348.71564 364.625 348.1219Q365.14062 347.52814 365.14062 346.3094Q365.14062 345.15314 364.60938 344.5594Q364.09375 343.96564 363.3125 343.96564Q362.53125 343.96564 362.0 344.5594Q361.48438 345.1375 361.48438 346.34064ZM371.82812 349.45L371.82812 348.66876Q371.23438 349.59064 370.09375 349.59064Q369.34375 349.59064 368.71875 349.1844Q368.09375 348.7625 367.75 348.02814Q367.40625 347.29376 367.40625 346.34064Q367.40625 345.41876 367.71875 344.65314Q368.03125 343.8875 368.65625 343.4969Q369.28125 343.09064 370.04688 343.09064Q370.60938 343.09064 371.04688 343.325Q371.48438 343.5594 371.76562 343.9344L371.76562 340.85626L372.8125 340.85626L372.8125 349.45L371.82812 349.45ZM368.5 346.34064Q368.5 347.54376 369.0 348.1375Q369.5 348.71564 370.1875 348.71564Q370.875 348.71564 371.35938 348.15314Q371.84375 347.59064 371.84375 346.4344Q371.84375 345.15314 371.34375 344.5594Q370.85938 343.96564 370.14062 343.96564Q369.4375 343.96564 368.96875 344.54376Q368.5 345.10626 368.5 346.34064ZM379.04688 347.45L380.14062 347.575Q379.89062 348.52814 379.1875 349.0594Q378.48438 349.59064 377.40625 349.59064Q376.04688 349.59064 375.23438 348.7469Q374.4375 347.90314 374.4375 346.3875Q374.4375 344.825 375.25 343.96564Q376.0625 343.09064 377.34375 343.09064Q378.59375 343.09064 379.375 343.9344Q380.17188 344.77814 380.17188 346.325Q380.17188 346.41876 380.17188 346.60626L375.53125 346.60626Q375.59375 347.6375 376.10938 348.1844Q376.625 348.71564 377.40625 348.71564Q377.98438 348.71564 378.39062 348.41876Q378.8125 348.10626 379.04688 347.45ZM375.59375 345.7469L379.0625 345.7469Q379.0 344.95 378.67188 344.5594Q378.15625 343.95 377.35938 343.95Q376.625 343.95 376.125 344.4344Q375.64062 344.91876 375.59375 345.7469ZM381.375 347.59064L382.40625 347.4344Q382.5 348.0594 382.89062 348.3875Q383.29688 348.71564 384.03125 348.71564Q384.75 348.71564 385.09375 348.4344Q385.45312 348.1375 385.45312 347.73126Q385.45312 347.3719 385.14062 347.16876Q384.92188 347.02814 384.0625 346.8094Q382.90625 346.5125 382.45312 346.3094Q382.01562 346.09064 381.78125 345.71564Q381.54688 345.34064 381.54688 344.8719Q381.54688 344.46564 381.73438 344.10626Q381.92188 343.7469 382.25 343.5125Q382.5 343.34064 382.92188 343.21564Q383.34375 343.09064 383.84375 343.09064Q384.5625 343.09064 385.10938 343.3094Q385.67188 343.5125 385.9375 343.8719Q386.20312 344.23126 386.29688 344.825L385.26562 344.96564Q385.20312 344.4969 384.85938 344.23126Q384.53125 343.95 383.90625 343.95Q383.1875 343.95 382.875 344.2Q382.5625 344.4344 382.5625 344.7625Q382.5625 344.96564 382.6875 345.1219Q382.82812 345.29376 383.09375 345.40314Q383.25 345.46564 384.03125 345.66876Q385.15625 345.98126 385.59375 346.16876Q386.03125 346.35626 386.28125 346.71564Q386.53125 347.075 386.53125 347.6219Q386.53125 348.15314 386.21875 348.6219Q385.92188 349.075 385.34375 349.34064Q384.76562 349.59064 384.03125 349.59064Q382.8125 349.59064 382.17188 349.09064Q381.54688 348.575 381.375 347.59064Z" fill-rule="nonzero"/><path fill="#000000" d="M29.550013 239.91354L20.956263 239.91354L20.956263 233.71042L21.971888 233.71042L21.971888 238.77292L24.596888 238.77292L24.596888 234.02292L25.612513 234.02292L25.612513 238.77292L28.534388 238.77292L28.534388 233.5073L29.550013 233.5073L29.550013 239.91354ZM29.550013 232.77292L26.315638 230.5073L23.331263 232.60104L23.331263 231.28854L24.784388 230.33542Q25.206263 230.0698 25.487513 229.89792Q25.096888 229.64792 24.800013 229.42917L23.331263 228.3823L23.331263 227.11667L26.253138 229.27292L29.550013 226.96042L29.550013 228.24167L27.612513 229.52292L27.096888 229.86667L29.550013 231.5073L29.550013 232.77292ZM27.550013 222.8198L27.675013 221.72604Q28.628138 221.97604 29.159388 222.67917Q29.690638 223.3823 29.690638 224.46042Q29.690638 225.8198 28.846888 226.6323Q28.003138 227.42917 26.487513 227.42917Q24.925013 227.42917 24.065638 226.61667Q23.190638 225.80417 23.190638 224.52292Q23.190638 223.27292 24.034388 222.49167Q24.878138 221.6948 26.425013 221.6948Q26.518763 221.6948 26.706263 221.6948L26.706263 226.33542Q27.737513 226.27292 28.284388 225.7573Q28.815638 225.24167 28.815638 224.46042Q28.815638 223.8823 28.518763 223.47604Q28.206263 223.05417 27.550013 222.8198ZM25.846888 226.27292L25.846888 222.80417Q25.050013 222.86667 24.659388 223.1948Q24.050013 223.71042 24.050013 224.5073Q24.050013 225.24167 24.534388 225.74167Q25.018763 226.22604 25.846888 226.27292ZM27.268763 216.0073L27.409388 214.97604Q28.471888 215.14792 29.081263 215.85104Q29.690638 216.55417 29.690638 217.5698Q29.690638 218.85104 28.862513 219.6323Q28.018763 220.39792 26.456263 220.39792Q25.456263 220.39792 24.706263 220.0698Q23.940638 219.72604 23.565638 219.05417Q23.190638 218.36667 23.190638 217.55417Q23.190638 216.55417 23.706263 215.91354Q24.206263 215.2573 25.159388 215.0698L25.315638 216.10104Q24.690638 216.24167 24.378138 216.61667Q24.050013 216.99167 24.050013 217.52292Q24.050013 218.3198 24.628138 218.8198Q25.190638 219.3198 26.425013 219.3198Q27.690638 219.3198 28.253138 218.83542Q28.815638 218.35104 28.815638 217.58542Q28.815638 216.96042 28.440638 216.55417Q28.065638 216.1323 27.268763 216.0073ZM29.550013 209.99167L28.628138 209.99167Q29.690638 210.72604 29.690638 211.97604Q29.690638 212.52292 29.487513 213.0073Q29.268763 213.47604 28.956263 213.71042Q28.628138 213.9448 28.159388 214.03854Q27.862513 214.10104 27.175013 214.10104L23.331263 214.10104L23.331263 213.03854L26.784388 213.03854Q27.596888 213.03854 27.893763 212.97604Q28.300013 212.8823 28.550013 212.5698Q28.784388 212.24167 28.784388 211.7573Q28.784388 211.28854 28.550013 210.8823Q28.300013 210.46042 27.878138 210.28854Q27.456263 210.10104 26.659388 210.10104L23.331263 210.10104L23.331263 209.05417L29.550013 209.05417L29.550013 209.99167ZM28.612513 204.77292L29.534388 204.61667Q29.628138 205.0698 29.628138 205.41354Q29.628138 205.99167 29.456263 206.30417Q29.268763 206.61667 28.971888 206.7573Q28.675013 206.8823 27.721888 206.8823L24.143763 206.8823L24.143763 207.64792L23.331263 207.64792L23.331263 206.8823L21.784388 206.8823L21.159388 205.83542L23.331263 205.83542L23.331263 204.77292L24.143763 204.77292L24.143763 205.83542L27.784388 205.83542Q28.237513 205.83542 28.362513 205.78854Q28.487513 205.72604 28.565638 205.60104Q28.643763 205.47604 28.643763 205.24167Q28.643763 205.05417 28.612513 204.77292ZM22.175013 204.0698L20.956263 204.0698L20.956263 203.0073L22.175013 203.0073L22.175013 204.0698ZM29.550013 204.0698L23.331263 204.0698L23.331263 203.0073L29.550013 203.0073L29.550013 204.0698ZM26.440638 201.46042Q24.706263 201.46042 23.878138 200.5073Q23.190638 199.71042 23.190638 198.55417Q23.190638 197.27292 24.034388 196.46042Q24.862513 195.6323 26.346888 195.6323Q27.550013 195.6323 28.237513 195.99167Q28.925013 196.35104 29.315638 197.05417Q29.690638 197.74167 29.690638 198.55417Q29.690638 199.85104 28.862513 200.66354Q28.018763 201.46042 26.440638 201.46042ZM26.440638 200.3823Q27.628138 200.3823 28.221888 199.86667Q28.815638 199.33542 28.815638 198.55417Q28.815638 197.7573 28.221888 197.24167Q27.628138 196.72604 26.409388 196.72604Q25.253138 196.72604 24.659388 197.2573Q24.065638 197.77292 24.065638 198.55417Q24.065638 199.33542 24.659388 199.86667Q25.237513 200.3823 26.440638 200.3823ZM29.550013 194.0698L23.331263 194.0698L23.331263 193.1323L24.206263 193.1323Q23.190638 192.4448 23.190638 191.14792Q23.190638 190.58542 23.393763 190.11667Q23.596888 189.6323 23.925013 189.39792Q24.253138 189.16354 24.690638 189.0698Q24.987513 189.02292 25.721888 189.02292L29.550013 189.02292L29.550013 190.0698L25.768763 190.0698Q25.112513 190.0698 24.800013 190.1948Q24.487513 190.3198 24.300013 190.6323Q24.096888 190.9448 24.096888 191.36667Q24.096888 192.03854 24.534388 192.53854Q24.956263 193.02292 26.143763 193.02292L29.550013 193.02292L29.550013 194.0698ZM28.612513 181.77292L29.534388 181.61667Q29.628138 182.0698 29.628138 182.41354Q29.628138 182.99167 29.456263 183.30417Q29.268763 183.61667 28.971888 183.7573Q28.675013 183.8823 27.721888 183.8823L24.143763 183.8823L24.143763 184.64792L23.331263 184.64792L23.331263 183.8823L21.784388 183.8823L21.159388 182.83542L23.331263 182.83542L23.331263 181.77292L24.143763 181.77292L24.143763 182.83542L27.784388 182.83542Q28.237513 182.83542 28.362513 182.78854Q28.487513 182.72604 28.565638 182.60104Q28.643763 182.47604 28.643763 182.24167Q28.643763 182.05417 28.612513 181.77292ZM22.175013 181.0698L20.956263 181.0698L20.956263 180.0073L22.175013 180.0073L22.175013 181.0698ZM29.550013 181.0698L23.331263 181.0698L23.331263 180.0073L29.550013 180.0073L29.550013 181.0698ZM29.550013 178.0698L23.331263 178.0698L23.331263 177.1323L24.206263 177.1323Q23.737513 176.83542 23.471888 176.35104Q23.190638 175.86667 23.190638 175.24167Q23.190638 174.55417 23.471888 174.11667Q23.753138 173.66354 24.268763 173.49167Q23.190638 172.74167 23.190638 171.5698Q23.190638 170.6323 23.706263 170.14792Q24.206263 169.64792 25.284388 169.64792L29.550013 169.64792L29.550013 170.6948L25.628138 170.6948Q25.003138 170.6948 24.721888 170.80417Q24.440638 170.89792 24.268763 171.16354Q24.096888 171.42917 24.096888 171.80417Q24.096888 172.46042 24.534388 172.89792Q24.971888 173.3198 25.940638 173.3198L29.550013 173.3198L29.550013 174.3823L25.503138 174.3823Q24.800013 174.3823 24.456263 174.64792Q24.096888 174.89792 24.096888 175.47604Q24.096888 175.92917 24.331263 176.30417Q24.565638 176.67917 25.018763 176.85104Q25.471888 177.02292 26.315638 177.02292L29.550013 177.02292L29.550013 178.0698ZM27.550013 162.8198L27.675013 161.72604Q28.628138 161.97604 29.159388 162.67917Q29.690638 163.3823 29.690638 164.46042Q29.690638 165.8198 28.846888 166.6323Q28.003138 167.42917 26.487513 167.42917Q24.925013 167.42917 24.065638 166.61667Q23.190638 165.80417 23.190638 164.52292Q23.190638 163.27292 24.034388 162.49167Q24.878138 161.6948 26.425013 161.6948Q26.518763 161.6948 26.706263 161.6948L26.706263 166.33542Q27.737513 166.27292 28.284388 165.7573Q28.815638 165.24167 28.815638 164.46042Q28.815638 163.8823 28.518763 163.47604Q28.206263 163.05417 27.550013 162.8198ZM25.846888 166.27292L25.846888 162.80417Q25.050013 162.86667 24.659388 163.1948Q24.050013 163.71042 24.050013 164.5073Q24.050013 165.24167 24.534388 165.74167Q25.018763 166.22604 25.846888 166.27292Z" fill-rule="nonzero"/><path fill="#000000" d="M86.05 300.21564Q86.05 298.6844 86.3625 297.7625Q86.675 296.825 87.28438 296.325Q87.90938 295.825 88.84688 295.825Q89.53438 295.825 90.05 296.10626Q90.58125 296.3875 90.925 296.91876Q91.26875 297.4344 91.45625 298.1844Q91.64375 298.9344 91.64375 300.21564Q91.64375 301.73126 91.33125 302.65314Q91.03438 303.575 90.40938 304.09064Q89.8 304.59064 88.84688 304.59064Q87.6125 304.59064 86.89375 303.7Q86.05 302.6375 86.05 300.21564ZM87.12813 300.21564Q87.12813 302.325 87.62813 303.02814Q88.12813 303.73126 88.84688 303.73126Q89.58125 303.73126 90.06563 303.02814Q90.56563 302.325 90.56563 300.21564Q90.56563 298.09064 90.06563 297.40314Q89.58125 296.7 88.83125 296.7Q88.1125 296.7 87.675 297.3094Q87.12813 298.09064 87.12813 300.21564Z" fill-rule="nonzero"/><path fill="#000000" d="M63.596874 250.39272L63.596874 251.40834L57.909374 251.40834Q57.909374 251.03334 58.034374 250.67397Q58.253124 250.09584 58.721874 249.53334Q59.20625 248.97084 60.1125 248.23647Q61.51875 247.08022 62.003124 246.40834Q62.503124 245.73647 62.503124 245.14272Q62.503124 244.51772 62.05 244.09584Q61.596874 243.65834 60.878124 243.65834Q60.1125 243.65834 59.659374 244.11147Q59.20625 244.56459 59.190624 245.37709L58.1125 245.26772Q58.221874 244.04897 58.940624 243.42397Q59.675 242.78334 60.909374 242.78334Q62.14375 242.78334 62.8625 243.47084Q63.58125 244.15834 63.58125 245.17397Q63.58125 245.68959 63.3625 246.18959Q63.159374 246.67397 62.659374 247.23647Q62.175 247.78334 61.05 248.73647Q60.096874 249.53334 59.815624 249.83022Q59.55 250.11147 59.378124 250.39272L63.596874 250.39272ZM65.05 249.15834L66.15938 249.06459Q66.28438 249.87709 66.72188 250.28334Q67.175 250.68959 67.81563 250.68959Q68.56563 250.68959 69.09688 250.11147Q69.62813 249.53334 69.62813 248.59584Q69.62813 247.68959 69.1125 247.17397Q68.6125 246.64272 67.78438 246.64272Q67.28438 246.64272 66.8625 246.87709Q66.45625 247.11147 66.22188 247.47084L65.2375 247.34584L66.06563 242.93959L70.34688 242.93959L70.34688 243.93959L66.90938 243.93959L66.45625 246.25209Q67.22188 245.70522 68.06563 245.70522Q69.19063 245.70522 69.95625 246.48647Q70.7375 247.26772 70.7375 248.50209Q70.7375 249.65834 70.06563 250.51772Q69.2375 251.54897 67.81563 251.54897Q66.64375 251.54897 65.89375 250.89272Q65.15938 250.23647 65.05 249.15834ZM72.05 247.17397Q72.05 245.64272 72.3625 244.72084Q72.675 243.78334 73.28438 243.28334Q73.90938 242.78334 74.84688 242.78334Q75.53438 242.78334 76.05 243.06459Q76.58125 243.34584 76.925 243.87709Q77.26875 244.39272 77.45625 245.14272Q77.64375 245.89272 77.64375 247.17397Q77.64375 248.68959 77.33125 249.61147Q77.03438 250.53334 76.40938 251.04897Q75.8 251.54897 74.84688 251.54897Q73.6125 251.54897 72.89375 250.65834Q72.05 249.59584 72.05 247.17397ZM73.12813 247.17397Q73.12813 249.28334 73.62813 249.98647Q74.12813 250.68959 74.84688 250.68959Q75.58125 250.68959 76.06563 249.98647Q76.56563 249.28334 76.56563 247.17397Q76.56563 245.04897 76.06563 244.36147Q75.58125 243.65834 74.83125 243.65834Q74.1125 243.65834 73.675 244.26772Q73.12813 245.04897 73.12813 247.17397ZM79.05 247.17397Q79.05 245.64272 79.3625 244.72084Q79.675 243.78334 80.28438 243.28334Q80.90938 242.78334 81.84688 242.78334Q82.53438 242.78334 83.05 243.06459Q83.58125 243.34584 83.925 243.87709Q84.26875 244.39272 84.45625 245.14272Q84.64375 245.89272 84.64375 247.17397Q84.64375 248.68959 84.33125 249.61147Q84.03438 250.53334 83.40938 251.04897Q82.8 251.54897 81.84688 251.54897Q80.6125 251.54897 79.89375 250.65834Q79.05 249.59584 79.05 247.17397ZM80.12813 247.17397Q80.12813 249.28334 80.62813 249.98647Q81.12813 250.68959 81.84688 250.68959Q82.58125 250.68959 83.06563 249.98647Q83.56563 249.28334 83.56563 247.17397Q83.56563 245.04897 83.06563 244.36147Q82.58125 243.65834 81.83125 243.65834Q81.1125 243.65834 80.675 244.26772Q80.12813 245.04897 80.12813 247.17397ZM86.05 247.17397Q86.05 245.64272 86.3625 244.72084Q86.675 243.78334 87.28438 243.28334Q87.90938 242.78334 88.84688 242.78334Q89.53438 242.78334 90.05 243.06459Q90.58125 243.34584 90.925 243.87709Q91.26875 244.39272 91.45625 245.14272Q91.64375 245.89272 91.64375 247.17397Q91.64375 248.68959 91.33125 249.61147Q91.03438 250.53334 90.40938 251.04897Q89.8 251.54897 88.84688 251.54897Q87.6125 251.54897 86.89375 250.65834Q86.05 249.59584 86.05 247.17397ZM87.12813 247.17397Q87.12813 249.28334 87.62813 249.98647Q88.12813 250.68959 88.84688 250.68959Q89.58125 250.68959 90.06563 249.98647Q90.56563 249.28334 90.56563 247.17397Q90.56563 245.04897 90.06563 244.36147Q89.58125 243.65834 88.83125 243.65834Q88.1125 243.65834 87.675 244.26772Q87.12813 245.04897 87.12813 247.17397Z" fill-rule="nonzero"/><path fill="#000000" d="M58.05 196.11667L59.159374 196.02292Q59.284374 196.83542 59.721874 197.24167Q60.175 197.64792 60.815624 197.64792Q61.565624 197.64792 62.096874 197.0698Q62.628124 196.49167 62.628124 195.55417Q62.628124 194.64792 62.1125 194.1323Q61.6125 193.60104 60.784374 193.60104Q60.284374 193.60104 59.8625 193.83542Q59.45625 194.0698 59.221874 194.42917L58.2375 194.30417L59.065624 189.89792L63.346874 189.89792L63.346874 190.89792L59.909374 190.89792L59.45625 193.21042Q60.221874 192.66354 61.065624 192.66354Q62.190624 192.66354 62.95625 193.4448Q63.7375 194.22604 63.7375 195.46042Q63.7375 196.61667 63.065624 197.47604Q62.2375 198.5073 60.815624 198.5073Q59.64375 198.5073 58.89375 197.85104Q58.159374 197.1948 58.05 196.11667ZM65.05 194.1323Q65.05 192.60104 65.3625 191.67917Q65.675 190.74167 66.28438 190.24167Q66.90938 189.74167 67.84688 189.74167Q68.53438 189.74167 69.05 190.02292Q69.58125 190.30417 69.925 190.83542Q70.26875 191.35104 70.45625 192.10104Q70.64375 192.85104 70.64375 194.1323Q70.64375 195.64792 70.33125 196.5698Q70.03438 197.49167 69.40938 198.0073Q68.8 198.5073 67.84688 198.5073Q66.6125 198.5073 65.89375 197.61667Q65.05 196.55417 65.05 194.1323ZM66.12813 194.1323Q66.12813 196.24167 66.62813 196.9448Q67.12813 197.64792 67.84688 197.64792Q68.58125 197.64792 69.06563 196.9448Q69.56563 196.24167 69.56563 194.1323Q69.56563 192.0073 69.06563 191.3198Q68.58125 190.61667 67.83125 190.61667Q67.1125 190.61667 66.675 191.22604Q66.12813 192.0073 66.12813 194.1323ZM72.05 194.1323Q72.05 192.60104 72.3625 191.67917Q72.675 190.74167 73.28438 190.24167Q73.90938 189.74167 74.84688 189.74167Q75.53438 189.74167 76.05 190.02292Q76.58125 190.30417 76.925 190.83542Q77.26875 191.35104 77.45625 192.10104Q77.64375 192.85104 77.64375 194.1323Q77.64375 195.64792 77.33125 196.5698Q77.03438 197.49167 76.40938 198.0073Q75.8 198.5073 74.84688 198.5073Q73.6125 198.5073 72.89375 197.61667Q72.05 196.55417 72.05 194.1323ZM73.12813 194.1323Q73.12813 196.24167 73.62813 196.9448Q74.12813 197.64792 74.84688 197.64792Q75.58125 197.64792 76.06563 196.9448Q76.56563 196.24167 76.56563 194.1323Q76.56563 192.0073 76.06563 191.3198Q75.58125 190.61667 74.83125 190.61667Q74.1125 190.61667 73.675 191.22604Q73.12813 192.0073 73.12813 194.1323ZM79.05 194.1323Q79.05 192.60104 79.3625 191.67917Q79.675 190.74167 80.28438 190.24167Q80.90938 189.74167 81.84688 189.74167Q82.53438 189.74167 83.05 190.02292Q83.58125 190.30417 83.925 190.83542Q84.26875 191.35104 84.45625 192.10104Q84.64375 192.85104 84.64375 194.1323Q84.64375 195.64792 84.33125 196.5698Q84.03438 197.49167 83.40938 198.0073Q82.8 198.5073 81.84688 198.5073Q80.6125 198.5073 79.89375 197.61667Q79.05 196.55417 79.05 194.1323ZM80.12813 194.1323Q80.12813 196.24167 80.62813 196.9448Q81.12813 197.64792 81.84688 197.64792Q82.58125 197.64792 83.06563 196.9448Q83.56563 196.24167 83.56563 194.1323Q83.56563 192.0073 83.06563 191.3198Q82.58125 190.61667 81.83125 190.61667Q81.1125 190.61667 80.675 191.22604Q80.12813 192.0073 80.12813 194.1323ZM86.05 194.1323Q86.05 192.60104 86.3625 191.67917Q86.675 190.74167 87.28438 190.24167Q87.90938 189.74167 88.84688 189.74167Q89.53438 189.74167 90.05 190.02292Q90.58125 190.30417 90.925 190.83542Q91.26875 191.35104 91.45625 192.10104Q91.64375 192.85104 91.64375 194.1323Q91.64375 195.64792 91.33125 196.5698Q91.03438 197.49167 90.40938 198.0073Q89.8 198.5073 88.84688 198.5073Q87.6125 198.5073 86.89375 197.61667Q86.05 196.55417 86.05 194.1323ZM87.12813 194.1323Q87.12813 196.24167 87.62813 196.9448Q88.12813 197.64792 88.84688 197.64792Q89.58125 197.64792 90.06563 196.9448Q90.56563 196.24167 90.56563 194.1323Q90.56563 192.0073 90.06563 191.3198Q89.58125 190.61667 88.83125 190.61667Q88.1125 190.61667 87.675 191.22604Q87.12813 192.0073 87.12813 194.1323Z" fill-rule="nonzero"/><path fill="#000000" d="M58.1125 137.85625L58.1125 136.84062L63.675 136.84062L63.675 137.66875Q62.8625 138.54375 62.05 139.99687Q61.253124 141.43437 60.815624 142.96562Q60.4875 144.04375 60.409374 145.325L59.315624 145.325Q59.33125 144.30937 59.70625 142.87187Q60.096874 141.43437 60.8 140.10625Q61.51875 138.77812 62.33125 137.85625L58.1125 137.85625ZM65.05 143.075L66.15938 142.98125Q66.28438 143.79375 66.72188 144.2Q67.175 144.60625 67.81563 144.60625Q68.56563 144.60625 69.09688 144.02812Q69.62813 143.45 69.62813 142.5125Q69.62813 141.60625 69.1125 141.09062Q68.6125 140.55937 67.78438 140.55937Q67.28438 140.55937 66.8625 140.79375Q66.45625 141.02812 66.22188 141.3875L65.2375 141.2625L66.06563 136.85625L70.34688 136.85625L70.34688 137.85625L66.90938 137.85625L66.45625 140.16875Q67.22188 139.62187 68.06563 139.62187Q69.19063 139.62187 69.95625 140.40312Q70.7375 141.18437 70.7375 142.41875Q70.7375 143.575 70.06563 144.43437Q69.2375 145.46562 67.81563 145.46562Q66.64375 145.46562 65.89375 144.80937Q65.15938 144.15312 65.05 143.075ZM72.05 141.09062Q72.05 139.55937 72.3625 138.6375Q72.675 137.7 73.28438 137.2Q73.90938 136.7 74.84688 136.7Q75.53438 136.7 76.05 136.98125Q76.58125 137.2625 76.925 137.79375Q77.26875 138.30937 77.45625 139.05937Q77.64375 139.80937 77.64375 141.09062Q77.64375 142.60625 77.33125 143.52812Q77.03438 144.45 76.40938 144.96562Q75.8 145.46562 74.84688 145.46562Q73.6125 145.46562 72.89375 144.575Q72.05 143.5125 72.05 141.09062ZM73.12813 141.09062Q73.12813 143.2 73.62813 143.90312Q74.12813 144.60625 74.84688 144.60625Q75.58125 144.60625 76.06563 143.90312Q76.56563 143.2 76.56563 141.09062Q76.56563 138.96562 76.06563 138.27812Q75.58125 137.575 74.83125 137.575Q74.1125 137.575 73.675 138.18437Q73.12813 138.96562 73.12813 141.09062ZM79.05 141.09062Q79.05 139.55937 79.3625 138.6375Q79.675 137.7 80.28438 137.2Q80.90938 136.7 81.84688 136.7Q82.53438 136.7 83.05 136.98125Q83.58125 137.2625 83.925 137.79375Q84.26875 138.30937 84.45625 139.05937Q84.64375 139.80937 84.64375 141.09062Q84.64375 142.60625 84.33125 143.52812Q84.03438 144.45 83.40938 144.96562Q82.8 145.46562 81.84688 145.46562Q80.6125 145.46562 79.89375 144.575Q79.05 143.5125 79.05 141.09062ZM80.12813 141.09062Q80.12813 143.2 80.62813 143.90312Q81.12813 144.60625 81.84688 144.60625Q82.58125 144.60625 83.06563 143.90312Q83.56563 143.2 83.56563 141.09062Q83.56563 138.96562 83.06563 138.27812Q82.58125 137.575 81.83125 137.575Q81.1125 137.575 80.675 138.18437Q80.12813 138.96562 80.12813 141.09062ZM86.05 141.09062Q86.05 139.55937 86.3625 138.6375Q86.675 137.7 87.28438 137.2Q87.90938 136.7 88.84688 136.7Q89.53438 136.7 90.05 136.98125Q90.58125 137.2625 90.925 137.79375Q91.26875 138.30937 91.45625 139.05937Q91.64375 139.80937 91.64375 141.09062Q91.64375 142.60625 91.33125 143.52812Q91.03438 144.45 90.40938 144.96562Q89.8 145.46562 88.84688 145.46562Q87.6125 145.46562 86.89375 144.575Q86.05 143.5125 86.05 141.09062ZM87.12813 141.09062Q87.12813 143.2 87.62813 143.90312Q88.12813 144.60625 88.84688 144.60625Q89.58125 144.60625 90.06563 143.90312Q90.56563 143.2 90.56563 141.09062Q90.56563 138.96562 90.06563 138.27812Q89.58125 137.575 88.83125 137.575Q88.1125 137.575 87.675 138.18437Q87.12813 138.96562 87.12813 141.09062Z" fill-rule="nonzero"/><path fill="#000000" d="M55.01875 92.28333L53.971874 92.28333L53.971874 85.56458Q53.58125 85.92396 52.95625 86.29896Q52.346874 86.65833 51.8625 86.83021L51.8625 85.81458Q52.7375 85.39271 53.39375 84.81458Q54.065624 84.22083 54.346874 83.65833L55.01875 83.65833L55.01875 92.28333ZM58.05 88.04896Q58.05 86.51771 58.3625 85.59583Q58.675 84.65833 59.284374 84.15833Q59.909374 83.65833 60.846874 83.65833Q61.534374 83.65833 62.05 83.93958Q62.58125 84.22083 62.925 84.75208Q63.26875 85.26771 63.45625 86.01771Q63.64375 86.76771 63.64375 88.04896Q63.64375 89.56458 63.33125 90.48646Q63.034374 91.40833 62.409374 91.92396Q61.8 92.42396 60.846874 92.42396Q59.6125 92.42396 58.89375 91.53333Q58.05 90.47083 58.05 88.04896ZM59.128124 88.04896Q59.128124 90.15833 59.628124 90.86146Q60.128124 91.56458 60.846874 91.56458Q61.58125 91.56458 62.065624 90.86146Q62.565624 90.15833 62.565624 88.04896Q62.565624 85.92396 62.065624 85.23646Q61.58125 84.53333 60.83125 84.53333Q60.1125 84.53333 59.675 85.14271Q59.128124 85.92396 59.128124 88.04896ZM65.05 88.04896Q65.05 86.51771 65.3625 85.59583Q65.675 84.65833 66.28438 84.15833Q66.90938 83.65833 67.84688 83.65833Q68.53438 83.65833 69.05 83.93958Q69.58125 84.22083 69.925 84.75208Q70.26875 85.26771 70.45625 86.01771Q70.64375 86.76771 70.64375 88.04896Q70.64375 89.56458 70.33125 90.48646Q70.03438 91.40833 69.40938 91.92396Q68.8 92.42396 67.84688 92.42396Q66.6125 92.42396 65.89375 91.53333Q65.05 90.47083 65.05 88.04896ZM66.12813 88.04896Q66.12813 90.15833 66.62813 90.86146Q67.12813 91.56458 67.84688 91.56458Q68.58125 91.56458 69.06563 90.86146Q69.56563 90.15833 69.56563 88.04896Q69.56563 85.92396 69.06563 85.23646Q68.58125 84.53333 67.83125 84.53333Q67.1125 84.53333 66.675 85.14271Q66.12813 85.92396 66.12813 88.04896ZM72.05 88.04896Q72.05 86.51771 72.3625 85.59583Q72.675 84.65833 73.28438 84.15833Q73.90938 83.65833 74.84688 83.65833Q75.53438 83.65833 76.05 83.93958Q76.58125 84.22083 76.925 84.75208Q77.26875 85.26771 77.45625 86.01771Q77.64375 86.76771 77.64375 88.04896Q77.64375 89.56458 77.33125 90.48646Q77.03438 91.40833 76.40938 91.92396Q75.8 92.42396 74.84688 92.42396Q73.6125 92.42396 72.89375 91.53333Q72.05 90.47083 72.05 88.04896ZM73.12813 88.04896Q73.12813 90.15833 73.62813 90.86146Q74.12813 91.56458 74.84688 91.56458Q75.58125 91.56458 76.06563 90.86146Q76.56563 90.15833 76.56563 88.04896Q76.56563 85.92396 76.06563 85.23646Q75.58125 84.53333 74.83125 84.53333Q74.1125 84.53333 73.675 85.14271Q73.12813 85.92396 73.12813 88.04896ZM79.05 88.04896Q79.05 86.51771 79.3625 85.59583Q79.675 84.65833 80.28438 84.15833Q80.90938 83.65833 81.84688 83.65833Q82.53438 83.65833 83.05 83.93958Q83.58125 84.22083 83.925 84.75208Q84.26875 85.26771 84.45625 86.01771Q84.64375 86.76771 84.64375 88.04896Q84.64375 89.56458 84.33125 90.48646Q84.03438 91.40833 83.40938 91.92396Q82.8 92.42396 81.84688 92.42396Q80.6125 92.42396 79.89375 91.53333Q79.05 90.47083 79.05 88.04896ZM80.12813 88.04896Q80.12813 90.15833 80.62813 90.86146Q81.12813 91.56458 81.84688 91.56458Q82.58125 91.56458 83.06563 90.86146Q83.56563 90.15833 83.56563 88.04896Q83.56563 85.92396 83.06563 85.23646Q82.58125 84.53333 81.83125 84.53333Q81.1125 84.53333 80.675 85.14271Q80.12813 85.92396 80.12813 88.04896ZM86.05 88.04896Q86.05 86.51771 86.3625 85.59583Q86.675 84.65833 87.28438 84.15833Q87.90938 83.65833 88.84688 83.65833Q89.53438 83.65833 90.05 83.93958Q90.58125 84.22083 90.925 84.75208Q91.26875 85.26771 91.45625 86.01771Q91.64375 86.76771 91.64375 88.04896Q91.64375 89.56458 91.33125 90.48646Q91.03438 91.40833 90.40938 91.92396Q89.8 92.42396 88.84688 92.42396Q87.6125 92.42396 86.89375 91.53333Q86.05 90.47083 86.05 88.04896ZM87.12813 88.04896Q87.12813 90.15833 87.62813 90.86146Q88.12813 91.56458 88.84688 91.56458Q89.58125 91.56458 90.06563 90.86146Q90.56563 90.15833 90.56563 88.04896Q90.56563 85.92396 90.06563 85.23646Q89.58125 84.53333 88.83125 84.53333Q88.1125 84.53333 87.675 85.14271Q87.12813 85.92396 87.12813 88.04896Z" fill-rule="nonzero"/><path fill="#000000" d="M103.69918 316.4344L103.69918 317.45L98.01168 317.45Q98.01168 317.075 98.13668 316.71564Q98.35543 316.1375 98.82418 315.575Q99.308556 315.0125 100.214806 314.27814Q101.621056 313.1219 102.10543 312.45Q102.60543 311.77814 102.60543 311.1844Q102.60543 310.5594 102.152306 310.1375Q101.69918 309.7 100.98043 309.7Q100.214806 309.7 99.76168 310.15314Q99.308556 310.60626 99.29293 311.41876L98.214806 311.3094Q98.32418 310.09064 99.04293 309.46564Q99.777306 308.825 101.01168 308.825Q102.246056 308.825 102.964806 309.5125Q103.683556 310.2 103.683556 311.21564Q103.683556 311.73126 103.464806 312.23126Q103.26168 312.71564 102.76168 313.27814Q102.277306 313.825 101.152306 314.77814Q100.19918 315.575 99.91793 315.8719Q99.652306 316.15314 99.48043 316.4344L103.69918 316.4344ZM105.152306 315.2L106.26168 315.10626Q106.38668 315.91876 106.82418 316.325Q107.277306 316.73126 107.91793 316.73126Q108.66793 316.73126 109.19918 316.15314Q109.73043 315.575 109.73043 314.6375Q109.73043 313.73126 109.214806 313.21564Q108.714806 312.6844 107.88668 312.6844Q107.38668 312.6844 106.964806 312.91876Q106.558556 313.15314 106.32418 313.5125L105.339806 313.3875L106.16793 308.98126L110.44918 308.98126L110.44918 309.98126L107.01168 309.98126L106.558556 312.29376Q107.32418 311.7469 108.16793 311.7469Q109.29293 311.7469 110.058556 312.52814Q110.839806 313.3094 110.839806 314.54376Q110.839806 315.7 110.16793 316.5594Q109.339806 317.59064 107.91793 317.59064Q106.746056 317.59064 105.996056 316.9344Q105.26168 316.27814 105.152306 315.2ZM112.152306 313.21564Q112.152306 311.6844 112.464806 310.7625Q112.777306 309.825 113.38668 309.325Q114.01168 308.825 114.94918 308.825Q115.63668 308.825 116.152306 309.10626Q116.683556 309.3875 117.027306 309.91876Q117.371056 310.4344 117.558556 311.1844Q117.746056 311.9344 117.746056 313.21564Q117.746056 314.73126 117.433556 315.65314Q117.13668 316.575 116.51168 317.09064Q115.902306 317.59064 114.94918 317.59064Q113.714806 317.59064 112.996056 316.7Q112.152306 315.6375 112.152306 313.21564ZM113.23043 313.21564Q113.23043 315.325 113.73043 316.02814Q114.23043 316.73126 114.94918 316.73126Q115.683556 316.73126 116.16793 316.02814Q116.66793 315.325 116.66793 313.21564Q116.66793 311.09064 116.16793 310.40314Q115.683556 309.7 114.933556 309.7Q114.214806 309.7 113.777306 310.3094Q113.23043 311.09064 113.23043 313.21564Z" fill-rule="nonzero"/><path fill="#000000" d="M190.89139 315.2L192.00076 315.10626Q192.12576 315.91876 192.56326 316.325Q193.01639 316.73126 193.65701 316.73126Q194.40701 316.73126 194.93826 316.15314Q195.46951 315.575 195.46951 314.6375Q195.46951 313.73126 194.95389 313.21564Q194.45389 312.6844 193.62576 312.6844Q193.12576 312.6844 192.70389 312.91876Q192.29764 313.15314 192.06326 313.5125L191.07889 313.3875L191.90701 308.98126L196.18826 308.98126L196.18826 309.98126L192.75076 309.98126L192.29764 312.29376Q193.06326 311.7469 193.90701 311.7469Q195.03201 311.7469 195.79764 312.52814Q196.57889 313.3094 196.57889 314.54376Q196.57889 315.7 195.90701 316.5594Q195.07889 317.59064 193.65701 317.59064Q192.48514 317.59064 191.73514 316.9344Q191.00076 316.27814 190.89139 315.2ZM197.89139 313.21564Q197.89139 311.6844 198.20389 310.7625Q198.51639 309.825 199.12576 309.325Q199.75076 308.825 200.68826 308.825Q201.37576 308.825 201.89139 309.10626Q202.42264 309.3875 202.76639 309.91876Q203.11014 310.4344 203.29764 311.1844Q203.48514 311.9344 203.48514 313.21564Q203.48514 314.73126 203.17264 315.65314Q202.87576 316.575 202.25076 317.09064Q201.64139 317.59064 200.68826 317.59064Q199.45389 317.59064 198.73514 316.7Q197.89139 315.6375 197.89139 313.21564ZM198.96951 313.21564Q198.96951 315.325 199.46951 316.02814Q199.96951 316.73126 200.68826 316.73126Q201.42264 316.73126 201.90701 316.02814Q202.40701 315.325 202.40701 313.21564Q202.40701 311.09064 201.90701 310.40314Q201.42264 309.7 200.67264 309.7Q199.95389 309.7 199.51639 310.3094Q198.96951 311.09064 198.96951 313.21564ZM204.89139 313.21564Q204.89139 311.6844 205.20389 310.7625Q205.51639 309.825 206.12576 309.325Q206.75076 308.825 207.68826 308.825Q208.37576 308.825 208.89139 309.10626Q209.42264 309.3875 209.76639 309.91876Q210.11014 310.4344 210.29764 311.1844Q210.48514 311.9344 210.48514 313.21564Q210.48514 314.73126 210.17264 315.65314Q209.87576 316.575 209.25076 317.09064Q208.64139 317.59064 207.68826 317.59064Q206.45389 317.59064 205.73514 316.7Q204.89139 315.6375 204.89139 313.21564ZM205.96951 313.21564Q205.96951 315.325 206.46951 316.02814Q206.96951 316.73126 207.68826 316.73126Q208.42264 316.73126 208.90701 316.02814Q209.40701 315.325 209.40701 313.21564Q209.40701 311.09064 208.90701 310.40314Q208.42264 309.7 207.67264 309.7Q206.95389 309.7 206.51639 310.3094Q205.96951 311.09064 205.96951 313.21564Z" fill-rule="nonzero"/><path fill="#000000" d="M283.69296 309.98126L283.69296 308.96564L289.25546 308.96564L289.25546 309.79376Q288.44296 310.66876 287.63046 312.1219Q286.8336 313.5594 286.3961 315.09064Q286.06796 316.16876 285.98984 317.45L284.8961 317.45Q284.9117 316.4344 285.2867 314.9969Q285.67734 313.5594 286.38046 312.23126Q287.0992 310.90314 287.9117 309.98126L283.69296 309.98126ZM290.63046 315.2L291.73984 315.10626Q291.86484 315.91876 292.30234 316.325Q292.75546 316.73126 293.3961 316.73126Q294.1461 316.73126 294.67734 316.15314Q295.2086 315.575 295.2086 314.6375Q295.2086 313.73126 294.69296 313.21564Q294.19296 312.6844 293.36484 312.6844Q292.86484 312.6844 292.44296 312.91876Q292.0367 313.15314 291.80234 313.5125L290.81796 313.3875L291.6461 308.98126L295.92734 308.98126L295.92734 309.98126L292.48984 309.98126L292.0367 312.29376Q292.80234 311.7469 293.6461 311.7469Q294.7711 311.7469 295.5367 312.52814Q296.31796 313.3094 296.31796 314.54376Q296.31796 315.7 295.6461 316.5594Q294.81796 317.59064 293.3961 317.59064Q292.2242 317.59064 291.4742 316.9344Q290.73984 316.27814 290.63046 315.2ZM297.63046 313.21564Q297.63046 311.6844 297.94296 310.7625Q298.25546 309.825 298.86484 309.325Q299.48984 308.825 300.42734 308.825Q301.11484 308.825 301.63046 309.10626Q302.1617 309.3875 302.50546 309.91876Q302.8492 310.4344 303.0367 311.1844Q303.2242 311.9344 303.2242 313.21564Q303.2242 314.73126 302.9117 315.65314Q302.61484 316.575 301.98984 317.09064Q301.38046 317.59064 300.42734 317.59064Q299.19296 317.59064 298.4742 316.7Q297.63046 315.6375 297.63046 313.21564ZM298.7086 313.21564Q298.7086 315.325 299.2086 316.02814Q299.7086 316.73126 300.42734 316.73126Q301.1617 316.73126 301.6461 316.02814Q302.1461 315.325 302.1461 313.21564Q302.1461 311.09064 301.6461 310.40314Q301.1617 309.7 300.4117 309.7Q299.69296 309.7 299.25546 310.3094Q298.7086 311.09064 298.7086 313.21564Z" fill-rule="nonzero"/><path fill="#000000" d="M376.8383 317.45L375.7914 317.45L375.7914 310.73126Q375.4008 311.09064 374.7758 311.46564Q374.1664 311.825 373.68204 311.9969L373.68204 310.98126Q374.55704 310.5594 375.2133 309.98126Q375.88516 309.3875 376.1664 308.825L376.8383 308.825L376.8383 317.45ZM379.86954 313.21564Q379.86954 311.6844 380.18204 310.7625Q380.49454 309.825 381.1039 309.325Q381.7289 308.825 382.6664 308.825Q383.3539 308.825 383.86954 309.10626Q384.4008 309.3875 384.74454 309.91876Q385.0883 310.4344 385.2758 311.1844Q385.4633 311.9344 385.4633 313.21564Q385.4633 314.73126 385.1508 315.65314Q384.8539 316.575 384.2289 317.09064Q383.61954 317.59064 382.6664 317.59064Q381.43204 317.59064 380.7133 316.7Q379.86954 315.6375 379.86954 313.21564ZM380.94766 313.21564Q380.94766 315.325 381.44766 316.02814Q381.94766 316.73126 382.6664 316.73126Q383.4008 316.73126 383.88516 316.02814Q384.38516 315.325 384.38516 313.21564Q384.38516 311.09064 383.88516 310.40314Q383.4008 309.7 382.6508 309.7Q381.93204 309.7 381.49454 310.3094Q380.94766 311.09064 380.94766 313.21564ZM386.86954 313.21564Q386.86954 311.6844 387.18204 310.7625Q387.49454 309.825 388.1039 309.325Q388.7289 308.825 389.6664 308.825Q390.3539 308.825 390.86954 309.10626Q391.4008 309.3875 391.74454 309.91876Q392.0883 310.4344 392.2758 311.1844Q392.4633 311.9344 392.4633 313.21564Q392.4633 314.73126 392.1508 315.65314Q391.8539 316.575 391.2289 317.09064Q390.61954 317.59064 389.6664 317.59064Q388.43204 317.59064 387.7133 316.7Q386.86954 315.6375 386.86954 313.21564ZM387.94766 313.21564Q387.94766 315.325 388.44766 316.02814Q388.94766 316.73126 389.6664 316.73126Q390.4008 316.73126 390.88516 316.02814Q391.38516 315.325 391.38516 313.21564Q391.38516 311.09064 390.88516 310.40314Q390.4008 309.7 389.6508 309.7Q388.93204 309.7 388.49454 310.3094Q387.94766 311.09064 387.94766 313.21564ZM393.86954 313.21564Q393.86954 311.6844 394.18204 310.7625Q394.49454 309.825 395.1039 309.325Q395.7289 308.825 396.6664 308.825Q397.3539 308.825 397.86954 309.10626Q398.4008 309.3875 398.74454 309.91876Q399.0883 310.4344 399.2758 311.1844Q399.4633 311.9344 399.4633 313.21564Q399.4633 314.73126 399.1508 315.65314Q398.8539 316.575 398.2289 317.09064Q397.61954 317.59064 396.6664 317.59064Q395.43204 317.59064 394.7133 316.7Q393.86954 315.6375 393.86954 313.21564ZM394.94766 313.21564Q394.94766 315.325 395.44766 316.02814Q395.94766 316.73126 396.6664 316.73126Q397.4008 316.73126 397.88516 316.02814Q398.38516 315.325 398.38516 313.21564Q398.38516 311.09064 397.88516 310.40314Q397.4008 309.7 396.6508 309.7Q395.93204 309.7 395.49454 310.3094Q394.94766 311.09064 394.94766 313.21564Z" fill-rule="nonzero"/><path fill="#000000" d="M469.57736 317.45L468.5305 317.45L468.5305 310.73126Q468.13986 311.09064 467.51486 311.46564Q466.9055 311.825 466.4211 311.9969L466.4211 310.98126Q467.2961 310.5594 467.95236 309.98126Q468.62424 309.3875 468.9055 308.825L469.57736 308.825L469.57736 317.45ZM478.1555 316.4344L478.1555 317.45L472.468 317.45Q472.468 317.075 472.593 316.71564Q472.81174 316.1375 473.2805 315.575Q473.76486 315.0125 474.6711 314.27814Q476.07736 313.1219 476.56174 312.45Q477.06174 311.77814 477.06174 311.1844Q477.06174 310.5594 476.6086 310.1375Q476.1555 309.7 475.43674 309.7Q474.6711 309.7 474.218 310.15314Q473.76486 310.60626 473.74924 311.41876L472.6711 311.3094Q472.7805 310.09064 473.49924 309.46564Q474.2336 308.825 475.468 308.825Q476.70236 308.825 477.4211 309.5125Q478.13986 310.2 478.13986 311.21564Q478.13986 311.73126 477.9211 312.23126Q477.718 312.71564 477.218 313.27814Q476.7336 313.825 475.6086 314.77814Q474.6555 315.575 474.37424 315.8719Q474.1086 316.15314 473.93674 316.4344L478.1555 316.4344ZM479.6086 315.2L480.718 315.10626Q480.843 315.91876 481.2805 316.325Q481.7336 316.73126 482.37424 316.73126Q483.12424 316.73126 483.6555 316.15314Q484.18674 315.575 484.18674 314.6375Q484.18674 313.73126 483.6711 313.21564Q483.1711 312.6844 482.343 312.6844Q481.843 312.6844 481.4211 312.91876Q481.01486 313.15314 480.7805 313.5125L479.7961 313.3875L480.62424 308.98126L484.9055 308.98126L484.9055 309.98126L481.468 309.98126L481.01486 312.29376Q481.7805 311.7469 482.62424 311.7469Q483.74924 311.7469 484.51486 312.52814Q485.2961 313.3094 485.2961 314.54376Q485.2961 315.7 484.62424 316.5594Q483.7961 317.59064 482.37424 317.59064Q481.20236 317.59064 480.45236 316.9344Q479.718 316.27814 479.6086 315.2ZM486.6086 313.21564Q486.6086 311.6844 486.9211 310.7625Q487.2336 309.825 487.843 309.325Q488.468 308.825 489.4055 308.825Q490.093 308.825 490.6086 309.10626Q491.13986 309.3875 491.4836 309.91876Q491.82736 310.4344 492.01486 311.1844Q492.20236 311.9344 492.20236 313.21564Q492.20236 314.73126 491.88986 315.65314Q491.593 316.575 490.968 317.09064Q490.3586 317.59064 489.4055 317.59064Q488.1711 317.59064 487.45236 316.7Q486.6086 315.6375 486.6086 313.21564ZM487.68674 313.21564Q487.68674 315.325 488.18674 316.02814Q488.68674 316.73126 489.4055 316.73126Q490.13986 316.73126 490.62424 316.02814Q491.12424 315.325 491.12424 313.21564Q491.12424 311.09064 490.62424 310.40314Q490.13986 309.7 489.38986 309.7Q488.6711 309.7 488.2336 310.3094Q487.68674 311.09064 487.68674 313.21564Z" fill-rule="nonzero"/><path fill="#000000" d="M562.31647 317.45L561.2696 317.45L561.2696 310.73126Q560.87897 311.09064 560.25397 311.46564Q559.6446 311.825 559.1602 311.9969L559.1602 310.98126Q560.0352 310.5594 560.69147 309.98126Q561.36334 309.3875 561.6446 308.825L562.31647 308.825L562.31647 317.45ZM565.3477 315.2L566.4571 315.10626Q566.5821 315.91876 567.0196 316.325Q567.4727 316.73126 568.11334 316.73126Q568.86334 316.73126 569.3946 316.15314Q569.92584 315.575 569.92584 314.6375Q569.92584 313.73126 569.4102 313.21564Q568.9102 312.6844 568.0821 312.6844Q567.5821 312.6844 567.1602 312.91876Q566.75397 313.15314 566.5196 313.5125L565.5352 313.3875L566.36334 308.98126L570.6446 308.98126L570.6446 309.98126L567.2071 309.98126L566.75397 312.29376Q567.5196 311.7469 568.36334 311.7469Q569.48834 311.7469 570.25397 312.52814Q571.0352 313.3094 571.0352 314.54376Q571.0352 315.7 570.36334 316.5594Q569.5352 317.59064 568.11334 317.59064Q566.94147 317.59064 566.19147 316.9344Q565.4571 316.27814 565.3477 315.2ZM572.3477 313.21564Q572.3477 311.6844 572.6602 310.7625Q572.9727 309.825 573.5821 309.325Q574.2071 308.825 575.1446 308.825Q575.8321 308.825 576.3477 309.10626Q576.87897 309.3875 577.2227 309.91876Q577.56647 310.4344 577.75397 311.1844Q577.94147 311.9344 577.94147 313.21564Q577.94147 314.73126 577.62897 315.65314Q577.3321 316.575 576.7071 317.09064Q576.0977 317.59064 575.1446 317.59064Q573.9102 317.59064 573.19147 316.7Q572.3477 315.6375 572.3477 313.21564ZM573.42584 313.21564Q573.42584 315.325 573.92584 316.02814Q574.42584 316.73126 575.1446 316.73126Q575.87897 316.73126 576.36334 316.02814Q576.86334 315.325 576.86334 313.21564Q576.86334 311.09064 576.36334 310.40314Q575.87897 309.7 575.12897 309.7Q574.4102 309.7 573.9727 310.3094Q573.42584 311.09064 573.42584 313.21564ZM579.3477 313.21564Q579.3477 311.6844 579.6602 310.7625Q579.9727 309.825 580.5821 309.325Q581.2071 308.825 582.1446 308.825Q582.8321 308.825 583.3477 309.10626Q583.87897 309.3875 584.2227 309.91876Q584.56647 310.4344 584.75397 311.1844Q584.94147 311.9344 584.94147 313.21564Q584.94147 314.73126 584.62897 315.65314Q584.3321 316.575 583.7071 317.09064Q583.0977 317.59064 582.1446 317.59064Q580.9102 317.59064 580.19147 316.7Q579.3477 315.6375 579.3477 313.21564ZM580.42584 313.21564Q580.42584 315.325 580.92584 316.02814Q581.42584 316.73126 582.1446 316.73126Q582.87897 316.73126 583.36334 316.02814Q583.86334 315.325 583.86334 313.21564Q583.86334 311.09064 583.36334 310.40314Q582.87897 309.7 582.12897 309.7Q581.4102 309.7 580.9727 310.3094Q580.42584 311.09064 580.42584 313.21564Z" fill-rule="nonzero"/><path fill="#4285f4" d="M217.5 61.916668C217.5 65.23038 214.8137 67.916664 211.5 67.916664C208.1863 67.916664 205.5 65.23038 205.5 61.916668C205.5 58.60296 208.1863 55.916668 211.5 55.916668C214.8137 55.916668 217.5 58.60296 217.5 61.916668Z" fill-rule="nonzero"/><path fill="#1a1a1a" d="M230.45312 62.541664L230.45312 61.541664L234.07812 61.52604L234.07812 64.71354Q233.25 65.385414 232.35938 65.729164Q231.46875 66.05729 230.53125 66.05729Q229.26562 66.05729 228.21875 65.52604Q227.1875 64.979164 226.65625 63.96354Q226.14062 62.93229 226.14062 61.666664Q226.14062 60.40104 226.65625 59.322914Q227.1875 58.229164 228.17188 57.71354Q229.15625 57.18229 230.4375 57.18229Q231.375 57.18229 232.125 57.479164Q232.875 57.77604 233.29688 58.322914Q233.73438 58.854164 233.95312 59.729164L232.9375 60.010414Q232.73438 59.354164 232.4375 58.979164Q232.15625 58.604164 231.625 58.385414Q231.09375 58.15104 230.45312 58.15104Q229.67188 58.15104 229.09375 58.385414Q228.53125 58.61979 228.17188 59.010414Q227.82812 59.40104 227.64062 59.86979Q227.3125 60.666664 227.3125 61.58854Q227.3125 62.74479 227.70312 63.52604Q228.10938 64.291664 228.85938 64.666664Q229.60938 65.041664 230.46875 65.041664Q231.20312 65.041664 231.90625 64.760414Q232.60938 64.46354 232.96875 64.15104L232.96875 62.541664L230.45312 62.541664ZM235.28125 65.916664L235.28125 59.697914L236.23438 59.697914L236.23438 60.635414Q236.59375 59.979164 236.89062 59.77604Q237.20312 59.55729 237.57812 59.55729Q238.10938 59.55729 238.65625 59.885414L238.29688 60.86979Q237.90625 60.635414 237.53125 60.635414Q237.17188 60.635414 236.89062 60.854164Q236.625 61.05729 236.51562 61.43229Q236.32812 61.99479 236.32812 62.65104L236.32812 65.916664L235.28125 65.916664ZM243.54688 63.916664L244.64062 64.041664Q244.39062 64.99479 243.6875 65.52604Q242.98438 66.05729 241.90625 66.05729Q240.54688 66.05729 239.73438 65.21354Q238.9375 64.36979 238.9375 62.854164Q238.9375 61.291664 239.75 60.43229Q240.5625 59.55729 241.84375 59.55729Q243.09375 59.55729 243.875 60.40104Q244.67188 61.24479 244.67188 62.791664Q244.67188 62.885414 244.67188 63.072914L240.03125 63.072914Q240.09375 64.104164 240.60938 64.65104Q241.125 65.18229 241.90625 65.18229Q242.48438 65.18229 242.89062 64.885414Q243.3125 64.572914 243.54688 63.916664ZM240.09375 62.21354L243.5625 62.21354Q243.5 61.416664 243.17188 61.02604Q242.65625 60.416664 241.85938 60.416664Q241.125 60.416664 240.625 60.90104Q240.14062 61.385414 240.09375 62.21354ZM250.54688 63.916664L251.64062 64.041664Q251.39062 64.99479 250.6875 65.52604Q249.98438 66.05729 248.90625 66.05729Q247.54688 66.05729 246.73438 65.21354Q245.9375 64.36979 245.9375 62.854164Q245.9375 61.291664 246.75 60.43229Q247.5625 59.55729 248.84375 59.55729Q250.09375 59.55729 250.875 60.40104Q251.67188 61.24479 251.67188 62.791664Q251.67188 62.885414 251.67188 63.072914L247.03125 63.072914Q247.09375 64.104164 247.60938 64.65104Q248.125 65.18229 248.90625 65.18229Q249.48438 65.18229 249.89062 64.885414Q250.3125 64.572914 250.54688 63.916664ZM247.09375 62.21354L250.5625 62.21354Q250.5 61.416664 250.17188 61.02604Q249.65625 60.416664 248.85938 60.416664Q248.125 60.416664 247.625 60.90104Q247.14062 61.385414 247.09375 62.21354ZM257.32812 65.916664L257.32812 65.135414Q256.73438 66.05729 255.59375 66.05729Q254.84375 66.05729 254.21875 65.65104Q253.59375 65.229164 253.25 64.49479Q252.90625 63.760414 252.90625 62.80729Q252.90625 61.885414 253.21875 61.11979Q253.53125 60.354164 254.15625 59.96354Q254.78125 59.55729 255.54688 59.55729Q256.10938 59.55729 256.54688 59.791664Q256.98438 60.02604 257.26562 60.40104L257.26562 57.322914L258.3125 57.322914L258.3125 65.916664L257.32812 65.916664ZM254.0 62.80729Q254.0 64.010414 254.5 64.604164Q255.0 65.18229 255.6875 65.18229Q256.375 65.18229 256.85938 64.61979Q257.34375 64.05729 257.34375 62.90104Q257.34375 61.61979 256.84375 61.02604Q256.35938 60.43229 255.64062 60.43229Q254.9375 60.43229 254.46875 61.010414Q254.0 61.572914 254.0 62.80729ZM260.25 68.30729L260.125 67.322914Q260.46875 67.416664 260.73438 67.416664Q261.07812 67.416664 261.28125 67.291664Q261.5 67.18229 261.64062 66.979164Q261.73438 66.80729 261.96875 66.18229Q261.98438 66.104164 262.0625 65.93229L259.6875 59.697914L260.82812 59.697914L262.125 63.291664Q262.375 63.979164 262.57812 64.74479Q262.76562 64.010414 263.01562 63.322914L264.34375 59.697914L265.39062 59.697914L263.03125 66.02604Q262.64062 67.041664 262.4375 67.43229Q262.15625 67.96354 261.78125 68.197914Q261.42188 68.447914 260.92188 68.447914Q260.625 68.447914 260.25 68.30729Z" fill-rule="nonzero"/><path fill="#ea4335" d="M292.5 61.916668C292.5 65.23038 289.81372 67.916664 286.5 67.916664C283.18628 67.916664 280.5 65.23038 280.5 61.916668C280.5 58.60296 283.18628 55.916668 286.5 55.916668C289.81372 55.916668 292.5 58.60296 292.5 61.916668Z" fill-rule="nonzero"/><path fill="#1a1a1a" d="M303.875 65.916664L300.54688 57.322914L301.78125 57.322914L304.01562 63.572914Q304.28125 64.322914 304.46875 64.979164Q304.67188 64.27604 304.9375 63.572914L307.25 57.322914L308.40625 57.322914L305.04688 65.916664L303.875 65.916664ZM308.42188 65.916664L308.42188 57.322914L309.57812 57.322914L314.09375 64.072914L314.09375 57.322914L315.1875 57.322914L315.1875 65.916664L314.01562 65.916664L309.5 59.166664L309.5 65.916664L308.42188 65.916664ZM317.04688 63.15104L318.10938 63.05729Q318.1875 63.71354 318.46875 64.11979Q318.75 64.52604 319.32812 64.791664Q319.92188 65.041664 320.65625 65.041664Q321.29688 65.041664 321.79688 64.854164Q322.29688 64.65104 322.53125 64.322914Q322.78125 63.979164 322.78125 63.58854Q322.78125 63.18229 322.54688 62.885414Q322.3125 62.572914 321.78125 62.36979Q321.42188 62.229164 320.23438 61.947914Q319.0625 61.666664 318.59375 61.416664Q317.96875 61.08854 317.67188 60.61979Q317.375 60.135414 317.375 59.541664Q317.375 58.90104 317.73438 58.33854Q318.10938 57.760414 318.8125 57.479164Q319.53125 57.18229 320.39062 57.18229Q321.34375 57.18229 322.07812 57.49479Q322.8125 57.791664 323.20312 58.40104Q323.59375 58.99479 323.625 59.74479L322.53125 59.822914Q322.4375 59.010414 321.92188 58.604164Q321.42188 58.18229 320.4375 58.18229Q319.40625 58.18229 318.9375 58.55729Q318.46875 58.93229 318.46875 59.46354Q318.46875 59.93229 318.79688 60.229164Q319.125 60.52604 320.5 60.83854Q321.89062 61.15104 322.40625 61.385414Q323.15625 61.74479 323.51562 62.27604Q323.875 62.791664 323.875 63.49479Q323.875 64.18229 323.48438 64.791664Q323.09375 65.385414 322.35938 65.729164Q321.625 66.05729 320.70312 66.05729Q319.53125 66.05729 318.73438 65.729164Q317.95312 65.385414 317.5 64.697914Q317.0625 64.010414 317.04688 63.15104Z" fill-rule="nonzero"/><path fill="#fbbc04" d="M352.5 61.916668C352.5 65.23038 349.81372 67.916664 346.5 67.916664C343.18628 67.916664 340.5 65.23038 340.5 61.916668C340.5 58.60296 343.18628 55.916668 346.5 55.916668C349.81372 55.916668 352.5 58.60296 352.5 61.916668Z" fill-rule="nonzero"/><path fill="#1a1a1a" d="M361.42188 65.916664L361.42188 57.322914L364.67188 57.322914Q365.51562 57.322914 365.96875 57.40104Q366.60938 57.510414 367.03125 57.80729Q367.46875 58.104164 367.71875 58.635414Q367.98438 59.166664 367.98438 59.80729Q367.98438 60.90104 367.28125 61.666664Q366.59375 62.416664 364.76562 62.416664L362.5625 62.416664L362.5625 65.916664L361.42188 65.916664ZM362.5625 61.416664L364.78125 61.416664Q365.89062 61.416664 366.34375 61.010414Q366.8125 60.58854 366.8125 59.83854Q366.8125 59.30729 366.53125 58.93229Q366.26562 58.541664 365.82812 58.416664Q365.53125 58.33854 364.76562 58.33854L362.5625 58.33854L362.5625 61.416664ZM369.04688 63.15104L370.10938 63.05729Q370.1875 63.71354 370.46875 64.11979Q370.75 64.52604 371.32812 64.791664Q371.92188 65.041664 372.65625 65.041664Q373.29688 65.041664 373.79688 64.854164Q374.29688 64.65104 374.53125 64.322914Q374.78125 63.979164 374.78125 63.58854Q374.78125 63.18229 374.54688 62.885414Q374.3125 62.572914 373.78125 62.36979Q373.42188 62.229164 372.23438 61.947914Q371.0625 61.666664 370.59375 61.416664Q369.96875 61.08854 369.67188 60.61979Q369.375 60.135414 369.375 59.541664Q369.375 58.90104 369.73438 58.33854Q370.10938 57.760414 370.8125 57.479164Q371.53125 57.18229 372.39062 57.18229Q373.34375 57.18229 374.07812 57.49479Q374.8125 57.791664 375.20312 58.40104Q375.59375 58.99479 375.625 59.74479L374.53125 59.822914Q374.4375 59.010414 373.92188 58.604164Q373.42188 58.18229 372.4375 58.18229Q371.40625 58.18229 370.9375 58.55729Q370.46875 58.93229 370.46875 59.46354Q370.46875 59.93229 370.79688 60.229164Q371.125 60.52604 372.5 60.83854Q373.89062 61.15104 374.40625 61.385414Q375.15625 61.74479 375.51562 62.27604Q375.875 62.791664 375.875 63.49479Q375.875 64.18229 375.48438 64.791664Q375.09375 65.385414 374.35938 65.729164Q373.625 66.05729 372.70312 66.05729Q371.53125 66.05729 370.73438 65.729164Q369.95312 65.385414 369.5 64.697914Q369.0625 64.010414 369.04688 63.15104ZM377.07812 61.729164Q377.07812 59.58854 378.21875 58.385414Q379.375 57.166664 381.1875 57.166664Q382.39062 57.166664 383.34375 57.74479Q384.29688 58.30729 384.79688 59.322914Q385.29688 60.33854 385.29688 61.635414Q385.29688 62.93229 384.76562 63.96354Q384.23438 64.99479 383.26562 65.52604Q382.3125 66.05729 381.1875 66.05729Q379.96875 66.05729 379.01562 65.479164Q378.0625 64.885414 377.5625 63.885414Q377.07812 62.86979 377.07812 61.729164ZM378.25 61.74479Q378.25 63.30729 379.07812 64.197914Q379.92188 65.08854 381.1875 65.08854Q382.46875 65.08854 383.29688 64.197914Q384.125 63.291664 384.125 61.61979Q384.125 60.572914 383.76562 59.791664Q383.42188 59.010414 382.73438 58.58854Q382.04688 58.15104 381.20312 58.15104Q380.0 58.15104 379.125 58.979164Q378.25 59.80729 378.25 61.74479ZM386.42188 65.916664L386.42188 57.322914L389.39062 57.322914Q390.39062 57.322914 390.92188 57.447914Q391.65625 57.61979 392.17188 58.05729Q392.85938 58.635414 393.1875 59.541664Q393.53125 60.43229 393.53125 61.572914Q393.53125 62.55729 393.29688 63.30729Q393.07812 64.05729 392.71875 64.55729Q392.35938 65.05729 391.92188 65.33854Q391.5 65.61979 390.90625 65.77604Q390.3125 65.916664 389.53125 65.916664L386.42188 65.916664ZM387.5625 64.90104L389.39062 64.90104Q390.25 64.90104 390.73438 64.74479Q391.21875 64.58854 391.5 64.291664Q391.90625 63.90104 392.125 63.21354Q392.35938 62.52604 392.35938 61.55729Q392.35938 60.21354 391.90625 59.49479Q391.46875 58.760414 390.84375 58.510414Q390.375 58.33854 389.375 58.33854L387.5625 58.33854L387.5625 64.90104Z" fill-rule="nonzero"/><path fill="#757575" d="M22.596874 37.55L18.8 23.2375L20.7375 23.2375L22.909374 32.6125Q23.26875 34.096874 23.51875 35.55Q24.065624 33.253124 24.159374 32.89375L26.89375 23.2375L29.175 23.2375L31.221874 30.471874Q32.003124 33.175 32.346874 35.55Q32.6125 34.190624 33.05 32.425L35.3 23.2375L37.20625 23.2375L33.284374 37.55L31.45625 37.55L28.440624 26.64375Q28.05 25.26875 27.9875 24.95625Q27.753124 25.940624 27.565624 26.64375L24.534374 37.55L22.596874 37.55ZM45.64375 36.26875Q44.659374 37.096874 43.753124 37.440624Q42.846874 37.784374 41.815624 37.784374Q40.1125 37.784374 39.190624 36.95625Q38.26875 36.1125 38.26875 34.815624Q38.26875 34.05 38.6125 33.425Q38.971874 32.8 39.534374 32.425Q40.096874 32.034374 40.8 31.83125Q41.315624 31.70625 42.3625 31.565624Q44.4875 31.315624 45.4875 30.971874Q45.503124 30.6125 45.503124 30.503124Q45.503124 29.440624 45.003124 28.9875Q44.33125 28.39375 43.003124 28.39375Q41.753124 28.39375 41.159374 28.83125Q40.58125 29.26875 40.3 30.378124L38.58125 30.14375Q38.815624 29.034374 39.346874 28.3625Q39.878124 27.675 40.89375 27.315624Q41.909374 26.940624 43.253124 26.940624Q44.58125 26.940624 45.409374 27.253124Q46.2375 27.565624 46.628124 28.05Q47.01875 28.51875 47.175 29.2375Q47.26875 29.690624 47.26875 30.8625L47.26875 33.20625Q47.26875 35.659374 47.378124 36.315624Q47.4875 36.95625 47.83125 37.55L45.9875 37.55Q45.721874 37.003124 45.64375 36.26875ZM45.4875 32.346874Q44.534374 32.7375 42.6125 33.003124Q41.534374 33.159374 41.08125 33.3625Q40.64375 33.55 40.39375 33.925Q40.14375 34.3 40.14375 34.76875Q40.14375 35.471874 40.675 35.940624Q41.20625 36.409374 42.2375 36.409374Q43.253124 36.409374 44.034374 35.971874Q44.83125 35.51875 45.20625 34.753124Q45.4875 34.14375 45.4875 32.9875L45.4875 32.346874ZM53.70625 35.971874L53.95625 37.534374Q53.221874 37.690624 52.628124 37.690624Q51.675 37.690624 51.14375 37.39375Q50.628124 37.08125 50.409374 36.596874Q50.190624 36.096874 50.190624 34.51875L50.190624 28.55L48.909374 28.55L48.909374 27.175L50.190624 27.175L50.190624 24.6125L51.940624 23.55L51.940624 27.175L53.70625 27.175L53.70625 28.55L51.940624 28.55L51.940624 34.6125Q51.940624 35.3625 52.034374 35.58125Q52.128124 35.784374 52.33125 35.925Q52.55 36.05 52.940624 36.05Q53.221874 36.05 53.70625 35.971874ZM59.70625 35.971874L59.95625 37.534374Q59.221874 37.690624 58.628124 37.690624Q57.675 37.690624 57.14375 37.39375Q56.628124 37.08125 56.409374 36.596874Q56.190624 36.096874 56.190624 34.51875L56.190624 28.55L54.909374 28.55L54.909374 27.175L56.190624 27.175L56.190624 24.6125L57.940624 23.55L57.940624 27.175L59.70625 27.175L59.70625 28.55L57.940624 28.55L57.940624 34.6125Q57.940624 35.3625 58.034374 35.58125Q58.128124 35.784374 58.33125 35.925Q58.55 36.05 58.940624 36.05Q59.221874 36.05 59.70625 35.971874ZM61.159374 34.45625L62.909374 34.175Q63.05 35.221874 63.721874 35.784374Q64.39375 36.33125 65.59688 36.33125Q66.8 36.33125 67.37813 35.846874Q67.97188 35.346874 67.97188 34.690624Q67.97188 34.096874 67.45625 33.753124Q67.09688 33.51875 65.65938 33.159374Q63.721874 32.659374 62.971874 32.315624Q62.2375 31.95625 61.846874 31.33125Q61.45625 30.690624 61.45625 29.925Q61.45625 29.2375 61.76875 28.64375Q62.096874 28.05 62.64375 27.659374Q63.05 27.3625 63.753124 27.159374Q64.47188 26.940624 65.28438 26.940624Q66.50313 26.940624 67.425 27.3Q68.34688 27.64375 68.78438 28.253124Q69.22188 28.846874 69.39375 29.846874L67.675 30.08125Q67.55 29.284374 66.9875 28.846874Q66.425 28.39375 65.40938 28.39375Q64.19063 28.39375 63.675 28.8Q63.159374 29.190624 63.159374 29.721874Q63.159374 30.065624 63.378124 30.346874Q63.58125 30.628124 64.05 30.815624Q64.31563 30.909374 65.59688 31.253124Q67.47188 31.753124 68.20625 32.08125Q68.94063 32.39375 69.3625 33.003124Q69.78438 33.596874 69.78438 34.503124Q69.78438 35.378124 69.26875 36.159374Q68.75313 36.940624 67.78438 37.3625Q66.81563 37.784374 65.59688 37.784374Q63.58125 37.784374 62.51875 36.940624Q61.45625 36.096874 61.159374 34.45625ZM70.50313 33.08125L70.50313 31.659374L81.62813 31.659374L81.62813 33.08125L70.50313 33.08125ZM82.45625 32.95625L84.2375 32.8Q84.3625 33.8625 84.81563 34.55Q85.28438 35.2375 86.25313 35.675Q87.2375 36.096874 88.47188 36.096874Q89.55 36.096874 90.37813 35.784374Q91.20625 35.45625 91.6125 34.89375Q92.01875 34.33125 92.01875 33.659374Q92.01875 32.9875 91.62813 32.4875Q91.2375 31.9875 90.34688 31.64375Q89.76875 31.409374 87.78438 30.940624Q85.81563 30.471874 85.03438 30.05Q84.00313 29.51875 83.50313 28.721874Q83.00313 27.925 83.00313 26.940624Q83.00313 25.846874 83.6125 24.909374Q84.22188 23.971874 85.40938 23.4875Q86.59688 22.9875 88.03438 22.9875Q89.62813 22.9875 90.84688 23.503124Q92.06563 24.01875 92.70625 25.01875Q93.3625 26.003124 93.40938 27.26875L91.59688 27.409374Q91.45625 26.05 90.6125 25.3625Q89.76875 24.659374 88.1125 24.659374Q86.39375 24.659374 85.59688 25.3Q84.81563 25.925 84.81563 26.8Q84.81563 27.58125 85.37813 28.08125Q85.925 28.58125 88.2375 29.096874Q90.55 29.6125 91.40938 30.003124Q92.65938 30.58125 93.25313 31.471874Q93.84688 32.346874 93.84688 33.503124Q93.84688 34.64375 93.19063 35.659374Q92.53438 36.675 91.3 37.2375Q90.08125 37.8 88.55 37.8Q86.6125 37.8 85.3 37.2375Q83.9875 36.659374 83.2375 35.51875Q82.4875 34.378124 82.45625 32.95625ZM99.70625 35.971874L99.95625 37.534374Q99.22188 37.690624 98.62813 37.690624Q97.675 37.690624 97.14375 37.39375Q96.62813 37.08125 96.40938 36.596874Q96.19063 36.096874 96.19063 34.51875L96.19063 28.55L94.90938 28.55L94.90938 27.175L96.19063 27.175L96.19063 24.6125L97.94063 23.55L97.94063 27.175L99.70625 27.175L99.70625 28.55L97.94063 28.55L97.94063 34.6125Q97.94063 35.3625 98.03438 35.58125Q98.12813 35.784374 98.33125 35.925Q98.55 36.05 98.94063 36.05Q99.22188 36.05 99.70625 35.971874ZM101.84688 37.55L101.84688 27.175L103.425 27.175L103.425 28.753124Q104.03438 27.64375 104.55 27.3Q105.06563 26.940624 105.675 26.940624Q106.56563 26.940624 107.4875 27.503124L106.87813 29.14375Q106.2375 28.753124 105.59688 28.753124Q105.01875 28.753124 104.55 29.1125Q104.09688 29.45625 103.89375 30.065624Q103.6125 31.003124 103.6125 32.1125L103.6125 37.55L101.84688 37.55ZM108.22188 32.3625Q108.22188 29.4875 109.81563 28.096874Q111.15938 26.940624 113.08125 26.940624Q115.22188 26.940624 116.56563 28.346874Q117.925 29.753124 117.925 32.221874Q117.925 34.221874 117.33125 35.378124Q116.7375 36.51875 115.58125 37.159374Q114.44063 37.784374 113.08125 37.784374Q110.89375 37.784374 109.55 36.39375Q108.22188 34.9875 108.22188 32.3625ZM110.01875 32.3625Q110.01875 34.3625 110.87813 35.346874Q111.75313 36.33125 113.08125 36.33125Q114.39375 36.33125 115.25313 35.346874Q116.12813 34.346874 116.12813 32.3Q116.12813 30.378124 115.25313 29.39375Q114.37813 28.39375 113.08125 28.39375Q111.75313 28.39375 110.87813 29.39375Q110.01875 30.378124 110.01875 32.3625ZM119.55 38.409374L121.25313 38.659374Q121.3625 39.45625 121.84688 39.815624Q122.50313 40.3 123.64375 40.3Q124.8625 40.3 125.51875 39.815624Q126.19063 39.33125 126.425 38.45625Q126.56563 37.909374 126.55 36.190624Q125.39375 37.55 123.675 37.55Q121.53438 37.55 120.3625 36.003124Q119.19063 34.45625 119.19063 32.3Q119.19063 30.815624 119.72188 29.565624Q120.26875 28.315624 121.28438 27.628124Q122.31563 26.940624 123.69063 26.940624Q125.51875 26.940624 126.72188 28.425L126.72188 27.175L128.33125 27.175L128.33125 36.14375Q128.33125 38.565624 127.83125 39.565624Q127.34688 40.58125 126.26875 41.159374Q125.20625 41.753124 123.64375 41.753124Q121.8 41.753124 120.64375 40.925Q119.50313 40.096874 119.55 38.409374ZM121.00313 32.175Q121.00313 34.221874 121.81563 35.159374Q122.62813 36.096874 123.84688 36.096874Q125.05 36.096874 125.8625 35.159374Q126.69063 34.221874 126.69063 32.2375Q126.69063 30.33125 125.84688 29.3625Q125.00313 28.39375 123.81563 28.39375Q122.64375 28.39375 121.81563 29.346874Q121.00313 30.3 121.00313 32.175ZM137.64375 36.26875Q136.65938 37.096874 135.75313 37.440624Q134.84688 37.784374 133.81563 37.784374Q132.1125 37.784374 131.19063 36.95625Q130.26875 36.1125 130.26875 34.815624Q130.26875 34.05 130.6125 33.425Q130.97188 32.8 131.53438 32.425Q132.09688 32.034374 132.8 31.83125Q133.31563 31.70625 134.3625 31.565624Q136.4875 31.315624 137.4875 30.971874Q137.50313 30.6125 137.50313 30.503124Q137.50313 29.440624 137.00313 28.9875Q136.33125 28.39375 135.00313 28.39375Q133.75313 28.39375 133.15938 28.83125Q132.58125 29.26875 132.3 30.378124L130.58125 30.14375Q130.81563 29.034374 131.34688 28.3625Q131.87813 27.675 132.89375 27.315624Q133.90938 26.940624 135.25313 26.940624Q136.58125 26.940624 137.40938 27.253124Q138.2375 27.565624 138.62813 28.05Q139.01875 28.51875 139.175 29.2375Q139.26875 29.690624 139.26875 30.8625L139.26875 33.20625Q139.26875 35.659374 139.37813 36.315624Q139.4875 36.95625 139.83125 37.55L137.9875 37.55Q137.72188 37.003124 137.64375 36.26875ZM137.4875 32.346874Q136.53438 32.7375 134.6125 33.003124Q133.53438 33.159374 133.08125 33.3625Q132.64375 33.55 132.39375 33.925Q132.14375 34.3 132.14375 34.76875Q132.14375 35.471874 132.675 35.940624Q133.20625 36.409374 134.2375 36.409374Q135.25313 36.409374 136.03438 35.971874Q136.83125 35.51875 137.20625 34.753124Q137.4875 34.14375 137.4875 32.9875L137.4875 32.346874ZM145.70625 35.971874L145.95625 37.534374Q145.22188 37.690624 144.62813 37.690624Q143.675 37.690624 143.14375 37.39375Q142.62813 37.08125 142.40938 36.596874Q142.19063 36.096874 142.19063 34.51875L142.19063 28.55L140.90938 28.55L140.90938 27.175L142.19063 27.175L142.19063 24.6125L143.94063 23.55L143.94063 27.175L145.70625 27.175L145.70625 28.55L143.94063 28.55L143.94063 34.6125Q143.94063 35.3625 144.03438 35.58125Q144.12813 35.784374 144.33125 35.925Q144.55 36.05 144.94063 36.05Q145.22188 36.05 145.70625 35.971874ZM146.94063 37.55L146.94063 36.128124L153.55 28.55Q152.425 28.596874 151.56563 28.596874L147.33125 28.596874L147.33125 27.175L155.81563 27.175L155.81563 28.346874L150.19063 34.925L149.1125 36.128124Q150.28438 36.034374 151.33125 36.034374L156.12813 36.034374L156.12813 37.55L146.94063 37.55Z" fill-rule="nonzero"/></svg>